0
SECTION
2
HEADER
9
$INSUNITS
70
4
9
$ACADVER
1
AC1014
9
$HANDSEED
5
FFFF
0
ENDSEC
0
SECTION
2
TABLES
0
TABLE
2
VPORT
5
8
100
AcDbSymbolTable
0
ENDTAB
0
TABLE
2
LTYPE
5
5
100
AcDbSymbolTable
0
LTYPE
5
14
100
AcDbSymbolTableRecord
100
AcDbLinetypeTableRecord
2
BYBLOCK
70
0
0
LTYPE
5
15
100
AcDbSymbolTableRecord
100
AcDbLinetypeTableRecord
2
BYLAYER
70
0
0
LTYPE
5
16
100
AcDbSymbolTableRecord
100
AcDbLinetypeTableRecord
2
DASHED
70
0
3
Dashed __ __ __ __ __ __ __ __ __ __ __ __ __ _
72
65
73
2
40
0.75
49
0.5
74
0
49
-0.25
74
0
0
ENDTAB
0
TABLE
2
LAYER
5
2
100
AcDbSymbolTable
70
2
0
LAYER
5
50
100
AcDbSymbolTableRecord
100
AcDbLayerTableRecord
2
0
70
0
62
7
6
CONTINUOUS
0
ENDTAB
0
TABLE
2
STYLE
5
3
100
AcDbSymbolTable
70
1
0
STYLE
5
11
100
AcDbSymbolTableRecord
100
AcDbTextStyleTableRecord
2
STANDARD
70
0
0
ENDTAB
0
TABLE
2
VIEW
5
6
100
AcDbSymbolTable
70
0
0
ENDTAB
0
TABLE
2
UCS
5
7
100
AcDbSymbolTable
70
0
0
ENDTAB
0
TABLE
2
APPID
5
9
100
AcDbSymbolTable
70
2
0
APPID
5
12
100
AcDbSymbolTableRecord
100
AcDbRegAppTableRecord
2
ACAD
70
0
0
ENDTAB
0
TABLE
2
DIMSTYLE
5
A
100
AcDbSymbolTable
70
1
0
ENDTAB
0
TABLE
2
BLOCK_RECORD
5
1
100
AcDbSymbolTable
70
1
0
BLOCK_RECORD
5
1F
100
AcDbSymbolTableRecord
100
AcDbBlockTableRecord
2
*MODEL_SPACE
0
BLOCK_RECORD
5
1B
100
AcDbSymbolTableRecord
100
AcDbBlockTableRecord
2
*PAPER_SPACE
0
ENDTAB
0
ENDSEC
0
SECTION
2
BLOCKS
0
BLOCK
5
20
100
AcDbEntity
100
AcDbBlockBegin
2
*MODEL_SPACE
0
ENDBLK
5
21
100
AcDbEntity
100
AcDbBlockEnd
0
BLOCK
5
1C
100
AcDbEntity
100
AcDbBlockBegin
2
*PAPER_SPACE
0
ENDBLK
5
1D
100
AcDbEntity
100
AcDbBlockEnd
0
ENDSEC
0
SECTION
2
ENTITIES
0
POINT
5
100
100
AcDbEntity
8
0
100
AcDbPoint
10
83.499999999999375
20
29.158731370490536
30
0
0
POINT
5
101
100
AcDbEntity
8
0
100
AcDbPoint
10
0.50016067440958889
20
11.159349704686488
30
0
0
POINT
5
102
100
AcDbEntity
8
0
100
AcDbPoint
10
9.0001606744085638
20
29.159346480442807
30
0
0
LWPOLYLINE
5
103
100
AcDbEntity
8
0
100
AcDbPolyline
90
14
70
1
43
0.0
10
28.702868914126469
20
-51.704608033545156
10
33.499577116261499
20
-53.691545244338919
10
50.499577116261491
20
-53.69154524433894
10
55.296338788908471
20
-51.704737122780259
10
67.317154069079749
20
-39.683921842608918
10
69.304091279873532
20
-34.887213640473917
10
69.304091279873532
20
-17.887213640473895
10
84
20
-17.887213640473895
10
84
20
42.308454755661067
10
-1.7763568394002505e-14
20
42.308454755661053
10
0
20
-17.887031080726885
10
14.695245512396474
20
-17.887031080726885
10
14.695245512396474
20
-34.887031080726878
10
16.682053633955146
20
-39.683792753373851
0
CIRCLE
5
104
100
AcDbEntity
8
0
100
AcDbCircle
10
64.896347330968226
20
35.983369239040961
30
0
40
1.2500000000000044
210
8.1202043190929818e-34
220
-8.6724863238375355e-66
230
1
0
CIRCLE
5
105
100
AcDbEntity
8
0
100
AcDbCircle
10
19.103596945424364
20
35.983570957889704
30
0
40
1.2500000000000044
210
8.1202043190929818e-34
220
-8.6724863238375355e-66
230
1
0
CIRCLE
5
106
100
AcDbEntity
8
0
100
AcDbCircle
10
41.999711469302696
20
-23.191692026375932
30
0
40
1.2499999999999989
210
8.1202043190929818e-34
220
-8.6724863238375355e-66
230
1
0
SPLINE
5
107
100
AcDbEntity
8
0
100
AcDbSpline
70
0
71
3
72
8
73
4
74
0
42
0.000000001
43
0.0000000001
44
0.0000000001
40
0.00045491185602150868
40
0.00045491185602150868
40
0.00045491185602150868
40
0.00045491185602150868
40
0.0011356500763137511
40
0.0011356500763137511
40
0.0011356500763137511
40
0.0011356500763137511
10
69.929243669834477
20
26.128659204696916
30
0
10
70.035290518374197
20
26.148722333969406
30
0
10
70.142761395018624
20
26.158734582058763
30
0
10
70.250000000000171
20
26.158734582058759
30
0
0
SPLINE
5
108
100
AcDbEntity
8
0
100
AcDbSpline
70
0
71
3
72
8
73
4
74
0
42
0.000000001
43
0.0000000001
44
0.0000000001
40
-1.5491941171960457e-05
40
-1.5491941171960457e-05
40
-1.5491941171960457e-05
40
-1.5491941171960457e-05
40
0.00066524627912027559
40
0.00066524627912027559
40
0.00066524627912027559
40
0.00066524627912027559
10
70.250000000000171
20
26.158734582058759
30
0
10
70.142761395018226
20
26.158734582058756
30
0
10
70.035290518374197
20
26.148722333969381
30
0
10
69.929243669834491
20
26.128659204696888
30
0
0
LWPOLYLINE
5
109
100
AcDbEntity
8
0
100
AcDbPolyline
90
2
70
1
43
0.0
10
69.929243669834477
20
26.128659204696916
10
69.950000000000159
20
26.128659204698458
0
SPLINE
5
110
100
AcDbEntity
8
0
100
AcDbSpline
70
0
71
3
72
22
73
18
74
0
42
0.000000001
43
0.0000000001
44
0.0000000001
40
-0.090940916730405053
40
-0.090940916730405053
40
-0.090940916730405053
40
-0.090940916730405053
40
-0.079648333089920864
40
-0.079648333089920864
40
-0.068355749449436676
40
-0.068355749449436676
40
-0.056950781637793331
40
-0.056950781637793331
40
-0.045545813826149986
40
-0.045545813826149986
40
-0.034072537060678469
40
-0.034072537060678469
40
-0.022599260295206952
40
-0.022599260295206952
40
-0.011299630147603476
40
-0.011299630147603476
40
0
40
0
40
0
40
0
10
69.950000000000159
20
26.128659204698465
30
0
10
69.98764194546844
20
26.128659204698465
30
0
10
70.02778105282772
20
26.12791842721343
30
0
10
70.101584582523571
20
26.12473203570363
30
0
10
70.135248508828909
20
26.122265906647719
30
0
10
70.188649689253353
20
26.116124230744795
30
0
10
70.211829842224788
20
26.112022073279093
30
0
10
70.24250285050654
20
26.10224656480127
30
0
10
70.250000000000156
20
26.096553045950117
30
0
10
70.250000000000156
20
26.085113923661556
30
0
10
70.242422167369384
20
26.078593751571919
30
0
10
70.211613580774269
20
26.065871073882651
30
0
10
70.188383044169143
20
26.059688563490706
30
0
10
70.135016766688707
20
26.049676554870164
30
0
10
70.101455925880089
20
26.045157150175328
30
0
10
70.027782223963683
20
26.03906246957802
30
0
10
69.987665433825498
20
26.037509964738355
30
0
10
69.950000000000159
20
26.037509964738355
30
0
0
LWPOLYLINE
5
111
100
AcDbEntity
8
0
100
AcDbPolyline
90
2
70
1
43
0.0
10
69.950000000000145
20
26.037509964738362
10
68.750000000000171
20
26.037509964738355
0
LWPOLYLINE
5
112
100
AcDbEntity
8
0
100
AcDbPolyline
90
2
70
1
43
0.0
10
68.750000000000171
20
26.037489549701093
10
68.750000000000171
20
23.475485006804455
0
LWPOLYLINE
5
113
100
AcDbEntity
8
0
100
AcDbPolyline
90
5
70
1
43
0.0
10
68.750000000000171
20
23.475359372414026
10
75.000000000000171
20
23.475359372414019
10
75.000000000000171
20
26.158734582058759
10
82.250000000000171
20
26.158734582058756
10
82.250000000000171
20
23.475359372414285
0
SPLINE
5
114
100
AcDbEntity
8
0
100
AcDbSpline
70
0
71
3
72
22
73
18
74
0
42
0.000000001
43
0.0000000001
44
0.0000000001
40
-0.090940916730405053
40
-0.090940916730405053
40
-0.090940916730405053
40
-0.090940916730405053
40
-0.079641286582801576
40
-0.079641286582801576
40
-0.0683416564351981
40
-0.0683416564351981
40
-0.056868379669726583
40
-0.056868379669726583
40
-0.045395102904255066
40
-0.045395102904255066
40
-0.033990135092611722
40
-0.033990135092611722
40
-0.02258516728096838
40
-0.02258516728096838
40
-0.01129258364048419
40
-0.01129258364048419
40
0
40
0
40
0
40
0
10
69.950000000000159
20
26.037509964738419
30
0
10
69.987665433825498
20
26.037509964738419
30
0
10
70.027782223963683
20
26.039062469578084
30
0
10
70.101455925880089
20
26.045157150175385
30
0
10
70.135016766688707
20
26.049676554870228
30
0
10
70.188383044169143
20
26.059688563490763
30
0
10
70.211613580774269
20
26.065871073882711
30
0
10
70.242422167369384
20
26.078593751571972
30
0
10
70.250000000000156
20
26.085113923661606
30
0
10
70.250000000000156
20
26.096553045950159
30
0
10
70.24250285050654
20
26.102246564801312
30
0
10
70.211829842224788
20
26.112022073279132
30
0
10
70.188649689253353
20
26.11612423074483
30
0
10
70.135248508828909
20
26.122265906647755
30
0
10
70.101584582523571
20
26.124732035703666
30
0
10
70.02778105282772
20
26.127918427213462
30
0
10
69.98764194546844
20
26.128659204698501
30
0
10
69.950000000000159
20
26.128659204698494
30
0
0
ARC
5
115
100
AcDbEntity
8
0
100
AcDbCircle
10
79.250000000000171
20
29.158734582058898
30
0
40
4.2500000000000018
210
1.1617138898776699e-36
220
1.4729512214669008e-30
230
1
100
AcDbArc
50
-4.3273776439337477e-05
51
180
0
SPLINE
5
116
100
AcDbEntity
8
0
100
AcDbSpline
70
0
71
3
72
10
73
6
74
0
42
0.000000001
43
0.0000000001
44
0.0000000001
40
0.54396847428702888
40
0.54396847428702888
40
0.54396847428702888
40
0.54396847428702888
40
0.6065156769762341
40
0.6065156769762341
40
0.69874192057240603
40
0.69874192057240603
40
0.69874192057240603
40
0.69874192057240603
10
75.273506188028577
20
30.658733569842344
30
0
10
75.196954284107278
20
30.453601724724582
30
0
10
75.136391537561565
20
30.246143634473952
30
0
10
75.030814282100536
20
29.751783086127848
30
0
10
75.000277937654829
20
29.442143509466131
30
0
10
75.000000000000171
20
29.158734577075517
30
0
0
ARC
5
117
100
AcDbEntity
8
0
100
AcDbCircle
10
79.250000000000171
20
29.158734582058898
30
0
40
4.2499999999999671
210
2.134195392010196e-31
220
1.8099262834233251e-30
230
1
100
AcDbArc
50
20.667316205333332
51
159.33269809112937
0
SPLINE
5
118
100
AcDbEntity
8
0
100
AcDbSpline
70
0
71
3
72
10
73
6
74
0
42
0.000000001
43
0.0000000001
44
0.0000000001
40
-0.69874226859097377
40
-0.69874226859097377
40
-0.69874226859097377
40
-0.69874226859097377
40
-0.60651567697623432
40
-0.60651567697623432
40
-0.54396837334087045
40
-0.54396837334087045
40
-0.54396837334087045
40
-0.54396837334087045
10
83.499999999998963
20
29.158731370490536
30
0
10
83.499722292804734
20
29.44214117259698
30
0
10
83.469185955297434
20
29.7517819745247
30
0
10
83.363608393579312
20
30.246143956905218
30
0
10
83.303045520406229
20
30.453602394365973
30
0
10
83.226493437691374
20
30.65873456205841
30
0
0
LWPOLYLINE
5
119
100
AcDbEntity
8
0
100
AcDbPolyline
90
10
70
1
43
0.0
10
75.000000000000171
20
23.475359372414019
10
75.000000000000171
20
16.842109791703219
10
75.000000000000171
20
14.158734582058759
10
75.000000000000171
20
12.658734582058727
10
75.000000000000171
20
11.158734582058894
10
75.000000000000171
20
14.158734582058759
10
75.000000000000171
20
26.158734581753915
10
75.000000000000171
20
29.158734577075517
10
75.000000000000171
20
27.658734582058621
10
75.000000000000171
20
26.158734581753915
0
ARC
5
120
100
AcDbEntity
8
0
100
AcDbCircle
10
79.250000000000171
20
29.158734582058898
30
0
40
1.1499999999999932
210
1.501473589331712e-39
220
9.0595744583975575e-31
230
1
100
AcDbArc
50
0
51
180
0
LWPOLYLINE
5
121
100
AcDbEntity
8
0
100
AcDbPolyline
90
5
70
1
43
0.0
10
9.0001606744086029
20
26.159346493118292
10
9.0001606744086402
20
23.475971283473555
10
15.250160674408653
20
23.475971283473637
10
1.7501606744086251
20
23.475971283473733
10
1.7501606744085891
20
26.159346493118196
0
LWPOLYLINE
5
122
100
AcDbEntity
8
0
100
AcDbPolyline
90
2
70
1
43
0.0
10
15.25016067441862
20
26.038121875796136
10
14.050160674435626
20
26.038121875796119
0
SPLINE
5
123
100
AcDbEntity
8
0
100
AcDbSpline
70
0
71
3
72
22
73
18
74
0
42
0.000000001
43
0.0000000001
44
0.0000000001
40
0
40
0
40
0
40
0
40
0.01129258364048419
40
0.01129258364048419
40
0.02258516728096838
40
0.02258516728096838
40
0.033990135092611728
40
0.033990135092611728
40
0.04539510290425508
40
0.04539510290425508
40
0.05686837966972659
40
0.05686837966972659
40
0.0683416564351981
40
0.0683416564351981
40
0.079641286582801576
40
0.079641286582801576
40
0.090940916730405053
40
0.090940916730405053
40
0.090940916730405053
40
0.090940916730405053
10
14.050160674408632
20
26.129271115758065
30
0
10
14.012518728940348
20
26.129271115758058
30
0
10
13.972379621581059
20
26.128530338273027
30
0
10
13.898576091885204
20
26.12534394676323
30
0
10
13.864912165579879
20
26.122877817707312
30
0
10
13.811510985155433
20
26.116736141804388
30
0
10
13.788330832184002
20
26.112633984338686
30
0
10
13.757657823902248
20
26.102858475860863
30
0
10
13.750160674408626
20
26.097164957009706
30
0
10
13.75016067440863
20
26.085725834721146
30
0
10
13.757738507039399
20
26.079205662631516
30
0
10
13.788547093634506
20
26.066482984942247
30
0
10
13.811777630239643
20
26.060300474550303
30
0
10
13.865143907720071
20
26.050288465929761
30
0
10
13.898704748528694
20
26.045769061234921
30
0
10
13.972378450445103
20
26.039674380637617
30
0
10
14.012495240583288
20
26.038121875797952
30
0
10
14.050160674408634
20
26.038121875797952
30
0
0
LWPOLYLINE
5
124
100
AcDbEntity
8
0
100
AcDbPolyline
90
2
70
1
43
0.0
10
14.050160674408632
20
26.129271115758065
10
14.070917004587693
20
26.129271115753951
0
SPLINE
5
125
100
AcDbEntity
8
0
100
AcDbSpline
70
0
71
3
72
8
73
4
74
0
42
0.000000001
43
0.0000000001
44
0.0000000001
40
-1.5491941171960121e-05
40
-1.5491941171960121e-05
40
-1.5491941171960121e-05
40
-1.5491941171960121e-05
40
0.00066524627914891653
40
0.00066524627914891653
40
0.00066524627914891653
40
0.00066524627914891653
10
13.750160674408614
20
26.159346493118356
30
0
10
13.857399279404721
20
26.159346493118353
30
0
10
13.964870156043625
20
26.14933424502814
30
0
10
14.070917004587693
20
26.129271115753951
30
0
0
SPLINE
5
126
100
AcDbEntity
8
0
100
AcDbSpline
70
0
71
3
72
8
73
4
74
0
42
0.000000001
43
0.0000000001
44
0.0000000001
40
0.00045491185600569868
40
0.00045491185600569868
40
0.00045491185600569868
40
0.00045491185600569868
40
0.0011356500763137602
40
0.0011356500763137602
40
0.0011356500763137602
40
0.0011356500763137602
10
14.070917004581707
20
26.12927111575512
30
0
10
13.964870156039588
20
26.149334245028541
30
0
10
13.857399279402712
20
26.159346493118363
30
0
10
13.750160674408614
20
26.159346493118356
30
0
0
SPLINE
5
127
100
AcDbEntity
8
0
100
AcDbSpline
70
0
71
3
72
22
73
18
74
0
42
0.000000001
43
0.0000000001
44
0.0000000001
40
0
40
0
40
0
40
0
40
0.011299630147603476
40
0.011299630147603476
40
0.022599260295206952
40
0.022599260295206952
40
0.034072537060678476
40
0.034072537060678476
40
0.04554581382615
40
0.04554581382615
40
0.056950781637793324
40
0.056950781637793324
40
0.068355749449436648
40
0.068355749449436648
40
0.079648333089920836
40
0.079648333089920836
40
0.090940916730405025
40
0.090940916730405025
40
0.090940916730405025
40
0.090940916730405025
10
14.050160674408632
20
26.038121875798019
30
0
10
14.012495240583284
20
26.038121875798019
30
0
10
13.972378450445099
20
26.039674380637685
30
0
10
13.898704748528692
20
26.045769061234985
30
0
10
13.865143907720071
20
26.050288465929825
30
0
10
13.811777630239643
20
26.06030047455036
30
0
10
13.788547093634506
20
26.066482984942304
30
0
10
13.757738507039399
20
26.079205662631569
30
0
10
13.75016067440863
20
26.085725834721202
30
0
10
13.75016067440863
20
26.097164957009756
30
0
10
13.757657823902246
20
26.102858475860909
30
0
10
13.788330832183998
20
26.112633984338729
30
0
10
13.811510985155435
20
26.116736141804427
30
0
10
13.864912165579879
20
26.122877817707348
30
0
10
13.898576091885204
20
26.125343946763266
30
0
10
13.972379621581059
20
26.128530338273059
30
0
10
14.012518728940348
20
26.129271115758094
30
0
10
14.050160674408632
20
26.129271115758094
30
0
0
LWPOLYLINE
5
128
100
AcDbEntity
8
0
100
AcDbPolyline
90
2
70
1
43
0.0
10
16.250160674408651
20
23.475669758422768
10
16.250160674408633
20
24.659346493118495
0
LWPOLYLINE
5
129
100
AcDbEntity
8
0
100
AcDbPolyline
90
2
70
1
43
0.0
10
16.250160674408651
20
23.475669758422768
10
16.25016067440874
20
16.843023227813735
0
LWPOLYLINE
5
130
100
AcDbEntity
8
0
100
AcDbPolyline
90
2
70
1
43
0.0
10
16.250160674408754
20
15.65934649311828
10
16.25016067440874
20
16.843023227813735
0
LWPOLYLINE
5
131
100
AcDbEntity
8
0
100
AcDbPolyline
90
2
70
1
43
0.0
10
16.250160674408743
20
16.409346493118402
10
16.250160674408747
20
16.70934649311836
0
LWPOLYLINE
5
132
100
AcDbEntity
8
0
100
AcDbPolyline
90
2
70
1
43
0.0
10
16.250160674408647
20
23.609346493118405
10
16.250160674408654
20
23.909346493118363
0
LINE
5
133
100
AcDbEntity
8
0
100
AcDbLine
10
16.250160674408662
20
22.659346493118385
30
0
11
16.250160674408725
21
17.659346493118385
31
-3.9669314327473299e-17
0
SPLINE
5
134
100
AcDbEntity
8
0
100
AcDbSpline
70
0
71
3
72
8
73
4
74
0
42
0.000000001
43
0.0000000001
44
0.0000000001
40
0.00045491185602150868
40
0.00045491185602150868
40
0.00045491185602150868
40
0.00045491185602150868
40
0.0011356500763137511
40
0.0011356500763137511
40
0.0011356500763137511
40
0.0011356500763137511
10
14.070917004574458
20
14.189421870480231
30
0
10
13.964870156034745
20
14.169358741207734
30
0
10
13.857399279390316
20
14.159346493118361
30
0
10
13.750160674408768
20
14.159346493118354
30
0
0
SPLINE
5
135
100
AcDbEntity
8
0
100
AcDbSpline
70
0
71
3
72
8
73
4
74
0
42
0.000000001
43
0.0000000001
44
0.0000000001
40
-1.5491941171960457e-05
40
-1.5491941171960457e-05
40
-1.5491941171960457e-05
40
-1.5491941171960457e-05
40
0.00066524627912027559
40
0.00066524627912027559
40
0.00066524627912027559
40
0.00066524627912027559
10
13.750160674408768
20
14.159346493118354
30
0
10
13.857399279390705
20
14.159346493118349
30
0
10
13.964870156034742
20
14.169358741207711
30
0
10
14.070917004574451
20
14.189421870480196
30
0
0
LWPOLYLINE
5
136
100
AcDbEntity
8
0
100
AcDbPolyline
90
2
70
1
43
0.0
10
14.070917004574458
20
14.189421870480231
10
14.050160674408787
20
14.18942187047862
0
SPLINE
5
137
100
AcDbEntity
8
0
100
AcDbSpline
70
0
71
3
72
22
73
18
74
0
42
0.000000001
43
0.0000000001
44
0.0000000001
40
-0.090940916730405053
40
-0.090940916730405053
40
-0.090940916730405053
40
-0.090940916730405053
40
-0.079648333089920864
40
-0.079648333089920864
40
-0.068355749449436676
40
-0.068355749449436676
40
-0.056950781637793331
40
-0.056950781637793331
40
-0.045545813826149986
40
-0.045545813826149986
40
-0.034072537060678469
40
-0.034072537060678469
40
-0.022599260295206952
40
-0.022599260295206952
40
-0.011299630147603476
40
-0.011299630147603476
40
0
40
0
40
0
40
0
10
14.050160674408787
20
14.18942187047862
30
0
10
14.012518728940504
20
14.18942187047862
30
0
10
13.972379621581215
20
14.190162647963653
30
0
10
13.89857609188536
20
14.193349039473448
30
0
10
13.864912165580034
20
14.195815168529363
30
0
10
13.811510985155591
20
14.20195684443228
30
0
10
13.788330832184155
20
14.206059001897984
30
0
10
13.757657823902401
20
14.215834510375799
30
0
10
13.750160674408784
20
14.221528029226951
30
0
10
13.750160674408784
20
14.232967151515506
30
0
10
13.757738507039555
20
14.239487323605138
30
0
10
13.788547093634662
20
14.252210001294404
30
0
10
13.811777630239799
20
14.258392511686345
30
0
10
13.865143907720228
20
14.268404520306888
30
0
10
13.898704748528846
20
14.272923925001724
30
0
10
13.972378450445255
20
14.279018605599031
30
0
10
14.012495240583441
20
14.280571110438697
30
0
10
14.050160674408787
20
14.280571110438697
30
0
0
LWPOLYLINE
5
138
100
AcDbEntity
8
0
100
AcDbPolyline
90
2
70
1
43
0.0
10
14.05016067440879
20
14.280571110438698
10
15.250160674408775
20
14.280571110438711
0
LWPOLYLINE
5
139
100
AcDbEntity
8
0
100
AcDbPolyline
90
2
70
1
43
0.0
10
15.250160674408772
20
14.280591525475973
10
15.250160674408741
20
16.842596068372405
0
LWPOLYLINE
5
140
100
AcDbEntity
8
0
100
AcDbPolyline
90
5
70
1
43
0.0
10
15.250160674408741
20
16.842721702762837
10
9.0001606744087272
20
16.842721702762756
10
9.000160674408761
20
14.159346493118292
10
1.7501606744087461
20
14.1593464931182
10
1.7501606744087097
20
16.842721702762937
0
SPLINE
5
141
100
AcDbEntity
8
0
100
AcDbSpline
70
0
71
3
72
22
73
18
74
0
42
0.000000001
43
0.0000000001
44
0.0000000001
40
-0.090940916730405053
40
-0.090940916730405053
40
-0.090940916730405053
40
-0.090940916730405053
40
-0.079641286582801576
40
-0.079641286582801576
40
-0.0683416564351981
40
-0.0683416564351981
40
-0.056868379669726583
40
-0.056868379669726583
40
-0.045395102904255066
40
-0.045395102904255066
40
-0.033990135092611722
40
-0.033990135092611722
40
-0.02258516728096838
40
-0.02258516728096838
40
-0.01129258364048419
40
-0.01129258364048419
40
0
40
0
40
0
40
0
10
14.050160674408785
20
14.280571110438762
30
0
10
14.012495240583437
20
14.280571110438762
30
0
10
13.972378450445254
20
14.279018605599097
30
0
10
13.898704748528845
20
14.272923925001791
30
0
10
13.865143907720228
20
14.26840452030695
30
0
10
13.811777630239799
20
14.258392511686409
30
0
10
13.788547093634662
20
14.252210001294463
30
0
10
13.757738507039555
20
14.239487323605191
30
0
10
13.750160674408784
20
14.23296715151556
30
0
10
13.750160674408782
20
14.221528029226999
30
0
10
13.757657823902402
20
14.215834510375842
30
0
10
13.788330832184156
20
14.206059001898023
30
0
10
13.811510985155589
20
14.201956844432322
30
0
10
13.864912165580034
20
14.195815168529398
30
0
10
13.89857609188536
20
14.193349039473484
30
0
10
13.972379621581215
20
14.190162647963687
30
0
10
14.012518728940504
20
14.18942187047865
30
0
10
14.050160674408787
20
14.189421870478656
30
0
0
ARC
5
142
100
AcDbEntity
8
0
100
AcDbCircle
10
4.7501606744087894
20
11.15934649311837
30
0
40
4.2500000000000089
210
-8.7278462769821572e-33
220
1.4729512280597424e-30
230
1
100
AcDbArc
50
-180.00004327377644
51
0
0
SPLINE
5
143
100
AcDbEntity
8
0
100
AcDbSpline
70
0
71
3
72
10
73
6
74
0
42
0.000000001
43
0.0000000001
44
0.0000000001
40
0.54396847428702888
40
0.54396847428702888
40
0.54396847428702888
40
0.54396847428702888
40
0.6065156769762341
40
0.6065156769762341
40
0.69874192057240603
40
0.69874192057240603
40
0.69874192057240603
40
0.69874192057240603
10
8.7266544863804114
20
9.6593475053348108
30
0
10
8.8032063903017175
20
9.8644793504525712
30
0
10
8.8637691368474254
20
10.0719374407032
30
0
10
8.9693463923084504
20
10.566297989049305
30
0
10
8.9998827367541452
20
10.875937565711013
30
0
10
9.0001606744088001
20
11.15934649810162
30
0
0
ARC
5
144
100
AcDbEntity
8
0
100
AcDbCircle
10
4.7501606744087894
20
11.15934649311837
30
0
40
4.2500000000000373
210
1.0720257154013023e-31
220
1.8088251371614641e-30
230
1
100
AcDbArc
50
200.66731620533622
51
339.33269809112812
0
SPLINE
5
145
100
AcDbEntity
8
0
100
AcDbSpline
70
0
71
3
72
10
73
6
74
0
42
0.000000001
43
0.0000000001
44
0.0000000001
40
-0.69874226859097377
40
-0.69874226859097377
40
-0.69874226859097377
40
-0.69874226859097377
40
-0.60651567697623432
40
-0.60651567697623432
40
-0.54396837334087045
40
-0.54396837334087045
40
-0.54396837334087045
40
-0.54396837334087045
10
0.50016067440999412
20
11.159349704686488
30
0
10
0.50043838160423182
20
10.875939902580052
30
0
10
0.53097471911154215
20
10.566299100652339
30
0
10
0.6365522808296602
20
10.071937118271826
30
0
10
0.69711515400275537
20
9.8644786808110769
30
0
10
0.77366723671759718
20
9.6593465131186402
30
0
0
ARC
5
146
100
AcDbEntity
8
0
100
AcDbCircle
10
4.7501606744087894
20
11.15934649311837
30
0
40
1.1500000000000021
210
-6.9345570897997104e-33
220
9.0595744584537775e-31
230
1
100
AcDbArc
50
-180
51
0
0
ARC
5
147
100
AcDbEntity
8
0
100
AcDbCircle
10
4.7501606744085549
20
29.159346493118377
30
0
40
1.1500000000000021
210
-4.1771583042171113e-33
220
9.0595744584314233e-31
230
1
100
AcDbArc
50
0
51
180
0
ARC
5
148
100
AcDbEntity
8
0
100
AcDbCircle
10
4.7501606744085549
20
29.159346493118377
30
0
40
4.2500000000000089
210
1.3167284066928658e-32
220
-7.9040164917652142e-31
230
1
100
AcDbArc
50
0
51
180
0
SPLINE
5
149
100
AcDbEntity
8
0
100
AcDbSpline
70
0
71
3
72
10
73
6
74
0
42
0.000000001
43
0.0000000001
44
0.0000000001
40
-0.45628057836168689
40
-0.45628057836168689
40
-0.45628057836168689
40
-0.45628057836168689
40
-0.35941705882895647
40
-0.35941705882895647
40
-0.30327206110518984
40
-0.30327206110518984
40
-0.30327206110518984
40
-0.30327206110518984
10
0.77366760220689335
20
30.659347442028746
30
0
10
0.65244377826748623
20
30.33769587770184
30
0
10
0.57334457028400587
20
30.002210453544897
30
0
10
0.51199305100000347
20
29.522554205039381
30
0
10
0.50228094739151641
20
29.33740111776256
30
0
10
0.50016067441340573
20
29.159340066120585
30
0
0
ARC
5
150
100
AcDbEntity
8
0
100
AcDbCircle
10
4.7501606744085549
20
29.159346493118377
30
0
40
4.2499999999999769
210
2.8916417250185909e-31
220
-1.4122350544716069e-31
230
1
100
AcDbArc
50
20.667316182827847
51
159.33266983399849
0
SPLINE
5
151
100
AcDbEntity
8
0
100
AcDbSpline
70
0
71
3
72
10
73
6
74
0
42
0.000000001
43
0.0000000001
44
0.0000000001
40
-1.7202156649618823
40
-1.7202156649618823
40
-1.7202156649618823
40
-1.7202156649618823
40
-1.6640713474296471
40
-1.6640713474296471
40
-1.5672079253250275
40
-1.5672079253250275
40
-1.5672079253250275
40
-1.5672079253250275
10
9.0001606744085638
20
29.15934648044281
30
0
10
8.9980401661012088
20
29.337405603986891
30
0
10
8.9883280250820583
20
29.522556337326794
30
0
10
8.9269768175986375
20
30.002210148124089
30
0
10
8.8478777296700635
20
30.337695202820221
30
0
10
8.726654112688955
20
30.659346471555956
30
0
0
LINE
5
152
100
AcDbEntity
8
0
100
AcDbLine
10
9.0001606744086029
20
26.159346493118427
30
0
11
9.0001606744085638
21
29.159346493118431
31
-1.3134842220720949e-30
0
ARC
5
153
100
AcDbEntity
8
0
100
AcDbCircle
10
79.250000000000171
20
11.158734582058889
30
0
40
1.1500000000000021
210
3.8581608820704636e-40
220
9.0595744583975575e-31
230
1
100
AcDbArc
50
-180
51
0
0
ARC
5
154
100
AcDbEntity
8
0
100
AcDbCircle
10
79.250000000000171
20
11.158734582058889
30
0
40
4.2499999999999982
210
-1.1751813120793898e-45
220
-7.9040164917652159e-31
230
1
100
AcDbArc
50
-180
51
0
0
LINE
5
155
100
AcDbEntity
8
0
100
AcDbLine
10
67.750000000000171
20
23.475057847363409
30
0
11
67.750000000000171
21
16.842411316754379
31
3.9134896469948633e-30
0
LWPOLYLINE
5
156
100
AcDbEntity
8
0
100
AcDbPolyline
90
5
70
1
43
0.0
10
75.000000000000171
20
14.158734582058759
10
75.000000000000171
20
16.842109791703223
10
68.750000000000171
20
16.842109791703223
10
82.250000000000171
20
16.842109791703489
10
82.250000000000171
20
14.158734582058754
0
LWPOLYLINE
5
157
100
AcDbEntity
8
0
100
AcDbPolyline
90
2
70
1
43
0.0
10
68.749999999990166
20
14.279959199380929
10
69.949999999973159
20
14.279959199380929
0
SPLINE
5
158
100
AcDbEntity
8
0
100
AcDbSpline
70
0
71
3
72
22
73
18
74
0
42
0.000000001
43
0.0000000001
44
0.0000000001
40
0
40
0
40
0
40
0
40
0.01129258364048419
40
0.01129258364048419
40
0.02258516728096838
40
0.02258516728096838
40
0.033990135092611728
40
0.033990135092611728
40
0.04539510290425508
40
0.04539510290425508
40
0.05686837966972659
40
0.05686837966972659
40
0.0683416564351981
40
0.0683416564351981
40
0.079641286582801576
40
0.079641286582801576
40
0.090940916730405053
40
0.090940916730405053
40
0.090940916730405053
40
0.090940916730405053
10
69.950000000000159
20
14.188809959419022
30
0
10
69.98764194546844
20
14.188809959419022
30
0
10
70.02778105282772
20
14.189550736904057
30
0
10
70.101584582523571
20
14.192737128413853
30
0
10
70.135248508828909
20
14.195203257469766
30
0
10
70.188649689253353
20
14.201344933372688
30
0
10
70.211829842224788
20
14.205447090838387
30
0
10
70.24250285050654
20
14.215222599316204
30
0
10
70.250000000000156
20
14.220916118167359
30
0
10
70.250000000000156
20
14.232355240455913
30
0
10
70.242422167369384
20
14.238875412545546
30
0
10
70.211613580774269
20
14.251598090234809
30
0
10
70.188383044169143
20
14.257780600626756
30
0
10
70.135016766688707
20
14.267792609247291
30
0
10
70.101455925880089
20
14.27231201394213
30
0
10
70.027782223963683
20
14.278406694539436
30
0
10
69.987665433825498
20
14.2799591993791
30
0
10
69.950000000000159
20
14.2799591993791
30
0
0
LWPOLYLINE
5
159
100
AcDbEntity
8
0
100
AcDbPolyline
90
2
70
1
43
0.0
10
69.950000000000159
20
14.188809959419022
10
69.929243669821091
20
14.188809959423132
0
SPLINE
5
160
100
AcDbEntity
8
0
100
AcDbSpline
70
0
71
3
72
8
73
4
74
0
42
0.000000001
43
0.0000000001
44
0.0000000001
40
-1.5491941171960121e-05
40
-1.5491941171960121e-05
40
-1.5491941171960121e-05
40
-1.5491941171960121e-05
40
0.00066524627914891653
40
0.00066524627914891653
40
0.00066524627914891653
40
0.00066524627914891653
10
70.250000000000171
20
14.158734582058756
30
0
10
70.142761395004072
20
14.158734582058749
30
0
10
70.035290518365159
20
14.168746830148953
30
0
10
69.929243669821091
20
14.188809959423132
30
0
0
SPLINE
5
161
100
AcDbEntity
8
0
100
AcDbSpline
70
0
71
3
72
8
73
4
74
0
42
0.000000001
43
0.0000000001
44
0.0000000001
40
0.00045491185600569868
40
0.00045491185600569868
40
0.00045491185600569868
40
0.00045491185600569868
40
0.0011356500763137602
40
0.0011356500763137602
40
0.0011356500763137602
40
0.0011356500763137602
10
69.929243669827073
20
14.188809959422031
30
0
10
70.035290518369195
20
14.168746830148599
30
0
10
70.142761395006076
20
14.158734582058763
30
0
10
70.250000000000171
20
14.158734582058756
30
0
0
SPLINE
5
162
100
AcDbEntity
8
0
100
AcDbSpline
70
0
71
3
72
22
73
18
74
0
42
0.000000001
43
0.0000000001
44
0.0000000001
40
0
40
0
40
0
40
0
40
0.011299630147603476
40
0.011299630147603476
40
0.022599260295206952
40
0.022599260295206952
40
0.034072537060678476
40
0.034072537060678476
40
0.04554581382615
40
0.04554581382615
40
0.056950781637793324
40
0.056950781637793324
40
0.068355749449436648
40
0.068355749449436648
40
0.079648333089920836
40
0.079648333089920836
40
0.090940916730405025
40
0.090940916730405025
40
0.090940916730405025
40
0.090940916730405025
10
69.950000000000159
20
14.279959199379164
30
0
10
69.987665433825498
20
14.279959199379164
30
0
10
70.027782223963683
20
14.278406694539498
30
0
10
70.101455925880089
20
14.272312013942193
30
0
10
70.135016766688707
20
14.267792609247355
30
0
10
70.188383044169143
20
14.257780600626813
30
0
10
70.211613580774269
20
14.251598090234868
30
0
10
70.242422167369384
20
14.2388754125456
30
0
10
70.250000000000156
20
14.232355240455963
30
0
10
70.250000000000156
20
14.220916118167404
30
0
10
70.24250285050654
20
14.215222599316251
30
0
10
70.211829842224788
20
14.205447090838428
30
0
10
70.188649689253353
20
14.201344933372724
30
0
10
70.135248508828909
20
14.195203257469801
30
0
10
70.101584582523571
20
14.192737128413889
30
0
10
70.02778105282772
20
14.189550736904089
30
0
10
69.98764194546844
20
14.188809959419055
30
0
10
69.950000000000159
20
14.188809959419055
30
0
0
ENDSEC
0
SECTION
2
OBJECTS
0
DICTIONARY
5
C
100
AcDbDictionary
3
ACAD_GROUP
350
D
3
ACAD_MLINESTYLE
350
17
0
DICTIONARY
5
D
100
AcDbDictionary
0
DICTIONARY
5
1A
330
C
100
AcDbDictionary
0
DICTIONARY
5
17
100
AcDbDictionary
0
ENDSEC
0
EOF
