%TF.GenerationSoftware,KiCad,Pcbnew,9.0.3*%
%TF.CreationDate,2026-02-14T15:56:06-05:00*%
%TF.ProjectId,MM26_top,4d4d3236-5f74-46f7-902e-6b696361645f,rev?*%
%TF.SameCoordinates,Original*%
%TF.FileFunction,Soldermask,Top*%
%TF.FilePolarity,Negative*%
%FSLAX46Y46*%
G04 Gerber Fmt 4.6, Leading zero omitted, Abs format (unit mm)*
G04 Created by KiCad (PCBNEW 9.0.3) date 2026-02-14 15:56:06*
%MOMM*%
%LPD*%
G01*
G04 APERTURE LIST*
G04 Aperture macros list*
%AMRoundRect*
0 Rectangle with rounded corners*
0 $1 Rounding radius*
0 $2 $3 $4 $5 $6 $7 $8 $9 X,Y pos of 4 corners*
0 Add a 4 corners polygon primitive as box body*
4,1,4,$2,$3,$4,$5,$6,$7,$8,$9,$2,$3,0*
0 Add four circle primitives for the rounded corners*
1,1,$1+$1,$2,$3*
1,1,$1+$1,$4,$5*
1,1,$1+$1,$6,$7*
1,1,$1+$1,$8,$9*
0 Add four rect primitives between the rounded corners*
20,1,$1+$1,$2,$3,$4,$5,0*
20,1,$1+$1,$4,$5,$6,$7,0*
20,1,$1+$1,$6,$7,$8,$9,0*
20,1,$1+$1,$8,$9,$2,$3,0*%
G04 Aperture macros list end*
%ADD10C,1.512000*%
%ADD11C,2.454000*%
%ADD12RoundRect,0.250000X-0.350000X-0.450000X0.350000X-0.450000X0.350000X0.450000X-0.350000X0.450000X0*%
%ADD13R,1.700000X1.700000*%
%ADD14C,1.700000*%
%ADD15C,1.117600*%
%ADD16C,3.200000*%
%ADD17RoundRect,0.102000X-0.762000X0.762000X-0.762000X-0.762000X0.762000X-0.762000X0.762000X0.762000X0*%
%ADD18C,1.728000*%
G04 APERTURE END LIST*
D10*
%TO.C,S1*%
X165890000Y-123840000D03*
X165890000Y-121840000D03*
X165890000Y-119840000D03*
D11*
X165890000Y-126690000D03*
X165890000Y-116990000D03*
%TD*%
D12*
%TO.C,R1*%
X164620000Y-113740000D03*
X166620000Y-113740000D03*
%TD*%
D13*
%TO.C,U4*%
X132440000Y-54994400D03*
D14*
X134980000Y-54994400D03*
X137520000Y-54994400D03*
X140060000Y-54994400D03*
X142600000Y-54994400D03*
X145140000Y-54994400D03*
X147680000Y-54994400D03*
X150220000Y-54994400D03*
%TD*%
D15*
%TO.C,J1*%
X165520000Y-98808766D03*
X166790000Y-98808766D03*
X165520000Y-97538766D03*
X166790000Y-97538766D03*
X165520000Y-96268766D03*
X166790000Y-96268766D03*
X165520000Y-94998766D03*
X166790000Y-94998766D03*
X165520000Y-93728766D03*
X166790000Y-93728766D03*
X165520000Y-92458766D03*
X166790000Y-92458766D03*
X165520000Y-91188766D03*
X166790000Y-91188766D03*
X165520000Y-89918766D03*
X166790000Y-89918766D03*
X165520000Y-88648766D03*
X166790000Y-88648766D03*
X165520000Y-87378766D03*
X166790000Y-87378766D03*
%TD*%
D16*
%TO.C,U2*%
X133060000Y-69752016D03*
X80990000Y-102772016D03*
X131790000Y-118012016D03*
D17*
X129250000Y-62132016D03*
D18*
X129250000Y-64672016D03*
X126710000Y-62132016D03*
X126710000Y-64672016D03*
X124170000Y-62132016D03*
X124170000Y-64672016D03*
X121630000Y-62132016D03*
X121630000Y-64672016D03*
X119090000Y-62132016D03*
X119090000Y-64672016D03*
X116550000Y-62132016D03*
X116550000Y-64672016D03*
X114010000Y-62132016D03*
X114010000Y-64672016D03*
X111470000Y-62132016D03*
X111470000Y-64672016D03*
X108930000Y-62132016D03*
X108930000Y-64672016D03*
X106390000Y-62132016D03*
X106390000Y-64672016D03*
X103850000Y-62132016D03*
X103850000Y-64672016D03*
X101310000Y-62132016D03*
X101310000Y-64672016D03*
X98770000Y-62132016D03*
X98770000Y-64672016D03*
X96230000Y-62132016D03*
X96230000Y-64672016D03*
X93690000Y-62132016D03*
X93690000Y-64672016D03*
X91150000Y-62132016D03*
X91150000Y-64672016D03*
X88610000Y-62132016D03*
X88610000Y-64672016D03*
X86070000Y-62132016D03*
X86070000Y-64672016D03*
X83530000Y-62132016D03*
X83530000Y-64672016D03*
X129250000Y-123092016D03*
X129250000Y-125632016D03*
X126710000Y-123092016D03*
X126710000Y-125632016D03*
X124170000Y-123092016D03*
X124170000Y-125632016D03*
X121630000Y-123092016D03*
X121630000Y-125632016D03*
X119090000Y-123092016D03*
X119090000Y-125632016D03*
X116550000Y-123092016D03*
X116550000Y-125632016D03*
X114010000Y-123092016D03*
X114010000Y-125632016D03*
X111470000Y-123092016D03*
X111470000Y-125632016D03*
X108930000Y-123092016D03*
X108930000Y-125632016D03*
X106390000Y-123092016D03*
X106390000Y-125632016D03*
X103850000Y-123092016D03*
X103850000Y-125632016D03*
X101310000Y-123092016D03*
X101310000Y-125632016D03*
X98770000Y-123092016D03*
X98770000Y-125632016D03*
X96230000Y-123092016D03*
X96230000Y-125632016D03*
X93690000Y-123092016D03*
X93690000Y-125632016D03*
X91150000Y-123092016D03*
X91150000Y-125632016D03*
X88610000Y-123092016D03*
X88610000Y-125632016D03*
X86070000Y-123092016D03*
X86070000Y-125632016D03*
X83530000Y-123092016D03*
X83530000Y-125632016D03*
%TD*%
M02*
