%TF.GenerationSoftware,KiCad,Pcbnew,9.0.3*%
%TF.CreationDate,2026-02-14T15:56:06-05:00*%
%TF.ProjectId,MM26_top,4d4d3236-5f74-46f7-902e-6b696361645f,rev?*%
%TF.SameCoordinates,Original*%
%TF.FileFunction,Legend,Top*%
%TF.FilePolarity,Positive*%
%FSLAX46Y46*%
G04 Gerber Fmt 4.6, Leading zero omitted, Abs format (unit mm)*
G04 Created by KiCad (PCBNEW 9.0.3) date 2026-02-14 15:56:06*
%MOMM*%
%LPD*%
G01*
G04 APERTURE LIST*
%ADD10C,0.150000*%
%ADD11C,0.100000*%
%ADD12C,0.127000*%
%ADD13C,0.120000*%
%ADD14C,0.152400*%
%ADD15C,0.508000*%
%ADD16C,0.200000*%
G04 APERTURE END LIST*
D10*
X166208972Y-122439925D02*
X166246467Y-122327439D01*
X166246467Y-122327439D02*
X166246467Y-122139963D01*
X166246467Y-122139963D02*
X166208972Y-122064972D01*
X166208972Y-122064972D02*
X166171476Y-122027477D01*
X166171476Y-122027477D02*
X166096486Y-121989981D01*
X166096486Y-121989981D02*
X166021495Y-121989981D01*
X166021495Y-121989981D02*
X165946504Y-122027477D01*
X165946504Y-122027477D02*
X165909009Y-122064972D01*
X165909009Y-122064972D02*
X165871514Y-122139963D01*
X165871514Y-122139963D02*
X165834018Y-122289944D01*
X165834018Y-122289944D02*
X165796523Y-122364935D01*
X165796523Y-122364935D02*
X165759028Y-122402430D01*
X165759028Y-122402430D02*
X165684037Y-122439925D01*
X165684037Y-122439925D02*
X165609046Y-122439925D01*
X165609046Y-122439925D02*
X165534056Y-122402430D01*
X165534056Y-122402430D02*
X165496560Y-122364935D01*
X165496560Y-122364935D02*
X165459065Y-122289944D01*
X165459065Y-122289944D02*
X165459065Y-122102467D01*
X165459065Y-122102467D02*
X165496560Y-121989981D01*
X166246467Y-121240074D02*
X166246467Y-121690018D01*
X166246467Y-121465046D02*
X165459065Y-121465046D01*
X165459065Y-121465046D02*
X165571551Y-121540037D01*
X165571551Y-121540037D02*
X165646542Y-121615028D01*
X165646542Y-121615028D02*
X165684037Y-121690018D01*
X165453333Y-112544819D02*
X165120000Y-112068628D01*
X164881905Y-112544819D02*
X164881905Y-111544819D01*
X164881905Y-111544819D02*
X165262857Y-111544819D01*
X165262857Y-111544819D02*
X165358095Y-111592438D01*
X165358095Y-111592438D02*
X165405714Y-111640057D01*
X165405714Y-111640057D02*
X165453333Y-111735295D01*
X165453333Y-111735295D02*
X165453333Y-111878152D01*
X165453333Y-111878152D02*
X165405714Y-111973390D01*
X165405714Y-111973390D02*
X165358095Y-112021009D01*
X165358095Y-112021009D02*
X165262857Y-112068628D01*
X165262857Y-112068628D02*
X164881905Y-112068628D01*
X166405714Y-112544819D02*
X165834286Y-112544819D01*
X166120000Y-112544819D02*
X166120000Y-111544819D01*
X166120000Y-111544819D02*
X166024762Y-111687676D01*
X166024762Y-111687676D02*
X165929524Y-111782914D01*
X165929524Y-111782914D02*
X165834286Y-111830533D01*
D11*
X140787419Y-47111904D02*
X141596942Y-47111904D01*
X141596942Y-47111904D02*
X141692180Y-47064285D01*
X141692180Y-47064285D02*
X141739800Y-47016666D01*
X141739800Y-47016666D02*
X141787419Y-46921428D01*
X141787419Y-46921428D02*
X141787419Y-46730952D01*
X141787419Y-46730952D02*
X141739800Y-46635714D01*
X141739800Y-46635714D02*
X141692180Y-46588095D01*
X141692180Y-46588095D02*
X141596942Y-46540476D01*
X141596942Y-46540476D02*
X140787419Y-46540476D01*
X141120752Y-45635714D02*
X141787419Y-45635714D01*
X140739800Y-45873809D02*
X141454085Y-46111904D01*
X141454085Y-46111904D02*
X141454085Y-45492857D01*
D10*
X165609819Y-93427099D02*
X166324104Y-93427099D01*
X166324104Y-93427099D02*
X166466961Y-93474718D01*
X166466961Y-93474718D02*
X166562200Y-93569956D01*
X166562200Y-93569956D02*
X166609819Y-93712813D01*
X166609819Y-93712813D02*
X166609819Y-93808051D01*
X166609819Y-92427099D02*
X166609819Y-92998527D01*
X166609819Y-92712813D02*
X165609819Y-92712813D01*
X165609819Y-92712813D02*
X165752676Y-92808051D01*
X165752676Y-92808051D02*
X165847914Y-92903289D01*
X165847914Y-92903289D02*
X165895533Y-92998527D01*
X161533819Y-63844320D02*
X162343342Y-63844320D01*
X162343342Y-63844320D02*
X162438580Y-63796701D01*
X162438580Y-63796701D02*
X162486200Y-63749082D01*
X162486200Y-63749082D02*
X162533819Y-63653844D01*
X162533819Y-63653844D02*
X162533819Y-63463368D01*
X162533819Y-63463368D02*
X162486200Y-63368130D01*
X162486200Y-63368130D02*
X162438580Y-63320511D01*
X162438580Y-63320511D02*
X162343342Y-63272892D01*
X162343342Y-63272892D02*
X161533819Y-63272892D01*
X161629057Y-62844320D02*
X161581438Y-62796701D01*
X161581438Y-62796701D02*
X161533819Y-62701463D01*
X161533819Y-62701463D02*
X161533819Y-62463368D01*
X161533819Y-62463368D02*
X161581438Y-62368130D01*
X161581438Y-62368130D02*
X161629057Y-62320511D01*
X161629057Y-62320511D02*
X161724295Y-62272892D01*
X161724295Y-62272892D02*
X161819533Y-62272892D01*
X161819533Y-62272892D02*
X161962390Y-62320511D01*
X161962390Y-62320511D02*
X162533819Y-62891939D01*
X162533819Y-62891939D02*
X162533819Y-62272892D01*
D12*
%TO.C,S1*%
X163890000Y-116840000D02*
X164590000Y-116840000D01*
X163890000Y-126840000D02*
X163890000Y-116840000D01*
X163890000Y-126840000D02*
X164590000Y-126840000D01*
X167190000Y-116840000D02*
X167890000Y-116840000D01*
X167190000Y-126840000D02*
X167890000Y-126840000D01*
X167890000Y-116840000D02*
X167890000Y-119840000D01*
X167890000Y-119840000D02*
X167890000Y-121840000D01*
X167890000Y-121840000D02*
X167890000Y-123840000D01*
X167890000Y-123840000D02*
X167890000Y-126840000D01*
D13*
%TO.C,R1*%
X165392936Y-113005000D02*
X165847064Y-113005000D01*
X165392936Y-114475000D02*
X165847064Y-114475000D01*
%TO.C,U4*%
X131060000Y-56374400D02*
X131060000Y-54994400D01*
X132440000Y-56374400D02*
X131060000Y-56374400D01*
X133710000Y-53614400D02*
X151600000Y-53614400D01*
X133710000Y-56374400D02*
X133710000Y-53614400D01*
X133710000Y-56374400D02*
X151600000Y-56374400D01*
X151600000Y-56374400D02*
X151600000Y-53614400D01*
D11*
X124820000Y-57780000D02*
X157840000Y-57780000D01*
X157840000Y-34920000D01*
X124820000Y-34920000D01*
X124820000Y-57780000D01*
D14*
%TO.C,J1*%
X163526100Y-83187766D02*
X163526100Y-102999766D01*
X163526100Y-102999766D02*
X168783900Y-102999766D01*
X168783900Y-83187766D02*
X163526100Y-83187766D01*
X168783900Y-102999766D02*
X168783900Y-83187766D01*
D15*
X165901000Y-103634766D02*
G75*
G02*
X165139000Y-103634766I-381000J0D01*
G01*
X165139000Y-103634766D02*
G75*
G02*
X165901000Y-103634766I381000J0D01*
G01*
D12*
%TO.C,U2*%
X78490000Y-72382016D02*
X78490000Y-105382016D01*
X78490000Y-105382016D02*
X80490000Y-107382016D01*
X80490000Y-60882016D02*
X80490000Y-70382016D01*
X80490000Y-70382016D02*
X78490000Y-72382016D01*
X80490000Y-107382016D02*
X80490000Y-126882016D01*
X82490000Y-128882016D02*
X158990000Y-128882016D01*
X158990000Y-58882016D02*
X82490000Y-58882016D01*
X160990000Y-60882016D02*
X160990000Y-126882016D01*
X80490000Y-60882016D02*
G75*
G02*
X82490000Y-58882016I1999999J1D01*
G01*
X82490000Y-128882016D02*
G75*
G02*
X80490000Y-126882016I0J2000000D01*
G01*
X158990000Y-58882016D02*
G75*
G02*
X160990000Y-60882016I1J-1999999D01*
G01*
X160990000Y-126882016D02*
G75*
G02*
X158990000Y-128882016I-2000000J0D01*
G01*
D16*
X129350000Y-58297316D02*
G75*
G02*
X129150000Y-58297316I-100000J0D01*
G01*
X129150000Y-58297316D02*
G75*
G02*
X129350000Y-58297316I100000J0D01*
G01*
%TD*%
M02*
