%TF.GenerationSoftware,KiCad,Pcbnew,9.0.3*%
%TF.CreationDate,2026-02-14T15:56:06-05:00*%
%TF.ProjectId,MM26_top,4d4d3236-5f74-46f7-902e-6b696361645f,rev?*%
%TF.SameCoordinates,Original*%
%TF.FileFunction,Copper,L2,Bot*%
%TF.FilePolarity,Positive*%
%FSLAX46Y46*%
G04 Gerber Fmt 4.6, Leading zero omitted, Abs format (unit mm)*
G04 Created by KiCad (PCBNEW 9.0.3) date 2026-02-14 15:56:06*
%MOMM*%
%LPD*%
G01*
G04 APERTURE LIST*
%TA.AperFunction,ComponentPad*%
%ADD10C,1.308000*%
%TD*%
%TA.AperFunction,ComponentPad*%
%ADD11C,2.250000*%
%TD*%
%TA.AperFunction,ComponentPad*%
%ADD12R,1.700000X1.700000*%
%TD*%
%TA.AperFunction,ComponentPad*%
%ADD13C,1.700000*%
%TD*%
%TA.AperFunction,ComponentPad*%
%ADD14C,1.117600*%
%TD*%
%TA.AperFunction,ComponentPad*%
%ADD15R,1.524000X1.524000*%
%TD*%
%TA.AperFunction,ComponentPad*%
%ADD16C,1.524000*%
%TD*%
%TA.AperFunction,ViaPad*%
%ADD17C,0.600000*%
%TD*%
%TA.AperFunction,Conductor*%
%ADD18C,0.200000*%
%TD*%
G04 APERTURE END LIST*
D10*
%TO.P,S1,1*%
%TO.N,VCC*%
X165890000Y-123840000D03*
%TO.P,S1,2*%
%TO.N,Net-(U2A-PC14)*%
X165890000Y-121840000D03*
%TO.P,S1,3*%
%TO.N,GND*%
X165890000Y-119840000D03*
D11*
%TO.P,S1,P$4*%
%TO.N,N/C*%
X165890000Y-126690000D03*
%TO.P,S1,P$5*%
X165890000Y-116990000D03*
%TD*%
D12*
%TO.P,U4,1,CS*%
%TO.N,/OLED_CS*%
X132440000Y-54994400D03*
D13*
%TO.P,U4,2,RST*%
%TO.N,unconnected-(U4-RST-Pad2)*%
X134980000Y-54994400D03*
%TO.P,U4,3,D/C*%
%TO.N,/OLED_MISO*%
X137520000Y-54994400D03*
%TO.P,U4,4,CLK*%
%TO.N,/OLED_SCL*%
X140060000Y-54994400D03*
%TO.P,U4,5,DATA*%
%TO.N,/OLED_MOSI*%
X142600000Y-54994400D03*
%TO.P,U4,6,VIN*%
%TO.N,unconnected-(U4-VIN-Pad6)*%
X145140000Y-54994400D03*
%TO.P,U4,7,3V3*%
%TO.N,VCC*%
X147680000Y-54994400D03*
%TO.P,U4,8,GND*%
%TO.N,GND*%
X150220000Y-54994400D03*
%TD*%
D14*
%TO.P,J1,1,1*%
%TO.N,VCC*%
X165520000Y-98808766D03*
%TO.P,J1,2,2*%
%TO.N,/Gyro_SCL*%
X166790000Y-98808766D03*
%TO.P,J1,3,3*%
%TO.N,/Gyro_MOSI*%
X165520000Y-97538766D03*
%TO.P,J1,4,4*%
%TO.N,/Gyro_MISO*%
X166790000Y-97538766D03*
%TO.P,J1,5,5*%
%TO.N,/Gyro_CS*%
X165520000Y-96268766D03*
%TO.P,J1,6,6*%
%TO.N,/M1_CC*%
X166790000Y-96268766D03*
%TO.P,J1,7,7*%
%TO.N,/M1_C*%
X165520000Y-94998766D03*
%TO.P,J1,8,8*%
%TO.N,/ENC1_A*%
X166790000Y-94998766D03*
%TO.P,J1,9,9*%
%TO.N,/ENC1_B*%
X165520000Y-93728766D03*
%TO.P,J1,10,10*%
%TO.N,/M2_CC*%
X166790000Y-93728766D03*
%TO.P,J1,11,11*%
%TO.N,/M2_C*%
X165520000Y-92458766D03*
%TO.P,J1,12,12*%
%TO.N,/ENC2_A*%
X166790000Y-92458766D03*
%TO.P,J1,13,13*%
%TO.N,/ENC2_B*%
X165520000Y-91188766D03*
%TO.P,J1,14,14*%
%TO.N,/IR_OUT_1*%
X166790000Y-91188766D03*
%TO.P,J1,15,15*%
%TO.N,/IR_OUT_2*%
X165520000Y-89918766D03*
%TO.P,J1,16,16*%
%TO.N,/IR_OUT_3*%
X166790000Y-89918766D03*
%TO.P,J1,17,17*%
%TO.N,/IR_OUT_4*%
X165520000Y-88648766D03*
%TO.P,J1,18,18*%
%TO.N,/IR_OUT_5*%
X166790000Y-88648766D03*
%TO.P,J1,19,19*%
%TO.N,GND*%
X165520000Y-87378766D03*
%TO.P,J1,20,20*%
X166790000Y-87378766D03*
%TD*%
D15*
%TO.P,U2,CN7_1,PC10*%
%TO.N,/Gyro_SCL*%
X129250000Y-62132016D03*
D16*
%TO.P,U2,CN7_2,PC11*%
%TO.N,/Gyro_MISO*%
X129250000Y-64672016D03*
%TO.P,U2,CN7_3,PC12*%
%TO.N,/Gyro_MOSI*%
X126710000Y-62132016D03*
%TO.P,U2,CN7_4,PD2*%
%TO.N,unconnected-(U2A-PD2-PadCN7_4)*%
X126710000Y-64672016D03*
%TO.P,U2,CN7_5,VDD*%
%TO.N,GND*%
X124170000Y-62132016D03*
%TO.P,U2,CN7_6,E5V*%
%TO.N,unconnected-(U2A-E5V-PadCN7_6)*%
X124170000Y-64672016D03*
%TO.P,U2,CN7_7,BOOT0*%
%TO.N,unconnected-(U2A-BOOT0-PadCN7_7)*%
X121630000Y-62132016D03*
%TO.P,U2,CN7_8,GND_CN7_8*%
%TO.N,unconnected-(U2A-GND_CN7_8-PadCN7_8)*%
X121630000Y-64672016D03*
%TO.P,U2,CN7_9,NC_CN7_9*%
%TO.N,unconnected-(U2A-NC_CN7_9-PadCN7_9)*%
X119090000Y-62132016D03*
%TO.P,U2,CN7_10,NC_CN7_10*%
%TO.N,unconnected-(U2A-NC_CN7_10-PadCN7_10)*%
X119090000Y-64672016D03*
%TO.P,U2,CN7_11,NC_CN7_11*%
%TO.N,unconnected-(U2A-NC_CN7_11-PadCN7_11)*%
X116550000Y-62132016D03*
%TO.P,U2,CN7_12,IOREF*%
%TO.N,unconnected-(U2A-IOREF-PadCN7_12)*%
X116550000Y-64672016D03*
%TO.P,U2,CN7_13,PA13*%
%TO.N,unconnected-(U2A-PA13-PadCN7_13)*%
X114010000Y-62132016D03*
%TO.P,U2,CN7_14,RESET*%
%TO.N,unconnected-(U2A-RESET-PadCN7_14)*%
X114010000Y-64672016D03*
%TO.P,U2,CN7_15,PA14*%
%TO.N,unconnected-(U2A-PA14-PadCN7_15)*%
X111470000Y-62132016D03*
%TO.P,U2,CN7_16,+3V3*%
%TO.N,VCC*%
X111470000Y-64672016D03*
%TO.P,U2,CN7_17,PA15*%
%TO.N,unconnected-(U2A-PA15-PadCN7_17)*%
X108930000Y-62132016D03*
%TO.P,U2,CN7_18,+5V*%
%TO.N,unconnected-(U2A-+5V-PadCN7_18)*%
X108930000Y-64672016D03*
%TO.P,U2,CN7_19,GND_CN7_19*%
%TO.N,unconnected-(U2A-GND_CN7_19-PadCN7_19)*%
X106390000Y-62132016D03*
%TO.P,U2,CN7_20,GND_CN7_20*%
%TO.N,unconnected-(U2A-GND_CN7_20-PadCN7_20)*%
X106390000Y-64672016D03*
%TO.P,U2,CN7_21,PB7*%
%TO.N,unconnected-(U2A-PB7-PadCN7_21)*%
X103850000Y-62132016D03*
%TO.P,U2,CN7_22,GND_CN7_22*%
%TO.N,unconnected-(U2A-GND_CN7_22-PadCN7_22)*%
X103850000Y-64672016D03*
%TO.P,U2,CN7_23,PC13*%
%TO.N,unconnected-(U2A-PC13-PadCN7_23)*%
X101310000Y-62132016D03*
%TO.P,U2,CN7_24,VIN*%
%TO.N,unconnected-(U2A-VIN-PadCN7_24)*%
X101310000Y-64672016D03*
%TO.P,U2,CN7_25,PC14*%
%TO.N,Net-(U2A-PC14)*%
X98770000Y-62132016D03*
%TO.P,U2,CN7_26,NC_CN7_26*%
%TO.N,unconnected-(U2A-NC_CN7_26-PadCN7_26)*%
X98770000Y-64672016D03*
%TO.P,U2,CN7_27,PC15*%
%TO.N,unconnected-(U2A-PC15-PadCN7_27)*%
X96230000Y-62132016D03*
%TO.P,U2,CN7_28,PA0*%
%TO.N,/ENC1_A*%
X96230000Y-64672016D03*
%TO.P,U2,CN7_29,PH0*%
%TO.N,unconnected-(U2A-PH0-PadCN7_29)*%
X93690000Y-62132016D03*
%TO.P,U2,CN7_30,PA1*%
%TO.N,/ENC1_B*%
X93690000Y-64672016D03*
%TO.P,U2,CN7_31,PH1*%
%TO.N,unconnected-(U2A-PH1-PadCN7_31)*%
X91150000Y-62132016D03*
%TO.P,U2,CN7_32,PA4*%
%TO.N,/Gyro_CS*%
X91150000Y-64672016D03*
%TO.P,U2,CN7_33,VBAT*%
%TO.N,unconnected-(U2A-VBAT-PadCN7_33)*%
X88610000Y-62132016D03*
%TO.P,U2,CN7_34,PB0*%
%TO.N,unconnected-(U2A-PB0-PadCN7_34)*%
X88610000Y-64672016D03*
%TO.P,U2,CN7_35,PC2*%
%TO.N,/OLED_MISO*%
X86070000Y-62132016D03*
%TO.P,U2,CN7_36,PC1*%
%TO.N,unconnected-(U2A-PC1-PadCN7_36)*%
X86070000Y-64672016D03*
%TO.P,U2,CN7_37,PC3*%
%TO.N,/OLED_MOSI*%
X83530000Y-62132016D03*
%TO.P,U2,CN7_38,PC0*%
%TO.N,unconnected-(U2A-PC0-PadCN7_38)*%
X83530000Y-64672016D03*
%TO.P,U2,CN10_1,PC9*%
%TO.N,unconnected-(U2B-PC9-PadCN10_1)*%
X129250000Y-123092016D03*
%TO.P,U2,CN10_2,PC8*%
%TO.N,unconnected-(U2B-PC8-PadCN10_2)*%
X129250000Y-125632016D03*
%TO.P,U2,CN10_3,PB8*%
%TO.N,unconnected-(U2B-PB8-PadCN10_3)*%
X126710000Y-123092016D03*
%TO.P,U2,CN10_4,PC6*%
%TO.N,unconnected-(U2B-PC6-PadCN10_4)*%
X126710000Y-125632016D03*
%TO.P,U2,CN10_5,PB9*%
%TO.N,unconnected-(U2B-PB9-PadCN10_5)*%
X124170000Y-123092016D03*
%TO.P,U2,CN10_6,PC5*%
%TO.N,unconnected-(U2B-PC5-PadCN10_6)*%
X124170000Y-125632016D03*
%TO.P,U2,CN10_7,AVDD*%
%TO.N,unconnected-(U2B-AVDD-PadCN10_7)*%
X121630000Y-123092016D03*
%TO.P,U2,CN10_8,U5V*%
%TO.N,unconnected-(U2B-U5V-PadCN10_8)*%
X121630000Y-125632016D03*
%TO.P,U2,CN10_9,GND_CN10_9*%
%TO.N,unconnected-(U2B-GND_CN10_9-PadCN10_9)*%
X119090000Y-123092016D03*
%TO.P,U2,CN10_10,NC_CN10_10*%
%TO.N,unconnected-(U2B-NC_CN10_10-PadCN10_10)*%
X119090000Y-125632016D03*
%TO.P,U2,CN10_11,PA5*%
%TO.N,unconnected-(U2B-PA5-PadCN10_11)*%
X116550000Y-123092016D03*
%TO.P,U2,CN10_12,PA12*%
%TO.N,unconnected-(U2B-PA12-PadCN10_12)*%
X116550000Y-125632016D03*
%TO.P,U2,CN10_13,PA6*%
%TO.N,/ENC2_B*%
X114010000Y-123092016D03*
%TO.P,U2,CN10_14,PA11*%
%TO.N,/M1_C*%
X114010000Y-125632016D03*
%TO.P,U2,CN10_15,PA7*%
%TO.N,/ENC2_A*%
X111470000Y-123092016D03*
%TO.P,U2,CN10_16,PB12*%
%TO.N,/OLED_CS*%
X111470000Y-125632016D03*
%TO.P,U2,CN10_17,PB6*%
%TO.N,unconnected-(U2B-PB6-PadCN10_17)*%
X108930000Y-123092016D03*
%TO.P,U2,CN10_18,PB11*%
%TO.N,unconnected-(U2B-PB11-PadCN10_18)*%
X108930000Y-125632016D03*
%TO.P,U2,CN10_19,PC7*%
%TO.N,unconnected-(U2B-PC7-PadCN10_19)*%
X106390000Y-123092016D03*
%TO.P,U2,CN10_20,GND_CN10_20*%
%TO.N,unconnected-(U2B-GND_CN10_20-PadCN10_20)*%
X106390000Y-125632016D03*
%TO.P,U2,CN10_21,PA9*%
%TO.N,/M2_C*%
X103850000Y-123092016D03*
%TO.P,U2,CN10_22,PB2*%
%TO.N,/IR_OUT_2*%
X103850000Y-125632016D03*
%TO.P,U2,CN10_23,PA8*%
%TO.N,/M2_CC*%
X101310000Y-123092016D03*
%TO.P,U2,CN10_24,PB1*%
%TO.N,/IR_OUT_1*%
X101310000Y-125632016D03*
%TO.P,U2,CN10_25,PB10*%
%TO.N,unconnected-(U2B-PB10-PadCN10_25)*%
X98770000Y-123092016D03*
%TO.P,U2,CN10_26,PB15*%
%TO.N,/IR_OUT_3*%
X98770000Y-125632016D03*
%TO.P,U2,CN10_27,PB4*%
%TO.N,unconnected-(U2B-PB4-PadCN10_27)*%
X96230000Y-123092016D03*
%TO.P,U2,CN10_28,PB14*%
%TO.N,/IR_OUT_4*%
X96230000Y-125632016D03*
%TO.P,U2,CN10_29,PB5*%
%TO.N,unconnected-(U2B-PB5-PadCN10_29)*%
X93690000Y-123092016D03*
%TO.P,U2,CN10_30,PB13*%
%TO.N,/OLED_SCL*%
X93690000Y-125632016D03*
%TO.P,U2,CN10_31,PB3*%
%TO.N,unconnected-(U2B-PB3-PadCN10_31)*%
X91150000Y-123092016D03*
%TO.P,U2,CN10_32,AGND*%
%TO.N,unconnected-(U2B-AGND-PadCN10_32)*%
X91150000Y-125632016D03*
%TO.P,U2,CN10_33,PA10*%
%TO.N,/M1_CC*%
X88610000Y-123092016D03*
%TO.P,U2,CN10_34,PC4*%
%TO.N,/IR_OUT_5*%
X88610000Y-125632016D03*
%TO.P,U2,CN10_35,PA2*%
%TO.N,unconnected-(U2B-PA2-PadCN10_35)*%
X86070000Y-123092016D03*
%TO.P,U2,CN10_36,NC_CN10_36*%
%TO.N,unconnected-(U2B-NC_CN10_36-PadCN10_36)*%
X86070000Y-125632016D03*
%TO.P,U2,CN10_37,PA3*%
%TO.N,unconnected-(U2B-PA3-PadCN10_37)*%
X83530000Y-123092016D03*
%TO.P,U2,CN10_38,NC_CN10_38*%
%TO.N,unconnected-(U2B-NC_CN10_38-PadCN10_38)*%
X83530000Y-125632016D03*
%TD*%
D17*
%TO.N,/IR_OUT_5*%
X167980000Y-85316966D03*
X129680000Y-91120000D03*
X132370000Y-90300000D03*
%TO.N,GND*%
X166020000Y-82310000D03*
%TO.N,/IR_OUT_2*%
X134320000Y-99110000D03*
X129810000Y-99530000D03*
%TO.N,/Gyro_MISO*%
X130490000Y-67260000D03*
X168190000Y-100140000D03*
X145030000Y-83150000D03*
X132310000Y-67240000D03*
X157770000Y-99930000D03*
%TO.N,/M1_CC*%
X159926091Y-99433909D03*
X129410000Y-89710000D03*
X168200000Y-97970000D03*
X158090000Y-94810000D03*
X143360000Y-91500000D03*
%TO.N,/IR_OUT_1*%
X130050000Y-95200000D03*
X132180000Y-95060000D03*
X168149800Y-89630000D03*
%TO.N,/ENC2_A*%
X129830000Y-100620000D03*
X131659000Y-100400000D03*
%TO.N,/IR_OUT_3*%
X168555336Y-86724664D03*
X129790000Y-94110000D03*
X132380000Y-93430000D03*
%TO.N,/ENC1_A*%
X129950000Y-76600000D03*
X145290000Y-79120000D03*
X143430000Y-78500000D03*
X168220000Y-83930000D03*
X132580000Y-76770000D03*
%TO.N,/Gyro_CS*%
X157125343Y-98015343D03*
X112490000Y-85930000D03*
X158590000Y-98990000D03*
X131820000Y-101380000D03*
%TO.N,VCC*%
X162250000Y-103050000D03*
%TO.N,/Gyro_MOSI*%
X130060000Y-70570000D03*
X161730000Y-99040000D03*
%TO.N,/ENC1_B*%
X154140000Y-93710000D03*
X155570000Y-92640000D03*
X100220000Y-67200000D03*
X130559000Y-84980000D03*
X160880000Y-94030000D03*
X149770000Y-94790000D03*
%TO.N,/M2_CC*%
X130100000Y-96380000D03*
X137900000Y-96770000D03*
X159550000Y-98280000D03*
X156470000Y-96440000D03*
%TO.N,/M2_C*%
X160990000Y-93130000D03*
X136870000Y-98140000D03*
X129930000Y-97990000D03*
%TO.N,/IR_OUT_4*%
X129890000Y-92560000D03*
X132360000Y-92010000D03*
X162700000Y-85130000D03*
%TO.N,/Gyro_SCL*%
X145510000Y-82440000D03*
X132500000Y-62460000D03*
X161260000Y-100870566D03*
X165870000Y-102320000D03*
%TO.N,Net-(U2A-PC14)*%
X100610000Y-76150000D03*
X106970000Y-91790000D03*
%TD*%
D18*
%TO.N,/IR_OUT_5*%
X129680000Y-91120000D02*
X130500000Y-90300000D01*
X167980000Y-86430000D02*
X167599800Y-86810200D01*
X167980000Y-85316966D02*
X167980000Y-86430000D01*
X167599800Y-87838966D02*
X166790000Y-88648766D01*
X167599800Y-86810200D02*
X167599800Y-87838966D01*
X130500000Y-90300000D02*
X132370000Y-90300000D01*
%TO.N,GND*%
X165520000Y-87378766D02*
X165520000Y-86160000D01*
X124170000Y-62132016D02*
X122700000Y-63602016D01*
X166020000Y-85660000D02*
X166020000Y-82310000D01*
X166020000Y-86608766D02*
X166020000Y-85660000D01*
X122700000Y-63602016D02*
X122700000Y-66880000D01*
X166790000Y-87378766D02*
X166020000Y-86608766D01*
X165520000Y-86160000D02*
X166020000Y-85660000D01*
%TO.N,/IR_OUT_2*%
X129810000Y-99530000D02*
X133900000Y-99530000D01*
X133900000Y-99530000D02*
X134320000Y-99110000D01*
%TO.N,/Gyro_MISO*%
X152560000Y-90680000D02*
X152560000Y-94720000D01*
X132290000Y-67260000D02*
X132310000Y-67240000D01*
X168190000Y-98938766D02*
X166790000Y-97538766D01*
X145030000Y-83150000D02*
X152560000Y-90680000D01*
X152560000Y-94720000D02*
X157770000Y-99930000D01*
X130490000Y-67260000D02*
X132290000Y-67260000D01*
X168190000Y-100140000D02*
X168190000Y-98938766D01*
%TO.N,/M1_CC*%
X129410000Y-89710000D02*
X141570000Y-89710000D01*
X168200000Y-97970000D02*
X168200000Y-97678766D01*
X141570000Y-89710000D02*
X143360000Y-91500000D01*
X160100000Y-96820000D02*
X160100000Y-99260000D01*
X158090000Y-94810000D02*
X160100000Y-96820000D01*
X160100000Y-99260000D02*
X159926091Y-99433909D01*
X168200000Y-97678766D02*
X166790000Y-96268766D01*
%TO.N,/IR_OUT_1*%
X168149800Y-90640200D02*
X167601234Y-91188766D01*
X168149800Y-89630000D02*
X168149800Y-90640200D01*
X132040000Y-95200000D02*
X132180000Y-95060000D01*
X130050000Y-95200000D02*
X132040000Y-95200000D01*
X167601234Y-91188766D02*
X166790000Y-91188766D01*
%TO.N,/ENC2_A*%
X131439000Y-100620000D02*
X131659000Y-100400000D01*
X129830000Y-100620000D02*
X131439000Y-100620000D01*
%TO.N,/IR_OUT_3*%
X129790000Y-94110000D02*
X131700000Y-94110000D01*
X168555336Y-86724664D02*
X168450000Y-86830000D01*
X168450000Y-88258766D02*
X166790000Y-89918766D01*
X131700000Y-94110000D02*
X132380000Y-93430000D01*
X168450000Y-86830000D02*
X168450000Y-88258766D01*
%TO.N,/ENC1_A*%
X143430000Y-78500000D02*
X144670000Y-78500000D01*
X129950000Y-76600000D02*
X132410000Y-76600000D01*
X144670000Y-78500000D02*
X145290000Y-79120000D01*
X168220000Y-83930000D02*
X169163596Y-84873596D01*
X169163596Y-84873596D02*
X169163596Y-92625170D01*
X132410000Y-76600000D02*
X132580000Y-76770000D01*
X169163596Y-92625170D02*
X166790000Y-94998766D01*
%TO.N,/Gyro_CS*%
X158100000Y-98990000D02*
X157125343Y-98015343D01*
X127940000Y-101380000D02*
X112490000Y-85930000D01*
X131820000Y-101380000D02*
X127940000Y-101380000D01*
X158590000Y-98990000D02*
X158100000Y-98990000D01*
%TO.N,VCC*%
X162250000Y-102078766D02*
X162250000Y-103050000D01*
X165520000Y-98808766D02*
X162250000Y-102078766D01*
%TO.N,/Gyro_MOSI*%
X160289000Y-100481000D02*
X161730000Y-99040000D01*
X157541768Y-100481000D02*
X160289000Y-100481000D01*
X130060000Y-70570000D02*
X130060000Y-72999232D01*
X130060000Y-72999232D02*
X157541768Y-100481000D01*
%TO.N,/ENC1_B*%
X139960000Y-84980000D02*
X149770000Y-94790000D01*
X130559000Y-84980000D02*
X139960000Y-84980000D01*
X165218766Y-94030000D02*
X165520000Y-93728766D01*
X154140000Y-93710000D02*
X154500000Y-93710000D01*
X154500000Y-93710000D02*
X155570000Y-92640000D01*
X96217984Y-67200000D02*
X100220000Y-67200000D01*
X93690000Y-64672016D02*
X96217984Y-67200000D01*
X160880000Y-94030000D02*
X165218766Y-94030000D01*
%TO.N,/M2_CC*%
X157710000Y-96440000D02*
X159550000Y-98280000D01*
X156470000Y-96440000D02*
X157710000Y-96440000D01*
X130100000Y-96380000D02*
X137510000Y-96380000D01*
X137510000Y-96380000D02*
X137900000Y-96770000D01*
%TO.N,/M2_C*%
X164848766Y-93130000D02*
X165520000Y-92458766D01*
X136720000Y-97990000D02*
X136870000Y-98140000D01*
X129930000Y-97990000D02*
X136720000Y-97990000D01*
X160990000Y-93130000D02*
X164848766Y-93130000D01*
%TO.N,/IR_OUT_4*%
X162700000Y-85828766D02*
X165520000Y-88648766D01*
X162700000Y-85130000D02*
X162700000Y-85828766D01*
X129890000Y-92560000D02*
X130440000Y-92010000D01*
X130440000Y-92010000D02*
X132360000Y-92010000D01*
%TO.N,/Gyro_SCL*%
X160451000Y-96901000D02*
X162281000Y-98731000D01*
X158641000Y-94581768D02*
X158641000Y-94864612D01*
X146930000Y-83380000D02*
X155639000Y-92089000D01*
X132172016Y-62132016D02*
X132500000Y-62460000D01*
X145510000Y-82440000D02*
X146450000Y-83380000D01*
X146450000Y-83380000D02*
X146930000Y-83380000D01*
X162281000Y-99849566D02*
X161260000Y-100870566D01*
X156121000Y-92411768D02*
X156121000Y-92571000D01*
X160451000Y-96674612D02*
X160451000Y-96901000D01*
X158641000Y-94864612D02*
X160451000Y-96674612D01*
X157835384Y-94285384D02*
X157861768Y-94259000D01*
X156121000Y-92571000D02*
X157835384Y-94285384D01*
X166790000Y-101400000D02*
X166790000Y-98808766D01*
X157861768Y-94259000D02*
X158318232Y-94259000D01*
X155639000Y-92089000D02*
X155798232Y-92089000D01*
X129250000Y-62132016D02*
X132172016Y-62132016D01*
X155798232Y-92089000D02*
X156121000Y-92411768D01*
X162281000Y-98731000D02*
X162281000Y-99849566D01*
X165870000Y-102320000D02*
X166790000Y-101400000D01*
X158318232Y-94259000D02*
X158641000Y-94581768D01*
%TO.N,Net-(U2A-PC14)*%
X102323000Y-74437000D02*
X102323000Y-64163000D01*
X160111016Y-116061016D02*
X131241016Y-116061016D01*
X100610000Y-76150000D02*
X102323000Y-74437000D01*
X131241016Y-116061016D02*
X106970000Y-91790000D01*
X102323000Y-64163000D02*
X101305016Y-63145016D01*
X101305016Y-63145016D02*
X99783000Y-63145016D01*
X99783000Y-63145016D02*
X98770000Y-62132016D01*
X165890000Y-121840000D02*
X160111016Y-116061016D01*
%TO.N,/OLED_MOSI*%
X142600000Y-54994400D02*
X141499000Y-53893400D01*
X141499000Y-53893400D02*
X91768616Y-53893400D01*
X91768616Y-53893400D02*
X83530000Y-62132016D01*
%TO.N,/OLED_MISO*%
X131395384Y-61119016D02*
X87083000Y-61119016D01*
X137520000Y-54994400D02*
X131395384Y-61119016D01*
X87083000Y-61119016D02*
X86070000Y-62132016D01*
%TO.N,/OLED_SCL*%
X94703000Y-101553481D02*
X140060000Y-56196481D01*
X94703000Y-124619016D02*
X94703000Y-101553481D01*
X93690000Y-125632016D02*
X94703000Y-124619016D01*
X140060000Y-56196481D02*
X140060000Y-54994400D01*
%TD*%
%TA.AperFunction,Conductor*%
%TO.N,GND*%
G36*
X123696619Y-62328097D02*
G01*
X123763498Y-62443936D01*
X123858080Y-62538518D01*
X123973919Y-62605397D01*
X124034057Y-62621510D01*
X123471283Y-63184284D01*
X123471283Y-63184285D01*
X123508567Y-63211374D01*
X123665331Y-63291250D01*
X123716127Y-63339225D01*
X123732922Y-63407046D01*
X123710384Y-63473181D01*
X123665331Y-63512220D01*
X123508305Y-63592229D01*
X123347533Y-63709037D01*
X123207021Y-63849549D01*
X123090213Y-64010321D01*
X123010485Y-64166796D01*
X122962510Y-64217592D01*
X122894689Y-64234387D01*
X122828554Y-64211849D01*
X122789515Y-64166796D01*
X122709786Y-64010321D01*
X122621727Y-63889118D01*
X122592981Y-63849552D01*
X122452464Y-63709035D01*
X122291694Y-63592229D01*
X122135218Y-63512500D01*
X122084423Y-63464526D01*
X122067628Y-63396705D01*
X122090165Y-63330570D01*
X122135218Y-63291531D01*
X122291694Y-63211803D01*
X122452464Y-63094997D01*
X122592981Y-62954480D01*
X122709787Y-62793710D01*
X122789796Y-62636683D01*
X122837769Y-62585888D01*
X122905590Y-62569093D01*
X122971725Y-62591630D01*
X123010765Y-62636684D01*
X123090641Y-62793448D01*
X123117730Y-62830731D01*
X123680504Y-62267957D01*
X123696619Y-62328097D01*
G37*
%TD.AperFunction*%
%TA.AperFunction,Conductor*%
G36*
X125222268Y-62830731D02*
G01*
X125249364Y-62793438D01*
X125329234Y-62636685D01*
X125377208Y-62585888D01*
X125445029Y-62569093D01*
X125511164Y-62591630D01*
X125550203Y-62636683D01*
X125630213Y-62793710D01*
X125747019Y-62954480D01*
X125887536Y-63094997D01*
X126048306Y-63211803D01*
X126126333Y-63251560D01*
X126204780Y-63291531D01*
X126255576Y-63339506D01*
X126272371Y-63407327D01*
X126249833Y-63473462D01*
X126204780Y-63512501D01*
X126048305Y-63592229D01*
X125887533Y-63709037D01*
X125747021Y-63849549D01*
X125630213Y-64010321D01*
X125550485Y-64166796D01*
X125502510Y-64217592D01*
X125434689Y-64234387D01*
X125368554Y-64211849D01*
X125329515Y-64166796D01*
X125249786Y-64010321D01*
X125161727Y-63889118D01*
X125132981Y-63849552D01*
X124992464Y-63709035D01*
X124831694Y-63592229D01*
X124674667Y-63512219D01*
X124623872Y-63464245D01*
X124607077Y-63396424D01*
X124629614Y-63330289D01*
X124674669Y-63291250D01*
X124831422Y-63211380D01*
X124868716Y-63184284D01*
X124305942Y-62621510D01*
X124366081Y-62605397D01*
X124481920Y-62538518D01*
X124576502Y-62443936D01*
X124643381Y-62328097D01*
X124659495Y-62267958D01*
X125222268Y-62830731D01*
G37*
%TD.AperFunction*%
%TA.AperFunction,Conductor*%
G36*
X169207135Y-52147351D02*
G01*
X169252890Y-52200155D01*
X169264096Y-52251666D01*
X169264096Y-83816803D01*
X169244411Y-83883842D01*
X169191607Y-83929597D01*
X169122449Y-83939541D01*
X169058893Y-83910516D01*
X169021119Y-83851738D01*
X169018479Y-83840995D01*
X168989738Y-83696508D01*
X168989737Y-83696507D01*
X168989737Y-83696503D01*
X168974737Y-83660289D01*
X168929397Y-83550827D01*
X168929390Y-83550814D01*
X168841789Y-83419711D01*
X168841786Y-83419707D01*
X168730292Y-83308213D01*
X168730288Y-83308210D01*
X168599185Y-83220609D01*
X168599172Y-83220602D01*
X168453501Y-83160264D01*
X168453489Y-83160261D01*
X168298845Y-83129500D01*
X168298842Y-83129500D01*
X168141158Y-83129500D01*
X168141155Y-83129500D01*
X167986510Y-83160261D01*
X167986498Y-83160264D01*
X167840827Y-83220602D01*
X167840814Y-83220609D01*
X167709711Y-83308210D01*
X167709707Y-83308213D01*
X167598213Y-83419707D01*
X167598210Y-83419711D01*
X167510609Y-83550814D01*
X167510602Y-83550827D01*
X167450264Y-83696498D01*
X167450261Y-83696510D01*
X167419500Y-83851153D01*
X167419500Y-84008846D01*
X167450261Y-84163489D01*
X167450264Y-84163501D01*
X167510602Y-84309172D01*
X167510609Y-84309185D01*
X167598211Y-84440289D01*
X167601005Y-84443694D01*
X167628319Y-84508003D01*
X167616529Y-84576871D01*
X167574045Y-84625462D01*
X167469707Y-84695179D01*
X167358213Y-84806673D01*
X167358210Y-84806677D01*
X167270609Y-84937780D01*
X167270602Y-84937793D01*
X167210264Y-85083464D01*
X167210261Y-85083476D01*
X167179500Y-85238119D01*
X167179500Y-85395812D01*
X167210261Y-85550455D01*
X167210264Y-85550467D01*
X167270602Y-85696138D01*
X167270609Y-85696151D01*
X167358602Y-85827840D01*
X167364252Y-85845886D01*
X167374477Y-85861796D01*
X167378928Y-85892755D01*
X167379480Y-85894517D01*
X167379500Y-85896731D01*
X167379500Y-86129902D01*
X167359815Y-86196941D01*
X167343181Y-86217583D01*
X167231086Y-86329678D01*
X167231034Y-86329715D01*
X167231041Y-86329722D01*
X167228990Y-86331771D01*
X167225669Y-86333582D01*
X167198859Y-86352906D01*
X167198857Y-86352907D01*
X167197010Y-86349213D01*
X167167651Y-86365226D01*
X167105178Y-86360727D01*
X167104664Y-86362422D01*
X167098833Y-86360652D01*
X166894287Y-86319966D01*
X166685712Y-86319966D01*
X166481166Y-86360653D01*
X166481158Y-86360655D01*
X166288469Y-86440470D01*
X166223889Y-86483620D01*
X166157212Y-86504497D01*
X166089832Y-86486012D01*
X166086111Y-86483620D01*
X166021530Y-86440470D01*
X165828841Y-86360655D01*
X165828833Y-86360653D01*
X165624287Y-86319966D01*
X165415712Y-86319966D01*
X165211166Y-86360653D01*
X165211158Y-86360655D01*
X165018471Y-86440469D01*
X164968587Y-86473800D01*
X164968586Y-86473800D01*
X165492553Y-86997766D01*
X165469840Y-86997766D01*
X165372939Y-87023730D01*
X165286060Y-87073890D01*
X165215124Y-87144826D01*
X165164964Y-87231705D01*
X165139000Y-87328606D01*
X165139000Y-87351318D01*
X164615033Y-86827351D01*
X164612211Y-86827630D01*
X164543565Y-86814611D01*
X164512377Y-86791908D01*
X163409355Y-85688886D01*
X163375870Y-85627563D01*
X163380854Y-85557871D01*
X163393931Y-85532319D01*
X163409394Y-85509179D01*
X163469737Y-85363497D01*
X163500500Y-85208842D01*
X163500500Y-85051158D01*
X163500500Y-85051155D01*
X163500499Y-85051153D01*
X163477949Y-84937787D01*
X163469737Y-84896503D01*
X163432530Y-84806677D01*
X163409397Y-84750827D01*
X163409390Y-84750814D01*
X163321789Y-84619711D01*
X163321786Y-84619707D01*
X163210292Y-84508213D01*
X163210288Y-84508210D01*
X163079185Y-84420609D01*
X163079172Y-84420602D01*
X162933501Y-84360264D01*
X162933489Y-84360261D01*
X162778845Y-84329500D01*
X162778842Y-84329500D01*
X162621158Y-84329500D01*
X162621155Y-84329500D01*
X162466510Y-84360261D01*
X162466498Y-84360264D01*
X162320827Y-84420602D01*
X162320814Y-84420609D01*
X162189711Y-84508210D01*
X162189707Y-84508213D01*
X162078213Y-84619707D01*
X162078210Y-84619711D01*
X161990609Y-84750814D01*
X161990602Y-84750827D01*
X161930264Y-84896498D01*
X161930261Y-84896510D01*
X161899500Y-85051153D01*
X161899500Y-85208846D01*
X161930261Y-85363489D01*
X161930264Y-85363501D01*
X161990602Y-85509172D01*
X161990609Y-85509185D01*
X162078602Y-85640874D01*
X162084252Y-85658920D01*
X162094477Y-85674830D01*
X162098928Y-85705789D01*
X162099480Y-85707551D01*
X162099500Y-85709765D01*
X162099500Y-85742096D01*
X162099499Y-85742114D01*
X162099499Y-85907820D01*
X162099498Y-85907820D01*
X162140423Y-86060552D01*
X162144214Y-86067116D01*
X162148279Y-86074157D01*
X162148281Y-86074166D01*
X162148284Y-86074165D01*
X162199859Y-86163497D01*
X162219479Y-86197480D01*
X162219481Y-86197483D01*
X162338349Y-86316351D01*
X162338355Y-86316356D01*
X164431375Y-88409376D01*
X164464860Y-88470699D01*
X164465312Y-88521246D01*
X164460700Y-88544434D01*
X164460700Y-88753098D01*
X164460700Y-88753100D01*
X164460699Y-88753100D01*
X164501407Y-88957746D01*
X164501409Y-88957752D01*
X164581261Y-89150533D01*
X164624253Y-89214877D01*
X164645130Y-89281555D01*
X164626644Y-89348935D01*
X164624253Y-89352655D01*
X164581261Y-89416998D01*
X164501409Y-89609779D01*
X164501407Y-89609785D01*
X164460700Y-89814431D01*
X164460700Y-89814434D01*
X164460700Y-90023098D01*
X164460700Y-90023100D01*
X164460699Y-90023100D01*
X164501407Y-90227746D01*
X164501409Y-90227752D01*
X164581261Y-90420533D01*
X164624253Y-90484877D01*
X164645130Y-90551555D01*
X164626644Y-90618935D01*
X164624253Y-90622655D01*
X164581261Y-90686998D01*
X164501409Y-90879779D01*
X164501407Y-90879785D01*
X164460700Y-91084431D01*
X164460700Y-91084434D01*
X164460700Y-91293098D01*
X164460700Y-91293100D01*
X164460699Y-91293100D01*
X164501407Y-91497746D01*
X164501409Y-91497752D01*
X164581261Y-91690533D01*
X164624253Y-91754877D01*
X164645130Y-91821555D01*
X164626644Y-91888935D01*
X164624253Y-91892655D01*
X164581261Y-91956998D01*
X164501409Y-92149779D01*
X164501407Y-92149785D01*
X164460700Y-92354431D01*
X164460700Y-92405500D01*
X164441015Y-92472539D01*
X164388211Y-92518294D01*
X164336700Y-92529500D01*
X161569766Y-92529500D01*
X161502727Y-92509815D01*
X161500875Y-92508602D01*
X161369185Y-92420609D01*
X161369172Y-92420602D01*
X161223501Y-92360264D01*
X161223489Y-92360261D01*
X161068845Y-92329500D01*
X161068842Y-92329500D01*
X160911158Y-92329500D01*
X160911155Y-92329500D01*
X160756510Y-92360261D01*
X160756498Y-92360264D01*
X160610827Y-92420602D01*
X160610814Y-92420609D01*
X160479711Y-92508210D01*
X160479707Y-92508213D01*
X160368213Y-92619707D01*
X160368210Y-92619711D01*
X160280609Y-92750814D01*
X160280602Y-92750827D01*
X160220264Y-92896498D01*
X160220261Y-92896510D01*
X160189500Y-93051153D01*
X160189500Y-93208846D01*
X160220260Y-93363488D01*
X160220263Y-93363498D01*
X160249365Y-93433756D01*
X160256834Y-93503225D01*
X160237906Y-93550099D01*
X160170609Y-93650814D01*
X160170602Y-93650827D01*
X160110264Y-93796498D01*
X160110261Y-93796510D01*
X160079500Y-93951153D01*
X160079500Y-94108846D01*
X160110261Y-94263489D01*
X160110264Y-94263501D01*
X160170602Y-94409172D01*
X160170609Y-94409185D01*
X160258210Y-94540288D01*
X160258213Y-94540292D01*
X160369707Y-94651786D01*
X160369711Y-94651789D01*
X160500814Y-94739390D01*
X160500827Y-94739397D01*
X160579894Y-94772147D01*
X160646503Y-94799737D01*
X160752499Y-94820821D01*
X160801153Y-94830499D01*
X160801156Y-94830500D01*
X160801158Y-94830500D01*
X160958844Y-94830500D01*
X160958845Y-94830499D01*
X161113497Y-94799737D01*
X161259179Y-94739394D01*
X161264113Y-94736097D01*
X161390875Y-94651398D01*
X161457553Y-94630520D01*
X161459766Y-94630500D01*
X164362106Y-94630500D01*
X164429145Y-94650185D01*
X164474900Y-94702989D01*
X164484844Y-94772147D01*
X164483723Y-94778692D01*
X164460700Y-94894431D01*
X164460700Y-94894433D01*
X164460700Y-94894434D01*
X164460700Y-95103098D01*
X164460700Y-95103100D01*
X164460699Y-95103100D01*
X164501407Y-95307746D01*
X164501409Y-95307752D01*
X164581261Y-95500533D01*
X164624253Y-95564877D01*
X164645130Y-95631555D01*
X164626644Y-95698935D01*
X164624253Y-95702655D01*
X164581261Y-95766998D01*
X164501409Y-95959779D01*
X164501407Y-95959785D01*
X164460700Y-96164431D01*
X164460700Y-96164434D01*
X164460700Y-96373098D01*
X164460700Y-96373100D01*
X164460699Y-96373100D01*
X164501407Y-96577746D01*
X164501409Y-96577752D01*
X164581261Y-96770533D01*
X164624253Y-96834877D01*
X164645130Y-96901555D01*
X164626644Y-96968935D01*
X164624253Y-96972655D01*
X164581261Y-97036998D01*
X164501409Y-97229779D01*
X164501407Y-97229785D01*
X164460700Y-97434431D01*
X164460700Y-97434434D01*
X164460700Y-97643098D01*
X164460700Y-97643100D01*
X164460699Y-97643100D01*
X164501407Y-97847746D01*
X164501409Y-97847752D01*
X164581261Y-98040533D01*
X164624253Y-98104877D01*
X164645130Y-98171555D01*
X164626644Y-98238935D01*
X164624253Y-98242655D01*
X164581261Y-98306998D01*
X164501409Y-98499779D01*
X164501407Y-98499785D01*
X164460700Y-98704431D01*
X164460700Y-98913102D01*
X164465311Y-98936282D01*
X164459084Y-99005874D01*
X164431375Y-99048154D01*
X162226071Y-101253458D01*
X162164748Y-101286943D01*
X162095056Y-101281959D01*
X162039123Y-101240087D01*
X162014706Y-101174623D01*
X162017478Y-101138278D01*
X162019807Y-101128034D01*
X162029737Y-101104063D01*
X162060500Y-100949408D01*
X162060500Y-100949114D01*
X162061343Y-100945408D01*
X162077588Y-100916312D01*
X162093023Y-100886805D01*
X162094521Y-100885279D01*
X162639506Y-100340293D01*
X162639511Y-100340290D01*
X162649714Y-100330086D01*
X162649716Y-100330086D01*
X162761520Y-100218282D01*
X162812200Y-100130501D01*
X162840577Y-100081351D01*
X162881501Y-99928623D01*
X162881501Y-99770509D01*
X162881501Y-99762914D01*
X162881500Y-99762896D01*
X162881500Y-98820059D01*
X162881501Y-98820046D01*
X162881501Y-98651945D01*
X162881501Y-98651943D01*
X162840577Y-98499215D01*
X162806100Y-98439499D01*
X162767989Y-98373489D01*
X162761522Y-98362287D01*
X162761521Y-98362286D01*
X162761520Y-98362284D01*
X162649716Y-98250480D01*
X162649715Y-98250479D01*
X162645385Y-98246149D01*
X162645374Y-98246139D01*
X161087820Y-96688585D01*
X161054335Y-96627262D01*
X161051501Y-96600904D01*
X161051501Y-96595556D01*
X161051501Y-96595555D01*
X161010577Y-96442828D01*
X160983702Y-96396279D01*
X160931524Y-96305902D01*
X160931518Y-96305894D01*
X159277820Y-94652196D01*
X159244335Y-94590873D01*
X159241501Y-94564515D01*
X159241501Y-94502713D01*
X159241501Y-94502711D01*
X159200577Y-94349983D01*
X159164684Y-94287815D01*
X159121520Y-94213052D01*
X159009716Y-94101248D01*
X159009715Y-94101247D01*
X159005385Y-94096917D01*
X159005374Y-94096907D01*
X158805822Y-93897355D01*
X158805820Y-93897352D01*
X158686949Y-93778481D01*
X158686948Y-93778480D01*
X158588901Y-93721873D01*
X158550017Y-93699423D01*
X158397289Y-93658499D01*
X158239175Y-93658499D01*
X158231579Y-93658499D01*
X158231563Y-93658500D01*
X158109097Y-93658500D01*
X158042058Y-93638815D01*
X158021416Y-93622181D01*
X156741171Y-92341936D01*
X156709077Y-92286348D01*
X156680577Y-92179983D01*
X156651552Y-92129711D01*
X156601520Y-92043052D01*
X156489716Y-91931248D01*
X156489715Y-91931247D01*
X156485385Y-91926917D01*
X156485374Y-91926907D01*
X156285822Y-91727355D01*
X156285820Y-91727352D01*
X156166949Y-91608481D01*
X156166941Y-91608475D01*
X156085980Y-91561733D01*
X156085976Y-91561731D01*
X156076920Y-91556503D01*
X156030017Y-91529423D01*
X155918048Y-91499420D01*
X155912606Y-91497401D01*
X155895669Y-91484766D01*
X155868062Y-91468827D01*
X147417590Y-83018355D01*
X147417588Y-83018352D01*
X147298717Y-82899481D01*
X147298716Y-82899480D01*
X147198937Y-82841873D01*
X147161785Y-82820423D01*
X147009057Y-82779499D01*
X146850943Y-82779499D01*
X146843347Y-82779499D01*
X146843331Y-82779500D01*
X146750098Y-82779500D01*
X146683059Y-82759815D01*
X146662417Y-82743181D01*
X146344573Y-82425337D01*
X146311088Y-82364014D01*
X146310637Y-82361847D01*
X146279738Y-82206510D01*
X146279738Y-82206508D01*
X146279737Y-82206503D01*
X146279735Y-82206498D01*
X146219397Y-82060827D01*
X146219390Y-82060814D01*
X146131789Y-81929711D01*
X146131786Y-81929707D01*
X146020292Y-81818213D01*
X146020288Y-81818210D01*
X145889185Y-81730609D01*
X145889172Y-81730602D01*
X145743501Y-81670264D01*
X145743489Y-81670261D01*
X145588845Y-81639500D01*
X145588842Y-81639500D01*
X145431158Y-81639500D01*
X145431155Y-81639500D01*
X145276510Y-81670261D01*
X145276498Y-81670264D01*
X145130827Y-81730602D01*
X145130814Y-81730609D01*
X144999711Y-81818210D01*
X144999707Y-81818213D01*
X144888213Y-81929707D01*
X144888210Y-81929711D01*
X144800609Y-82060814D01*
X144800602Y-82060827D01*
X144740264Y-82206498D01*
X144740261Y-82206508D01*
X144710238Y-82357441D01*
X144677853Y-82419352D01*
X144655324Y-82436380D01*
X144655886Y-82437221D01*
X144519711Y-82528210D01*
X144519707Y-82528213D01*
X144408213Y-82639707D01*
X144408210Y-82639711D01*
X144320609Y-82770814D01*
X144320602Y-82770827D01*
X144260264Y-82916498D01*
X144260261Y-82916510D01*
X144229500Y-83071153D01*
X144229500Y-83228846D01*
X144260261Y-83383489D01*
X144260264Y-83383501D01*
X144320602Y-83529172D01*
X144320609Y-83529185D01*
X144408210Y-83660288D01*
X144408213Y-83660292D01*
X144519707Y-83771786D01*
X144519711Y-83771789D01*
X144650814Y-83859390D01*
X144650827Y-83859397D01*
X144774241Y-83910516D01*
X144796503Y-83919737D01*
X144861147Y-83932595D01*
X144951849Y-83950638D01*
X145013760Y-83983023D01*
X145015339Y-83984574D01*
X151923181Y-90892416D01*
X151956666Y-90953739D01*
X151959500Y-90980097D01*
X151959500Y-93750135D01*
X151939815Y-93817174D01*
X151887011Y-93862929D01*
X151817853Y-93872873D01*
X151754297Y-93843848D01*
X151747819Y-93837816D01*
X136331156Y-78421153D01*
X142629500Y-78421153D01*
X142629500Y-78578846D01*
X142660261Y-78733489D01*
X142660264Y-78733501D01*
X142720602Y-78879172D01*
X142720609Y-78879185D01*
X142808210Y-79010288D01*
X142808213Y-79010292D01*
X142919707Y-79121786D01*
X142919711Y-79121789D01*
X143050814Y-79209390D01*
X143050827Y-79209397D01*
X143196498Y-79269735D01*
X143196503Y-79269737D01*
X143351153Y-79300499D01*
X143351156Y-79300500D01*
X143351158Y-79300500D01*
X143508844Y-79300500D01*
X143508845Y-79300499D01*
X143663497Y-79269737D01*
X143809179Y-79209394D01*
X143809185Y-79209390D01*
X143940875Y-79121398D01*
X144007553Y-79100520D01*
X144009766Y-79100500D01*
X144368174Y-79100500D01*
X144435213Y-79120185D01*
X144480968Y-79172989D01*
X144489791Y-79200308D01*
X144520261Y-79353491D01*
X144520264Y-79353501D01*
X144580602Y-79499172D01*
X144580609Y-79499185D01*
X144668210Y-79630288D01*
X144668213Y-79630292D01*
X144779707Y-79741786D01*
X144779711Y-79741789D01*
X144910814Y-79829390D01*
X144910827Y-79829397D01*
X145056498Y-79889735D01*
X145056503Y-79889737D01*
X145211153Y-79920499D01*
X145211156Y-79920500D01*
X145211158Y-79920500D01*
X145368844Y-79920500D01*
X145368845Y-79920499D01*
X145523497Y-79889737D01*
X145669179Y-79829394D01*
X145800289Y-79741789D01*
X145911789Y-79630289D01*
X145999394Y-79499179D01*
X146059737Y-79353497D01*
X146090500Y-79198842D01*
X146090500Y-79041158D01*
X146090500Y-79041155D01*
X146090499Y-79041153D01*
X146084360Y-79010289D01*
X146059737Y-78886503D01*
X146056703Y-78879179D01*
X145999397Y-78740827D01*
X145999390Y-78740814D01*
X145911789Y-78609711D01*
X145911786Y-78609707D01*
X145800292Y-78498213D01*
X145800288Y-78498210D01*
X145783113Y-78486734D01*
X148977591Y-78486734D01*
X148977591Y-78767597D01*
X149009033Y-79046660D01*
X149009036Y-79046678D01*
X149071530Y-79320483D01*
X149071534Y-79320495D01*
X149164291Y-79585577D01*
X149286144Y-79838608D01*
X149286146Y-79838611D01*
X149435568Y-80076414D01*
X149610675Y-80295991D01*
X149809266Y-80494582D01*
X150028843Y-80669689D01*
X150266646Y-80819111D01*
X150519683Y-80940967D01*
X150718771Y-81010631D01*
X150784761Y-81033722D01*
X150784773Y-81033726D01*
X151058582Y-81096221D01*
X151058588Y-81096221D01*
X151058596Y-81096223D01*
X151244638Y-81117184D01*
X151337660Y-81127665D01*
X151337663Y-81127666D01*
X151337666Y-81127666D01*
X151618519Y-81127666D01*
X151618520Y-81127665D01*
X151761146Y-81111595D01*
X151897585Y-81096223D01*
X151897590Y-81096222D01*
X151897600Y-81096221D01*
X152171409Y-81033726D01*
X152436499Y-80940967D01*
X152689536Y-80819111D01*
X152927339Y-80669689D01*
X153146916Y-80494582D01*
X153345507Y-80295991D01*
X153520614Y-80076414D01*
X153670036Y-79838611D01*
X153791892Y-79585574D01*
X153884651Y-79320484D01*
X153947146Y-79046675D01*
X153951246Y-79010292D01*
X153978590Y-78767597D01*
X153978591Y-78767593D01*
X153978591Y-78486738D01*
X153978590Y-78486734D01*
X153947148Y-78207671D01*
X153947145Y-78207653D01*
X153884651Y-77933848D01*
X153884647Y-77933836D01*
X153861556Y-77867846D01*
X153791892Y-77668758D01*
X153670036Y-77415721D01*
X153520614Y-77177918D01*
X153345507Y-76958341D01*
X153146916Y-76759750D01*
X152927339Y-76584643D01*
X152689536Y-76435221D01*
X152689533Y-76435219D01*
X152436502Y-76313366D01*
X152171420Y-76220609D01*
X152171408Y-76220605D01*
X151897603Y-76158111D01*
X151897585Y-76158108D01*
X151618522Y-76126666D01*
X151618516Y-76126666D01*
X151337666Y-76126666D01*
X151337659Y-76126666D01*
X151058596Y-76158108D01*
X151058578Y-76158111D01*
X150784773Y-76220605D01*
X150784761Y-76220609D01*
X150519679Y-76313366D01*
X150266648Y-76435219D01*
X150028844Y-76584642D01*
X149809266Y-76759749D01*
X149610674Y-76958341D01*
X149435567Y-77177919D01*
X149286144Y-77415723D01*
X149164291Y-77668754D01*
X149071534Y-77933836D01*
X149071530Y-77933848D01*
X149009036Y-78207653D01*
X149009033Y-78207671D01*
X148977591Y-78486734D01*
X145783113Y-78486734D01*
X145669185Y-78410609D01*
X145669172Y-78410602D01*
X145523501Y-78350264D01*
X145523491Y-78350261D01*
X145368149Y-78319361D01*
X145351392Y-78310595D01*
X145332914Y-78306576D01*
X145307877Y-78287833D01*
X145306238Y-78286976D01*
X145304660Y-78285425D01*
X145157590Y-78138355D01*
X145157588Y-78138352D01*
X145038717Y-78019481D01*
X145038716Y-78019480D01*
X144951904Y-77969360D01*
X144951904Y-77969359D01*
X144951900Y-77969358D01*
X144901785Y-77940423D01*
X144749057Y-77899499D01*
X144590943Y-77899499D01*
X144583347Y-77899499D01*
X144583331Y-77899500D01*
X144009766Y-77899500D01*
X143942727Y-77879815D01*
X143940875Y-77878602D01*
X143809185Y-77790609D01*
X143809172Y-77790602D01*
X143663501Y-77730264D01*
X143663489Y-77730261D01*
X143508845Y-77699500D01*
X143508842Y-77699500D01*
X143351158Y-77699500D01*
X143351155Y-77699500D01*
X143196510Y-77730261D01*
X143196498Y-77730264D01*
X143050827Y-77790602D01*
X143050814Y-77790609D01*
X142919711Y-77878210D01*
X142919707Y-77878213D01*
X142808213Y-77989707D01*
X142808210Y-77989711D01*
X142720609Y-78120814D01*
X142720602Y-78120827D01*
X142660264Y-78266498D01*
X142660261Y-78266510D01*
X142629500Y-78421153D01*
X136331156Y-78421153D01*
X130696819Y-72786816D01*
X130663334Y-72725493D01*
X130660500Y-72699135D01*
X130660500Y-71149765D01*
X130680185Y-71082726D01*
X130681398Y-71080874D01*
X130769390Y-70949185D01*
X130769390Y-70949184D01*
X130769394Y-70949179D01*
X130829737Y-70803497D01*
X130860500Y-70648842D01*
X130860500Y-70491158D01*
X130860500Y-70491155D01*
X130860499Y-70491153D01*
X130853643Y-70456688D01*
X130829737Y-70336503D01*
X130829735Y-70336498D01*
X130769397Y-70190827D01*
X130769390Y-70190814D01*
X130681789Y-70059711D01*
X130681786Y-70059707D01*
X130570292Y-69948213D01*
X130570288Y-69948210D01*
X130439185Y-69860609D01*
X130439172Y-69860602D01*
X130293501Y-69800264D01*
X130293489Y-69800261D01*
X130138845Y-69769500D01*
X130138842Y-69769500D01*
X129981158Y-69769500D01*
X129981155Y-69769500D01*
X129826510Y-69800261D01*
X129826498Y-69800264D01*
X129680827Y-69860602D01*
X129680814Y-69860609D01*
X129549711Y-69948210D01*
X129549707Y-69948213D01*
X129438213Y-70059707D01*
X129438210Y-70059711D01*
X129350609Y-70190814D01*
X129350602Y-70190827D01*
X129290264Y-70336498D01*
X129290261Y-70336510D01*
X129259500Y-70491153D01*
X129259500Y-70648846D01*
X129290261Y-70803489D01*
X129290264Y-70803501D01*
X129350602Y-70949172D01*
X129350609Y-70949185D01*
X129438602Y-71080874D01*
X129459480Y-71147551D01*
X129459500Y-71149765D01*
X129459500Y-72912562D01*
X129459499Y-72912580D01*
X129459499Y-73078286D01*
X129459498Y-73078286D01*
X129500423Y-73231017D01*
X129529358Y-73281132D01*
X129529359Y-73281136D01*
X129529360Y-73281136D01*
X129579479Y-73367946D01*
X129579481Y-73367949D01*
X129698349Y-73486817D01*
X129698355Y-73486822D01*
X131999352Y-75787819D01*
X132032837Y-75849142D01*
X132027853Y-75918834D01*
X131985981Y-75974767D01*
X131920517Y-75999184D01*
X131911671Y-75999500D01*
X130529766Y-75999500D01*
X130462727Y-75979815D01*
X130460875Y-75978602D01*
X130329185Y-75890609D01*
X130329172Y-75890602D01*
X130183501Y-75830264D01*
X130183489Y-75830261D01*
X130028845Y-75799500D01*
X130028842Y-75799500D01*
X129871158Y-75799500D01*
X129871155Y-75799500D01*
X129716510Y-75830261D01*
X129716498Y-75830264D01*
X129570827Y-75890602D01*
X129570814Y-75890609D01*
X129439711Y-75978210D01*
X129439707Y-75978213D01*
X129328213Y-76089707D01*
X129328210Y-76089711D01*
X129240609Y-76220814D01*
X129240602Y-76220827D01*
X129180264Y-76366498D01*
X129180261Y-76366510D01*
X129149500Y-76521153D01*
X129149500Y-76678846D01*
X129180261Y-76833489D01*
X129180264Y-76833501D01*
X129240602Y-76979172D01*
X129240609Y-76979185D01*
X129328210Y-77110288D01*
X129328213Y-77110292D01*
X129439707Y-77221786D01*
X129439711Y-77221789D01*
X129570814Y-77309390D01*
X129570827Y-77309397D01*
X129716498Y-77369735D01*
X129716503Y-77369737D01*
X129871153Y-77400499D01*
X129871156Y-77400500D01*
X129871158Y-77400500D01*
X130028844Y-77400500D01*
X130028845Y-77400499D01*
X130183497Y-77369737D01*
X130329179Y-77309394D01*
X130409674Y-77255609D01*
X130460875Y-77221398D01*
X130527553Y-77200520D01*
X130529766Y-77200500D01*
X131838618Y-77200500D01*
X131905657Y-77220185D01*
X131941720Y-77255609D01*
X131958210Y-77280288D01*
X131958213Y-77280292D01*
X132069707Y-77391786D01*
X132069711Y-77391789D01*
X132200814Y-77479390D01*
X132200827Y-77479397D01*
X132346498Y-77539735D01*
X132346503Y-77539737D01*
X132501153Y-77570499D01*
X132501156Y-77570500D01*
X132501158Y-77570500D01*
X132658844Y-77570500D01*
X132658845Y-77570499D01*
X132813497Y-77539737D01*
X132926166Y-77493067D01*
X132959172Y-77479397D01*
X132959172Y-77479396D01*
X132959179Y-77479394D01*
X133090289Y-77391789D01*
X133201789Y-77280289D01*
X133234018Y-77232054D01*
X133287626Y-77187252D01*
X133356950Y-77178543D01*
X133419979Y-77208697D01*
X133424799Y-77213266D01*
X149999436Y-93787903D01*
X150015676Y-93817644D01*
X150032431Y-93847068D01*
X150032369Y-93848215D01*
X150032921Y-93849226D01*
X150030504Y-93883016D01*
X150028692Y-93916837D01*
X150028019Y-93917770D01*
X150027937Y-93918918D01*
X150007635Y-93946036D01*
X149987825Y-93973509D01*
X149986754Y-93973930D01*
X149986065Y-93974851D01*
X149954320Y-93986691D01*
X149922807Y-93999090D01*
X149921295Y-93999008D01*
X149920601Y-93999268D01*
X149887564Y-93997201D01*
X149848150Y-93989361D01*
X149786239Y-93956976D01*
X149784660Y-93955425D01*
X140447590Y-84618355D01*
X140447588Y-84618352D01*
X140328717Y-84499481D01*
X140328716Y-84499480D01*
X140241904Y-84449360D01*
X140241904Y-84449359D01*
X140241900Y-84449358D01*
X140191785Y-84420423D01*
X140039057Y-84379499D01*
X139880943Y-84379499D01*
X139873347Y-84379499D01*
X139873331Y-84379500D01*
X131138766Y-84379500D01*
X131071727Y-84359815D01*
X131069875Y-84358602D01*
X130938185Y-84270609D01*
X130938172Y-84270602D01*
X130792501Y-84210264D01*
X130792489Y-84210261D01*
X130637845Y-84179500D01*
X130637842Y-84179500D01*
X130480158Y-84179500D01*
X130480155Y-84179500D01*
X130325510Y-84210261D01*
X130325498Y-84210264D01*
X130179827Y-84270602D01*
X130179814Y-84270609D01*
X130048711Y-84358210D01*
X130048707Y-84358213D01*
X129937213Y-84469707D01*
X129937210Y-84469711D01*
X129849609Y-84600814D01*
X129849602Y-84600827D01*
X129789264Y-84746498D01*
X129789261Y-84746510D01*
X129758500Y-84901153D01*
X129758500Y-85058846D01*
X129789261Y-85213489D01*
X129789264Y-85213501D01*
X129849602Y-85359172D01*
X129849609Y-85359185D01*
X129937210Y-85490288D01*
X129937213Y-85490292D01*
X130048707Y-85601786D01*
X130048711Y-85601789D01*
X130179814Y-85689390D01*
X130179827Y-85689397D01*
X130307056Y-85742096D01*
X130325503Y-85749737D01*
X130480153Y-85780499D01*
X130480156Y-85780500D01*
X130480158Y-85780500D01*
X130637844Y-85780500D01*
X130637845Y-85780499D01*
X130792497Y-85749737D01*
X130921881Y-85696145D01*
X130938172Y-85689397D01*
X130938172Y-85689396D01*
X130938179Y-85689394D01*
X130983787Y-85658920D01*
X131069875Y-85601398D01*
X131136553Y-85580520D01*
X131138766Y-85580500D01*
X139659903Y-85580500D01*
X139726942Y-85600185D01*
X139747584Y-85616819D01*
X148935425Y-94804660D01*
X148968910Y-94865983D01*
X148969361Y-94868149D01*
X149000261Y-95023491D01*
X149000264Y-95023501D01*
X149060602Y-95169172D01*
X149060609Y-95169185D01*
X149148210Y-95300288D01*
X149148213Y-95300292D01*
X149259707Y-95411786D01*
X149259711Y-95411789D01*
X149390814Y-95499390D01*
X149390827Y-95499397D01*
X149535231Y-95559210D01*
X149536503Y-95559737D01*
X149691153Y-95590499D01*
X149691156Y-95590500D01*
X149691158Y-95590500D01*
X149848844Y-95590500D01*
X149848845Y-95590499D01*
X150003497Y-95559737D01*
X150149179Y-95499394D01*
X150280289Y-95411789D01*
X150391789Y-95300289D01*
X150479394Y-95169179D01*
X150539737Y-95023497D01*
X150570500Y-94868842D01*
X150570500Y-94711158D01*
X150570500Y-94711155D01*
X150562798Y-94672436D01*
X150569025Y-94602844D01*
X150611888Y-94547667D01*
X150677777Y-94524422D01*
X150745774Y-94540490D01*
X150772096Y-94560563D01*
X157056907Y-100845374D01*
X157056917Y-100845385D01*
X157173053Y-100961521D01*
X157205666Y-100980349D01*
X157238280Y-100999179D01*
X157309983Y-101040577D01*
X157462711Y-101081501D01*
X157462714Y-101081501D01*
X157628421Y-101081501D01*
X157628437Y-101081500D01*
X160209939Y-101081500D01*
X160209943Y-101081501D01*
X160368057Y-101081501D01*
X160379339Y-101078477D01*
X160394592Y-101078219D01*
X160414156Y-101083604D01*
X160434443Y-101084086D01*
X160447156Y-101092689D01*
X160461955Y-101096763D01*
X160475501Y-101111870D01*
X160492309Y-101123244D01*
X160505773Y-101145630D01*
X160508600Y-101148783D01*
X160508940Y-101150896D01*
X160511257Y-101154748D01*
X160550604Y-101249742D01*
X160550609Y-101249751D01*
X160638210Y-101380854D01*
X160638213Y-101380858D01*
X160749707Y-101492352D01*
X160749711Y-101492355D01*
X160880814Y-101579956D01*
X160880827Y-101579963D01*
X161025279Y-101639796D01*
X161026503Y-101640303D01*
X161181153Y-101671065D01*
X161181156Y-101671066D01*
X161181158Y-101671066D01*
X161338844Y-101671066D01*
X161338845Y-101671065D01*
X161493497Y-101640303D01*
X161571665Y-101607924D01*
X161601468Y-101604720D01*
X161630899Y-101599047D01*
X161635840Y-101601025D01*
X161641134Y-101600456D01*
X161667937Y-101613873D01*
X161695765Y-101625012D01*
X161698853Y-101629348D01*
X161703613Y-101631731D01*
X161718908Y-101657510D01*
X161736295Y-101681925D01*
X161736548Y-101687241D01*
X161739265Y-101691820D01*
X161738195Y-101721772D01*
X161739623Y-101751715D01*
X161736881Y-101758564D01*
X161736771Y-101761645D01*
X161726507Y-101784481D01*
X161720629Y-101794663D01*
X161720626Y-101794668D01*
X161690423Y-101846980D01*
X161690423Y-101846981D01*
X161649499Y-101999709D01*
X161649499Y-101999711D01*
X161649499Y-102167812D01*
X161649500Y-102167825D01*
X161649500Y-102470234D01*
X161629815Y-102537273D01*
X161628602Y-102539125D01*
X161540609Y-102670814D01*
X161540602Y-102670827D01*
X161480264Y-102816498D01*
X161480261Y-102816510D01*
X161449500Y-102971153D01*
X161449500Y-103128846D01*
X161480261Y-103283489D01*
X161480264Y-103283501D01*
X161540602Y-103429172D01*
X161540609Y-103429185D01*
X161628210Y-103560288D01*
X161628213Y-103560292D01*
X161739707Y-103671786D01*
X161739711Y-103671789D01*
X161870814Y-103759390D01*
X161870827Y-103759397D01*
X161984331Y-103806411D01*
X162016503Y-103819737D01*
X162171153Y-103850499D01*
X162171156Y-103850500D01*
X162171158Y-103850500D01*
X162328844Y-103850500D01*
X162328845Y-103850499D01*
X162483497Y-103819737D01*
X162629179Y-103759394D01*
X162760289Y-103671789D01*
X162871789Y-103560289D01*
X162959394Y-103429179D01*
X163019737Y-103283497D01*
X163050500Y-103128842D01*
X163050500Y-102971158D01*
X163050500Y-102971155D01*
X163050499Y-102971153D01*
X163044658Y-102941789D01*
X163019737Y-102816503D01*
X162971143Y-102699185D01*
X162959397Y-102670827D01*
X162959390Y-102670814D01*
X162871398Y-102539125D01*
X162865747Y-102521078D01*
X162855523Y-102505169D01*
X162851071Y-102474207D01*
X162850520Y-102472447D01*
X162850500Y-102470234D01*
X162850500Y-102378862D01*
X162870185Y-102311823D01*
X162886814Y-102291186D01*
X165280611Y-99897388D01*
X165341932Y-99863905D01*
X165392483Y-99863454D01*
X165415667Y-99868066D01*
X165415668Y-99868066D01*
X165624334Y-99868066D01*
X165762014Y-99840678D01*
X165828986Y-99827357D01*
X166018048Y-99749044D01*
X166087517Y-99741576D01*
X166149996Y-99772851D01*
X166185648Y-99832940D01*
X166189500Y-99863606D01*
X166189500Y-101099903D01*
X166169815Y-101166942D01*
X166153181Y-101187584D01*
X165855339Y-101485425D01*
X165794016Y-101518910D01*
X165791850Y-101519361D01*
X165636508Y-101550261D01*
X165636498Y-101550264D01*
X165490827Y-101610602D01*
X165490814Y-101610609D01*
X165359711Y-101698210D01*
X165359707Y-101698213D01*
X165248213Y-101809707D01*
X165248210Y-101809711D01*
X165160609Y-101940814D01*
X165160602Y-101940827D01*
X165100264Y-102086498D01*
X165100261Y-102086510D01*
X165069500Y-102241153D01*
X165069500Y-102398846D01*
X165100261Y-102553489D01*
X165100264Y-102553501D01*
X165160602Y-102699172D01*
X165160609Y-102699185D01*
X165248210Y-102830288D01*
X165248213Y-102830292D01*
X165359707Y-102941786D01*
X165359711Y-102941789D01*
X165490814Y-103029390D01*
X165490827Y-103029397D01*
X165636498Y-103089735D01*
X165636503Y-103089737D01*
X165791153Y-103120499D01*
X165791156Y-103120500D01*
X165791158Y-103120500D01*
X165948844Y-103120500D01*
X165948845Y-103120499D01*
X166103497Y-103089737D01*
X166249179Y-103029394D01*
X166380289Y-102941789D01*
X166491789Y-102830289D01*
X166579394Y-102699179D01*
X166639737Y-102553497D01*
X166668235Y-102410230D01*
X166670638Y-102398150D01*
X166703023Y-102336239D01*
X166704522Y-102334712D01*
X167148506Y-101890727D01*
X167148511Y-101890724D01*
X167158714Y-101880520D01*
X167158716Y-101880520D01*
X167270520Y-101768716D01*
X167349577Y-101631784D01*
X167390500Y-101479057D01*
X167390500Y-100771941D01*
X167410185Y-100704902D01*
X167462989Y-100659147D01*
X167532147Y-100649203D01*
X167595703Y-100678228D01*
X167602181Y-100684260D01*
X167679707Y-100761786D01*
X167679711Y-100761789D01*
X167810814Y-100849390D01*
X167810827Y-100849397D01*
X167956498Y-100909735D01*
X167956503Y-100909737D01*
X168111153Y-100940499D01*
X168111156Y-100940500D01*
X168111158Y-100940500D01*
X168268844Y-100940500D01*
X168268845Y-100940499D01*
X168423497Y-100909737D01*
X168569179Y-100849394D01*
X168700289Y-100761789D01*
X168811789Y-100650289D01*
X168899394Y-100519179D01*
X168959737Y-100373497D01*
X168990500Y-100218842D01*
X168990500Y-100061158D01*
X168990500Y-100061155D01*
X168990499Y-100061153D01*
X168964136Y-99928620D01*
X168959737Y-99906503D01*
X168948650Y-99879737D01*
X168899397Y-99760827D01*
X168899390Y-99760814D01*
X168811398Y-99629125D01*
X168790520Y-99562447D01*
X168790500Y-99560234D01*
X168790500Y-99027825D01*
X168790501Y-99027812D01*
X168790501Y-98859711D01*
X168790501Y-98859709D01*
X168749577Y-98706981D01*
X168740608Y-98691447D01*
X168724134Y-98623550D01*
X168746984Y-98557522D01*
X168760307Y-98541770D01*
X168821789Y-98480289D01*
X168909394Y-98349179D01*
X168969737Y-98203497D01*
X169000500Y-98048842D01*
X169000500Y-97891158D01*
X169000500Y-97891155D01*
X169000499Y-97891153D01*
X168974574Y-97760821D01*
X168969737Y-97736503D01*
X168969735Y-97736498D01*
X168909397Y-97590827D01*
X168909390Y-97590814D01*
X168821789Y-97459711D01*
X168821786Y-97459707D01*
X168705982Y-97343903D01*
X168705996Y-97343888D01*
X168701387Y-97339582D01*
X168691510Y-97329087D01*
X168680520Y-97310050D01*
X168568716Y-97198246D01*
X168568713Y-97198244D01*
X167878624Y-96508155D01*
X167845139Y-96446832D01*
X167844688Y-96396282D01*
X167849300Y-96373098D01*
X167849300Y-96164434D01*
X167849300Y-96164431D01*
X167808592Y-95959785D01*
X167808591Y-95959784D01*
X167808591Y-95959780D01*
X167728739Y-95767000D01*
X167685745Y-95702654D01*
X167664868Y-95635981D01*
X167683352Y-95568600D01*
X167685718Y-95564917D01*
X167728739Y-95500532D01*
X167808591Y-95307752D01*
X167832177Y-95189179D01*
X167849300Y-95103100D01*
X167849300Y-94894433D01*
X167844688Y-94871249D01*
X167850914Y-94801658D01*
X167878622Y-94759377D01*
X169052416Y-93585583D01*
X169113738Y-93552100D01*
X169183430Y-93557084D01*
X169239363Y-93598956D01*
X169263780Y-93664420D01*
X169264096Y-93673266D01*
X169264096Y-135002666D01*
X169244411Y-135069705D01*
X169191607Y-135115460D01*
X169140096Y-135126666D01*
X79389096Y-135126666D01*
X79322057Y-135106981D01*
X79276302Y-135054177D01*
X79265096Y-135002666D01*
X79265096Y-130486734D01*
X99302524Y-130486734D01*
X99302524Y-130767597D01*
X99333966Y-131046660D01*
X99333969Y-131046678D01*
X99396463Y-131320483D01*
X99396467Y-131320495D01*
X99489224Y-131585577D01*
X99611077Y-131838608D01*
X99611079Y-131838611D01*
X99760501Y-132076414D01*
X99935608Y-132295991D01*
X100134199Y-132494582D01*
X100353776Y-132669689D01*
X100591579Y-132819111D01*
X100844616Y-132940967D01*
X101043704Y-133010631D01*
X101109694Y-133033722D01*
X101109706Y-133033726D01*
X101383515Y-133096221D01*
X101383521Y-133096221D01*
X101383529Y-133096223D01*
X101569571Y-133117184D01*
X101662593Y-133127665D01*
X101662596Y-133127666D01*
X101662599Y-133127666D01*
X101943452Y-133127666D01*
X101943453Y-133127665D01*
X102086079Y-133111595D01*
X102222518Y-133096223D01*
X102222523Y-133096222D01*
X102222533Y-133096221D01*
X102496342Y-133033726D01*
X102761432Y-132940967D01*
X103014469Y-132819111D01*
X103252272Y-132669689D01*
X103471849Y-132494582D01*
X103670440Y-132295991D01*
X103845547Y-132076414D01*
X103994969Y-131838611D01*
X104116825Y-131585574D01*
X104209584Y-131320484D01*
X104272079Y-131046675D01*
X104303524Y-130767591D01*
X104303524Y-130486741D01*
X104272079Y-130207657D01*
X104209584Y-129933848D01*
X104116825Y-129668758D01*
X103994969Y-129415721D01*
X103845547Y-129177918D01*
X103670440Y-128958341D01*
X103471849Y-128759750D01*
X103252272Y-128584643D01*
X103014469Y-128435221D01*
X103014466Y-128435219D01*
X102761435Y-128313366D01*
X102496353Y-128220609D01*
X102496341Y-128220605D01*
X102222536Y-128158111D01*
X102222518Y-128158108D01*
X101943455Y-128126666D01*
X101943449Y-128126666D01*
X101662599Y-128126666D01*
X101662592Y-128126666D01*
X101383529Y-128158108D01*
X101383511Y-128158111D01*
X101109706Y-128220605D01*
X101109694Y-128220609D01*
X100844612Y-128313366D01*
X100591581Y-128435219D01*
X100353777Y-128584642D01*
X100134199Y-128759749D01*
X99935607Y-128958341D01*
X99760500Y-129177919D01*
X99611077Y-129415723D01*
X99489224Y-129668754D01*
X99396467Y-129933836D01*
X99396463Y-129933848D01*
X99333969Y-130207653D01*
X99333966Y-130207671D01*
X99302524Y-130486734D01*
X79265096Y-130486734D01*
X79265096Y-116484825D01*
X83559533Y-116484825D01*
X83559533Y-116714308D01*
X83584479Y-116903782D01*
X83589485Y-116941805D01*
X83600181Y-116981722D01*
X83648875Y-117163454D01*
X83736683Y-117375443D01*
X83736687Y-117375451D01*
X83851425Y-117574184D01*
X83991114Y-117756228D01*
X83991122Y-117756237D01*
X84153363Y-117918478D01*
X84153371Y-117918485D01*
X84335415Y-118058174D01*
X84335418Y-118058175D01*
X84335421Y-118058178D01*
X84534145Y-118172911D01*
X84534150Y-118172913D01*
X84534156Y-118172916D01*
X84625513Y-118210757D01*
X84746146Y-118260725D01*
X84967795Y-118320115D01*
X85195299Y-118350067D01*
X85195306Y-118350067D01*
X85424760Y-118350067D01*
X85424767Y-118350067D01*
X85652271Y-118320115D01*
X85873920Y-118260725D01*
X86085921Y-118172911D01*
X86284645Y-118058178D01*
X86466694Y-117918486D01*
X86466698Y-117918481D01*
X86466703Y-117918478D01*
X86628944Y-117756237D01*
X86628947Y-117756232D01*
X86628952Y-117756228D01*
X86768644Y-117574179D01*
X86883377Y-117375455D01*
X86971191Y-117163454D01*
X87030581Y-116941805D01*
X87060533Y-116714301D01*
X87060533Y-116484833D01*
X87030581Y-116257329D01*
X86971191Y-116035680D01*
X86907675Y-115882340D01*
X86883382Y-115823690D01*
X86883379Y-115823684D01*
X86883377Y-115823679D01*
X86768644Y-115624955D01*
X86768641Y-115624952D01*
X86768640Y-115624949D01*
X86628951Y-115442905D01*
X86628944Y-115442897D01*
X86466703Y-115280656D01*
X86466694Y-115280648D01*
X86284650Y-115140959D01*
X86085923Y-115026224D01*
X86085909Y-115026217D01*
X85873920Y-114938409D01*
X85652271Y-114879019D01*
X85614248Y-114874013D01*
X85424774Y-114849067D01*
X85424767Y-114849067D01*
X85195299Y-114849067D01*
X85195291Y-114849067D01*
X84978748Y-114877576D01*
X84967795Y-114879019D01*
X84874109Y-114904121D01*
X84746145Y-114938409D01*
X84534156Y-115026217D01*
X84534142Y-115026224D01*
X84335415Y-115140959D01*
X84153371Y-115280648D01*
X83991114Y-115442905D01*
X83851425Y-115624949D01*
X83736690Y-115823676D01*
X83736683Y-115823690D01*
X83648875Y-116035679D01*
X83589486Y-116257326D01*
X83589484Y-116257337D01*
X83559533Y-116484825D01*
X79265096Y-116484825D01*
X79265096Y-103929149D01*
X79284781Y-103862110D01*
X79337585Y-103816355D01*
X79406743Y-103806411D01*
X79470299Y-103835436D01*
X79487472Y-103853663D01*
X79595733Y-103994752D01*
X79595739Y-103994759D01*
X79767256Y-104166276D01*
X79767262Y-104166281D01*
X79959711Y-104313952D01*
X80169788Y-104435240D01*
X80393900Y-104528070D01*
X80628211Y-104590854D01*
X80808586Y-104614600D01*
X80868711Y-104622516D01*
X80868712Y-104622516D01*
X81111289Y-104622516D01*
X81159388Y-104616183D01*
X81351789Y-104590854D01*
X81586100Y-104528070D01*
X81810212Y-104435240D01*
X82020289Y-104313952D01*
X82212738Y-104166281D01*
X82384265Y-103994754D01*
X82531936Y-103802305D01*
X82653224Y-103592228D01*
X82746054Y-103368116D01*
X82808838Y-103133805D01*
X82840500Y-102893304D01*
X82840500Y-102650728D01*
X82808838Y-102410227D01*
X82746054Y-102175916D01*
X82653224Y-101951804D01*
X82531936Y-101741727D01*
X82431324Y-101610606D01*
X82384266Y-101549279D01*
X82384260Y-101549272D01*
X82212743Y-101377755D01*
X82212736Y-101377749D01*
X82020293Y-101230083D01*
X82020292Y-101230082D01*
X82020289Y-101230080D01*
X81810212Y-101108792D01*
X81788752Y-101099903D01*
X81586104Y-101015963D01*
X81351785Y-100953177D01*
X81111289Y-100921516D01*
X81111288Y-100921516D01*
X80868712Y-100921516D01*
X80868711Y-100921516D01*
X80628214Y-100953177D01*
X80393895Y-101015963D01*
X80169794Y-101108789D01*
X80169785Y-101108793D01*
X79959706Y-101230083D01*
X79767263Y-101377749D01*
X79767256Y-101377755D01*
X79595739Y-101549272D01*
X79487472Y-101690369D01*
X79431044Y-101731571D01*
X79361298Y-101735726D01*
X79300377Y-101701514D01*
X79267625Y-101639796D01*
X79265096Y-101614882D01*
X79265096Y-70695258D01*
X84099500Y-70695258D01*
X84099500Y-70924741D01*
X84120300Y-71082726D01*
X84129452Y-71152238D01*
X84165153Y-71285478D01*
X84188842Y-71373887D01*
X84276650Y-71585876D01*
X84276657Y-71585890D01*
X84391392Y-71784617D01*
X84531081Y-71966661D01*
X84531089Y-71966670D01*
X84693330Y-72128911D01*
X84693338Y-72128918D01*
X84875382Y-72268607D01*
X84875385Y-72268608D01*
X84875388Y-72268611D01*
X85074112Y-72383344D01*
X85074117Y-72383346D01*
X85074123Y-72383349D01*
X85165480Y-72421190D01*
X85286113Y-72471158D01*
X85507762Y-72530548D01*
X85735266Y-72560500D01*
X85735273Y-72560500D01*
X85964727Y-72560500D01*
X85964734Y-72560500D01*
X86192238Y-72530548D01*
X86413887Y-72471158D01*
X86625888Y-72383344D01*
X86824612Y-72268611D01*
X87006661Y-72128919D01*
X87006665Y-72128914D01*
X87006670Y-72128911D01*
X87168911Y-71966670D01*
X87168914Y-71966665D01*
X87168919Y-71966661D01*
X87308611Y-71784612D01*
X87423344Y-71585888D01*
X87511158Y-71373887D01*
X87570548Y-71152238D01*
X87600500Y-70924734D01*
X87600500Y-70695266D01*
X87570548Y-70467762D01*
X87511158Y-70246113D01*
X87447642Y-70092773D01*
X87423349Y-70034123D01*
X87423346Y-70034117D01*
X87423344Y-70034112D01*
X87308611Y-69835388D01*
X87308608Y-69835385D01*
X87308607Y-69835382D01*
X87168918Y-69653338D01*
X87168911Y-69653330D01*
X87006670Y-69491089D01*
X87006661Y-69491081D01*
X86824617Y-69351392D01*
X86625890Y-69236657D01*
X86625876Y-69236650D01*
X86413887Y-69148842D01*
X86192238Y-69089452D01*
X86154215Y-69084446D01*
X85964741Y-69059500D01*
X85964734Y-69059500D01*
X85735266Y-69059500D01*
X85735258Y-69059500D01*
X85518715Y-69088009D01*
X85507762Y-69089452D01*
X85414076Y-69114554D01*
X85286112Y-69148842D01*
X85074123Y-69236650D01*
X85074109Y-69236657D01*
X84875382Y-69351392D01*
X84693338Y-69491081D01*
X84531081Y-69653338D01*
X84391392Y-69835382D01*
X84276657Y-70034109D01*
X84276650Y-70034123D01*
X84188842Y-70246112D01*
X84129453Y-70467759D01*
X84129451Y-70467770D01*
X84099500Y-70695258D01*
X79265096Y-70695258D01*
X79265096Y-62032655D01*
X82267500Y-62032655D01*
X82267500Y-62231376D01*
X82298587Y-62427653D01*
X82359993Y-62616645D01*
X82359994Y-62616648D01*
X82443469Y-62780475D01*
X82450213Y-62793710D01*
X82567019Y-62954480D01*
X82707536Y-63094997D01*
X82868306Y-63211803D01*
X82946333Y-63251560D01*
X83024780Y-63291531D01*
X83075576Y-63339506D01*
X83092371Y-63407327D01*
X83069833Y-63473462D01*
X83024780Y-63512501D01*
X82868305Y-63592229D01*
X82707533Y-63709037D01*
X82567021Y-63849549D01*
X82450213Y-64010321D01*
X82359994Y-64187383D01*
X82359993Y-64187386D01*
X82298587Y-64376378D01*
X82267500Y-64572655D01*
X82267500Y-64771376D01*
X82298587Y-64967653D01*
X82359993Y-65156645D01*
X82359994Y-65156648D01*
X82397526Y-65230307D01*
X82450213Y-65333710D01*
X82567019Y-65494480D01*
X82707536Y-65634997D01*
X82868306Y-65751803D01*
X82955149Y-65796051D01*
X83045367Y-65842021D01*
X83045370Y-65842022D01*
X83117497Y-65865457D01*
X83234364Y-65903429D01*
X83430639Y-65934516D01*
X83430640Y-65934516D01*
X83629360Y-65934516D01*
X83629361Y-65934516D01*
X83825636Y-65903429D01*
X84014632Y-65842021D01*
X84191694Y-65751803D01*
X84352464Y-65634997D01*
X84492981Y-65494480D01*
X84609787Y-65333710D01*
X84689515Y-65177234D01*
X84737490Y-65126439D01*
X84805311Y-65109644D01*
X84871446Y-65132181D01*
X84910484Y-65177234D01*
X84990213Y-65333710D01*
X85107019Y-65494480D01*
X85247536Y-65634997D01*
X85408306Y-65751803D01*
X85495149Y-65796051D01*
X85585367Y-65842021D01*
X85585370Y-65842022D01*
X85657497Y-65865457D01*
X85774364Y-65903429D01*
X85970639Y-65934516D01*
X85970640Y-65934516D01*
X86169360Y-65934516D01*
X86169361Y-65934516D01*
X86365636Y-65903429D01*
X86554632Y-65842021D01*
X86731694Y-65751803D01*
X86892464Y-65634997D01*
X87032981Y-65494480D01*
X87149787Y-65333710D01*
X87229515Y-65177234D01*
X87277490Y-65126439D01*
X87345311Y-65109644D01*
X87411446Y-65132181D01*
X87450484Y-65177234D01*
X87530213Y-65333710D01*
X87647019Y-65494480D01*
X87787536Y-65634997D01*
X87948306Y-65751803D01*
X88035149Y-65796051D01*
X88125367Y-65842021D01*
X88125370Y-65842022D01*
X88197497Y-65865457D01*
X88314364Y-65903429D01*
X88510639Y-65934516D01*
X88510640Y-65934516D01*
X88709360Y-65934516D01*
X88709361Y-65934516D01*
X88905636Y-65903429D01*
X89094632Y-65842021D01*
X89271694Y-65751803D01*
X89432464Y-65634997D01*
X89572981Y-65494480D01*
X89689787Y-65333710D01*
X89769515Y-65177234D01*
X89817490Y-65126439D01*
X89885311Y-65109644D01*
X89951446Y-65132181D01*
X89990484Y-65177234D01*
X90070213Y-65333710D01*
X90187019Y-65494480D01*
X90327536Y-65634997D01*
X90488306Y-65751803D01*
X90575149Y-65796051D01*
X90665367Y-65842021D01*
X90665370Y-65842022D01*
X90737497Y-65865457D01*
X90854364Y-65903429D01*
X91050639Y-65934516D01*
X91050640Y-65934516D01*
X91249360Y-65934516D01*
X91249361Y-65934516D01*
X91445636Y-65903429D01*
X91634632Y-65842021D01*
X91811694Y-65751803D01*
X91972464Y-65634997D01*
X92112981Y-65494480D01*
X92229787Y-65333710D01*
X92309515Y-65177234D01*
X92357490Y-65126439D01*
X92425311Y-65109644D01*
X92491446Y-65132181D01*
X92530484Y-65177234D01*
X92610213Y-65333710D01*
X92727019Y-65494480D01*
X92867536Y-65634997D01*
X93028306Y-65751803D01*
X93115149Y-65796051D01*
X93205367Y-65842021D01*
X93205370Y-65842022D01*
X93277497Y-65865457D01*
X93394364Y-65903429D01*
X93590639Y-65934516D01*
X93590640Y-65934516D01*
X93789360Y-65934516D01*
X93789361Y-65934516D01*
X93985636Y-65903429D01*
X93985646Y-65903425D01*
X93987891Y-65902887D01*
X93988778Y-65902931D01*
X93990448Y-65902667D01*
X93990503Y-65903017D01*
X94057674Y-65906373D01*
X94104527Y-65935778D01*
X95733123Y-67564374D01*
X95733133Y-67564385D01*
X95737463Y-67568715D01*
X95737464Y-67568716D01*
X95849268Y-67680520D01*
X95897949Y-67708625D01*
X95936079Y-67730639D01*
X95936081Y-67730641D01*
X95970112Y-67750289D01*
X95986199Y-67759577D01*
X96138926Y-67800500D01*
X96138927Y-67800500D01*
X99640234Y-67800500D01*
X99707273Y-67820185D01*
X99709125Y-67821398D01*
X99840814Y-67909390D01*
X99840827Y-67909397D01*
X99937390Y-67949394D01*
X99986503Y-67969737D01*
X100097255Y-67991767D01*
X100141153Y-68000499D01*
X100141156Y-68000500D01*
X100141158Y-68000500D01*
X100298844Y-68000500D01*
X100298845Y-68000499D01*
X100453497Y-67969737D01*
X100599179Y-67909394D01*
X100730289Y-67821789D01*
X100841789Y-67710289D01*
X100929394Y-67579179D01*
X100989737Y-67433497D01*
X101020500Y-67278842D01*
X101020500Y-67121158D01*
X101020500Y-67121155D01*
X101020499Y-67121153D01*
X100997695Y-67006510D01*
X100989737Y-66966503D01*
X100945965Y-66860827D01*
X100929397Y-66820827D01*
X100929390Y-66820814D01*
X100841789Y-66689711D01*
X100841786Y-66689707D01*
X100730292Y-66578213D01*
X100730288Y-66578210D01*
X100599185Y-66490609D01*
X100599172Y-66490602D01*
X100453501Y-66430264D01*
X100453489Y-66430261D01*
X100298845Y-66399500D01*
X100298842Y-66399500D01*
X100141158Y-66399500D01*
X100141155Y-66399500D01*
X99986510Y-66430261D01*
X99986498Y-66430264D01*
X99840827Y-66490602D01*
X99840814Y-66490609D01*
X99709125Y-66578602D01*
X99642447Y-66599480D01*
X99640234Y-66599500D01*
X96518081Y-66599500D01*
X96451042Y-66579815D01*
X96430400Y-66563181D01*
X96009692Y-66142473D01*
X95976207Y-66081150D01*
X95981191Y-66011458D01*
X96023063Y-65955525D01*
X96088527Y-65931108D01*
X96116765Y-65932318D01*
X96130639Y-65934516D01*
X96130643Y-65934516D01*
X96329360Y-65934516D01*
X96329361Y-65934516D01*
X96525636Y-65903429D01*
X96714632Y-65842021D01*
X96891694Y-65751803D01*
X97052464Y-65634997D01*
X97192981Y-65494480D01*
X97309787Y-65333710D01*
X97389515Y-65177234D01*
X97437490Y-65126439D01*
X97505311Y-65109644D01*
X97571446Y-65132181D01*
X97610484Y-65177234D01*
X97690213Y-65333710D01*
X97807019Y-65494480D01*
X97947536Y-65634997D01*
X98108306Y-65751803D01*
X98195149Y-65796051D01*
X98285367Y-65842021D01*
X98285370Y-65842022D01*
X98357497Y-65865457D01*
X98474364Y-65903429D01*
X98670639Y-65934516D01*
X98670640Y-65934516D01*
X98869360Y-65934516D01*
X98869361Y-65934516D01*
X99065636Y-65903429D01*
X99254632Y-65842021D01*
X99431694Y-65751803D01*
X99592464Y-65634997D01*
X99732981Y-65494480D01*
X99849787Y-65333710D01*
X99929515Y-65177234D01*
X99977490Y-65126439D01*
X100045311Y-65109644D01*
X100111446Y-65132181D01*
X100150484Y-65177234D01*
X100230213Y-65333710D01*
X100347019Y-65494480D01*
X100487536Y-65634997D01*
X100648306Y-65751803D01*
X100735149Y-65796051D01*
X100825367Y-65842021D01*
X100825370Y-65842022D01*
X100897497Y-65865457D01*
X101014364Y-65903429D01*
X101210639Y-65934516D01*
X101210640Y-65934516D01*
X101409360Y-65934516D01*
X101409361Y-65934516D01*
X101579104Y-65907631D01*
X101648395Y-65916585D01*
X101701847Y-65961582D01*
X101722487Y-66028333D01*
X101722500Y-66030104D01*
X101722500Y-74136903D01*
X101702815Y-74203942D01*
X101686181Y-74224584D01*
X100595339Y-75315425D01*
X100534016Y-75348910D01*
X100531850Y-75349361D01*
X100376508Y-75380261D01*
X100376498Y-75380264D01*
X100230827Y-75440602D01*
X100230814Y-75440609D01*
X100099711Y-75528210D01*
X100099707Y-75528213D01*
X99988213Y-75639707D01*
X99988210Y-75639711D01*
X99900609Y-75770814D01*
X99900602Y-75770827D01*
X99840264Y-75916498D01*
X99840261Y-75916510D01*
X99809500Y-76071153D01*
X99809500Y-76228846D01*
X99840261Y-76383489D01*
X99840264Y-76383501D01*
X99900602Y-76529172D01*
X99900609Y-76529185D01*
X99988210Y-76660288D01*
X99988213Y-76660292D01*
X100099707Y-76771786D01*
X100099711Y-76771789D01*
X100230814Y-76859390D01*
X100230827Y-76859397D01*
X100376498Y-76919735D01*
X100376503Y-76919737D01*
X100531153Y-76950499D01*
X100531156Y-76950500D01*
X100531158Y-76950500D01*
X100688844Y-76950500D01*
X100688845Y-76950499D01*
X100843497Y-76919737D01*
X100989179Y-76859394D01*
X101120289Y-76771789D01*
X101231789Y-76660289D01*
X101319394Y-76529179D01*
X101322719Y-76521153D01*
X101379735Y-76383501D01*
X101379737Y-76383497D01*
X101399113Y-76286085D01*
X101410638Y-76228150D01*
X101443023Y-76166239D01*
X101444520Y-76164714D01*
X102691713Y-74917521D01*
X102691716Y-74917520D01*
X102803520Y-74805716D01*
X102853639Y-74718904D01*
X102882577Y-74668785D01*
X102923501Y-74516057D01*
X102923501Y-74357943D01*
X102923501Y-74350348D01*
X102923500Y-74350330D01*
X102923500Y-65802774D01*
X102943185Y-65735735D01*
X102995989Y-65689980D01*
X103065147Y-65680036D01*
X103120384Y-65702455D01*
X103188306Y-65751803D01*
X103275149Y-65796051D01*
X103365367Y-65842021D01*
X103365370Y-65842022D01*
X103437497Y-65865457D01*
X103554364Y-65903429D01*
X103750639Y-65934516D01*
X103750640Y-65934516D01*
X103949360Y-65934516D01*
X103949361Y-65934516D01*
X104145636Y-65903429D01*
X104334632Y-65842021D01*
X104511694Y-65751803D01*
X104672464Y-65634997D01*
X104812981Y-65494480D01*
X104929787Y-65333710D01*
X105009515Y-65177234D01*
X105057490Y-65126439D01*
X105125311Y-65109644D01*
X105191446Y-65132181D01*
X105230484Y-65177234D01*
X105310213Y-65333710D01*
X105427019Y-65494480D01*
X105567536Y-65634997D01*
X105728306Y-65751803D01*
X105815149Y-65796051D01*
X105905367Y-65842021D01*
X105905370Y-65842022D01*
X105977497Y-65865457D01*
X106094364Y-65903429D01*
X106290639Y-65934516D01*
X106290640Y-65934516D01*
X106489360Y-65934516D01*
X106489361Y-65934516D01*
X106685636Y-65903429D01*
X106874632Y-65842021D01*
X107051694Y-65751803D01*
X107212464Y-65634997D01*
X107352981Y-65494480D01*
X107469787Y-65333710D01*
X107549515Y-65177234D01*
X107597490Y-65126439D01*
X107665311Y-65109644D01*
X107731446Y-65132181D01*
X107770484Y-65177234D01*
X107850213Y-65333710D01*
X107967019Y-65494480D01*
X108107536Y-65634997D01*
X108268306Y-65751803D01*
X108355149Y-65796051D01*
X108445367Y-65842021D01*
X108445370Y-65842022D01*
X108517497Y-65865457D01*
X108634364Y-65903429D01*
X108830639Y-65934516D01*
X108830640Y-65934516D01*
X109029360Y-65934516D01*
X109029361Y-65934516D01*
X109225636Y-65903429D01*
X109414632Y-65842021D01*
X109591694Y-65751803D01*
X109752464Y-65634997D01*
X109892981Y-65494480D01*
X110009787Y-65333710D01*
X110089515Y-65177234D01*
X110137490Y-65126439D01*
X110205311Y-65109644D01*
X110271446Y-65132181D01*
X110310484Y-65177234D01*
X110390213Y-65333710D01*
X110507019Y-65494480D01*
X110647536Y-65634997D01*
X110808306Y-65751803D01*
X110895149Y-65796051D01*
X110985367Y-65842021D01*
X110985370Y-65842022D01*
X111057497Y-65865457D01*
X111174364Y-65903429D01*
X111370639Y-65934516D01*
X111370640Y-65934516D01*
X111569360Y-65934516D01*
X111569361Y-65934516D01*
X111765636Y-65903429D01*
X111954632Y-65842021D01*
X112131694Y-65751803D01*
X112292464Y-65634997D01*
X112432981Y-65494480D01*
X112549787Y-65333710D01*
X112629515Y-65177234D01*
X112677490Y-65126439D01*
X112745311Y-65109644D01*
X112811446Y-65132181D01*
X112850484Y-65177234D01*
X112930213Y-65333710D01*
X113047019Y-65494480D01*
X113187536Y-65634997D01*
X113348306Y-65751803D01*
X113435149Y-65796051D01*
X113525367Y-65842021D01*
X113525370Y-65842022D01*
X113597497Y-65865457D01*
X113714364Y-65903429D01*
X113910639Y-65934516D01*
X113910640Y-65934516D01*
X114109360Y-65934516D01*
X114109361Y-65934516D01*
X114305636Y-65903429D01*
X114494632Y-65842021D01*
X114671694Y-65751803D01*
X114832464Y-65634997D01*
X114972981Y-65494480D01*
X115089787Y-65333710D01*
X115169515Y-65177234D01*
X115217490Y-65126439D01*
X115285311Y-65109644D01*
X115351446Y-65132181D01*
X115390484Y-65177234D01*
X115470213Y-65333710D01*
X115587019Y-65494480D01*
X115727536Y-65634997D01*
X115888306Y-65751803D01*
X115975149Y-65796051D01*
X116065367Y-65842021D01*
X116065370Y-65842022D01*
X116137497Y-65865457D01*
X116254364Y-65903429D01*
X116450639Y-65934516D01*
X116450640Y-65934516D01*
X116649360Y-65934516D01*
X116649361Y-65934516D01*
X116845636Y-65903429D01*
X117034632Y-65842021D01*
X117211694Y-65751803D01*
X117372464Y-65634997D01*
X117512981Y-65494480D01*
X117629787Y-65333710D01*
X117709515Y-65177234D01*
X117757490Y-65126439D01*
X117825311Y-65109644D01*
X117891446Y-65132181D01*
X117930484Y-65177234D01*
X118010213Y-65333710D01*
X118127019Y-65494480D01*
X118267536Y-65634997D01*
X118428306Y-65751803D01*
X118515149Y-65796051D01*
X118605367Y-65842021D01*
X118605370Y-65842022D01*
X118677497Y-65865457D01*
X118794364Y-65903429D01*
X118990639Y-65934516D01*
X118990640Y-65934516D01*
X119189360Y-65934516D01*
X119189361Y-65934516D01*
X119385636Y-65903429D01*
X119574632Y-65842021D01*
X119751694Y-65751803D01*
X119912464Y-65634997D01*
X120052981Y-65494480D01*
X120169787Y-65333710D01*
X120249515Y-65177234D01*
X120297490Y-65126439D01*
X120365311Y-65109644D01*
X120431446Y-65132181D01*
X120470484Y-65177234D01*
X120550213Y-65333710D01*
X120667019Y-65494480D01*
X120807536Y-65634997D01*
X120968306Y-65751803D01*
X121055149Y-65796051D01*
X121145367Y-65842021D01*
X121145370Y-65842022D01*
X121217497Y-65865457D01*
X121334364Y-65903429D01*
X121530639Y-65934516D01*
X121530640Y-65934516D01*
X121729360Y-65934516D01*
X121729361Y-65934516D01*
X121925636Y-65903429D01*
X122114632Y-65842021D01*
X122291694Y-65751803D01*
X122452464Y-65634997D01*
X122592981Y-65494480D01*
X122709787Y-65333710D01*
X122789515Y-65177234D01*
X122837490Y-65126439D01*
X122905311Y-65109644D01*
X122971446Y-65132181D01*
X123010484Y-65177234D01*
X123090213Y-65333710D01*
X123207019Y-65494480D01*
X123347536Y-65634997D01*
X123508306Y-65751803D01*
X123595149Y-65796051D01*
X123685367Y-65842021D01*
X123685370Y-65842022D01*
X123757497Y-65865457D01*
X123874364Y-65903429D01*
X124070639Y-65934516D01*
X124070640Y-65934516D01*
X124269360Y-65934516D01*
X124269361Y-65934516D01*
X124465636Y-65903429D01*
X124654632Y-65842021D01*
X124831694Y-65751803D01*
X124992464Y-65634997D01*
X125132981Y-65494480D01*
X125249787Y-65333710D01*
X125329515Y-65177234D01*
X125377490Y-65126439D01*
X125445311Y-65109644D01*
X125511446Y-65132181D01*
X125550484Y-65177234D01*
X125630213Y-65333710D01*
X125747019Y-65494480D01*
X125887536Y-65634997D01*
X126048306Y-65751803D01*
X126135149Y-65796051D01*
X126225367Y-65842021D01*
X126225370Y-65842022D01*
X126297497Y-65865457D01*
X126414364Y-65903429D01*
X126610639Y-65934516D01*
X126610640Y-65934516D01*
X126809360Y-65934516D01*
X126809361Y-65934516D01*
X127005636Y-65903429D01*
X127194632Y-65842021D01*
X127371694Y-65751803D01*
X127532464Y-65634997D01*
X127672981Y-65494480D01*
X127789787Y-65333710D01*
X127869515Y-65177234D01*
X127917490Y-65126439D01*
X127985311Y-65109644D01*
X128051446Y-65132181D01*
X128090484Y-65177234D01*
X128170213Y-65333710D01*
X128287019Y-65494480D01*
X128427536Y-65634997D01*
X128588306Y-65751803D01*
X128675149Y-65796051D01*
X128765367Y-65842021D01*
X128765370Y-65842022D01*
X128837497Y-65865457D01*
X128954364Y-65903429D01*
X129150639Y-65934516D01*
X129150640Y-65934516D01*
X129173367Y-65934516D01*
X129240406Y-65954201D01*
X129286161Y-66007005D01*
X129296105Y-66076163D01*
X129267080Y-66139719D01*
X129261048Y-66146197D01*
X94222481Y-101184763D01*
X94222480Y-101184765D01*
X94184964Y-101249745D01*
X94143423Y-101321696D01*
X94102499Y-101474424D01*
X94102499Y-101474426D01*
X94102499Y-101642527D01*
X94102500Y-101642540D01*
X94102500Y-121733927D01*
X94082815Y-121800966D01*
X94030011Y-121846721D01*
X93960853Y-121856665D01*
X93959102Y-121856400D01*
X93836283Y-121836947D01*
X93789361Y-121829516D01*
X93590639Y-121829516D01*
X93525214Y-121839878D01*
X93394362Y-121860603D01*
X93205370Y-121922009D01*
X93205367Y-121922010D01*
X93028305Y-122012229D01*
X92867533Y-122129037D01*
X92727021Y-122269549D01*
X92610213Y-122430321D01*
X92530485Y-122586796D01*
X92482510Y-122637592D01*
X92414689Y-122654387D01*
X92348554Y-122631849D01*
X92309515Y-122586796D01*
X92290179Y-122548848D01*
X92229787Y-122430322D01*
X92112981Y-122269552D01*
X91972464Y-122129035D01*
X91811694Y-122012229D01*
X91811692Y-122012228D01*
X91634632Y-121922010D01*
X91634629Y-121922009D01*
X91445637Y-121860603D01*
X91347498Y-121845059D01*
X91249361Y-121829516D01*
X91050639Y-121829516D01*
X90985214Y-121839878D01*
X90854362Y-121860603D01*
X90665370Y-121922009D01*
X90665367Y-121922010D01*
X90488305Y-122012229D01*
X90327533Y-122129037D01*
X90187021Y-122269549D01*
X90070213Y-122430321D01*
X89990485Y-122586796D01*
X89942510Y-122637592D01*
X89874689Y-122654387D01*
X89808554Y-122631849D01*
X89769515Y-122586796D01*
X89750179Y-122548848D01*
X89689787Y-122430322D01*
X89572981Y-122269552D01*
X89432464Y-122129035D01*
X89271694Y-122012229D01*
X89271692Y-122012228D01*
X89094632Y-121922010D01*
X89094629Y-121922009D01*
X88905637Y-121860603D01*
X88807498Y-121845059D01*
X88709361Y-121829516D01*
X88510639Y-121829516D01*
X88445214Y-121839878D01*
X88314362Y-121860603D01*
X88125370Y-121922009D01*
X88125367Y-121922010D01*
X87948305Y-122012229D01*
X87787533Y-122129037D01*
X87647021Y-122269549D01*
X87530213Y-122430321D01*
X87450485Y-122586796D01*
X87402510Y-122637592D01*
X87334689Y-122654387D01*
X87268554Y-122631849D01*
X87229515Y-122586796D01*
X87210179Y-122548848D01*
X87149787Y-122430322D01*
X87032981Y-122269552D01*
X86892464Y-122129035D01*
X86731694Y-122012229D01*
X86731692Y-122012228D01*
X86554632Y-121922010D01*
X86554629Y-121922009D01*
X86365637Y-121860603D01*
X86267498Y-121845059D01*
X86169361Y-121829516D01*
X85970639Y-121829516D01*
X85905214Y-121839878D01*
X85774362Y-121860603D01*
X85585370Y-121922009D01*
X85585367Y-121922010D01*
X85408305Y-122012229D01*
X85247533Y-122129037D01*
X85107021Y-122269549D01*
X84990213Y-122430321D01*
X84910485Y-122586796D01*
X84862510Y-122637592D01*
X84794689Y-122654387D01*
X84728554Y-122631849D01*
X84689515Y-122586796D01*
X84670179Y-122548848D01*
X84609787Y-122430322D01*
X84492981Y-122269552D01*
X84352464Y-122129035D01*
X84191694Y-122012229D01*
X84191692Y-122012228D01*
X84014632Y-121922010D01*
X84014629Y-121922009D01*
X83825637Y-121860603D01*
X83727498Y-121845059D01*
X83629361Y-121829516D01*
X83430639Y-121829516D01*
X83365214Y-121839878D01*
X83234362Y-121860603D01*
X83045370Y-121922009D01*
X83045367Y-121922010D01*
X82868305Y-122012229D01*
X82707533Y-122129037D01*
X82567021Y-122269549D01*
X82450213Y-122430321D01*
X82359994Y-122607383D01*
X82359993Y-122607386D01*
X82298587Y-122796378D01*
X82267500Y-122992655D01*
X82267500Y-123191376D01*
X82298587Y-123387653D01*
X82359993Y-123576645D01*
X82359994Y-123576648D01*
X82447884Y-123749139D01*
X82450213Y-123753710D01*
X82567019Y-123914480D01*
X82707536Y-124054997D01*
X82868306Y-124171803D01*
X82968342Y-124222774D01*
X83024780Y-124251531D01*
X83075576Y-124299506D01*
X83092371Y-124367327D01*
X83069833Y-124433462D01*
X83024780Y-124472501D01*
X82868305Y-124552229D01*
X82707533Y-124669037D01*
X82567021Y-124809549D01*
X82450213Y-124970321D01*
X82359994Y-125147383D01*
X82359993Y-125147386D01*
X82298587Y-125336378D01*
X82267500Y-125532655D01*
X82267500Y-125731376D01*
X82298587Y-125927653D01*
X82359993Y-126116645D01*
X82359994Y-126116648D01*
X82450213Y-126293710D01*
X82567019Y-126454480D01*
X82707536Y-126594997D01*
X82868306Y-126711803D01*
X82955149Y-126756051D01*
X83045367Y-126802021D01*
X83045370Y-126802022D01*
X83094328Y-126817929D01*
X83234364Y-126863429D01*
X83430639Y-126894516D01*
X83430640Y-126894516D01*
X83629360Y-126894516D01*
X83629361Y-126894516D01*
X83825636Y-126863429D01*
X84014632Y-126802021D01*
X84191694Y-126711803D01*
X84352464Y-126594997D01*
X84492981Y-126454480D01*
X84609787Y-126293710D01*
X84689515Y-126137234D01*
X84737490Y-126086439D01*
X84805311Y-126069644D01*
X84871446Y-126092181D01*
X84910484Y-126137234D01*
X84990213Y-126293710D01*
X85107019Y-126454480D01*
X85247536Y-126594997D01*
X85408306Y-126711803D01*
X85495149Y-126756051D01*
X85585367Y-126802021D01*
X85585370Y-126802022D01*
X85634328Y-126817929D01*
X85774364Y-126863429D01*
X85970639Y-126894516D01*
X85970640Y-126894516D01*
X86169360Y-126894516D01*
X86169361Y-126894516D01*
X86365636Y-126863429D01*
X86554632Y-126802021D01*
X86731694Y-126711803D01*
X86892464Y-126594997D01*
X87032981Y-126454480D01*
X87149787Y-126293710D01*
X87229515Y-126137234D01*
X87277490Y-126086439D01*
X87345311Y-126069644D01*
X87411446Y-126092181D01*
X87450484Y-126137234D01*
X87530213Y-126293710D01*
X87647019Y-126454480D01*
X87787536Y-126594997D01*
X87948306Y-126711803D01*
X88035149Y-126756051D01*
X88125367Y-126802021D01*
X88125370Y-126802022D01*
X88174328Y-126817929D01*
X88314364Y-126863429D01*
X88510639Y-126894516D01*
X88510640Y-126894516D01*
X88709360Y-126894516D01*
X88709361Y-126894516D01*
X88905636Y-126863429D01*
X89094632Y-126802021D01*
X89271694Y-126711803D01*
X89432464Y-126594997D01*
X89572981Y-126454480D01*
X89689787Y-126293710D01*
X89769515Y-126137234D01*
X89817490Y-126086439D01*
X89885311Y-126069644D01*
X89951446Y-126092181D01*
X89990484Y-126137234D01*
X90070213Y-126293710D01*
X90187019Y-126454480D01*
X90327536Y-126594997D01*
X90488306Y-126711803D01*
X90575149Y-126756051D01*
X90665367Y-126802021D01*
X90665370Y-126802022D01*
X90714328Y-126817929D01*
X90854364Y-126863429D01*
X91050639Y-126894516D01*
X91050640Y-126894516D01*
X91249360Y-126894516D01*
X91249361Y-126894516D01*
X91445636Y-126863429D01*
X91634632Y-126802021D01*
X91811694Y-126711803D01*
X91972464Y-126594997D01*
X92112981Y-126454480D01*
X92229787Y-126293710D01*
X92309515Y-126137234D01*
X92357490Y-126086439D01*
X92425311Y-126069644D01*
X92491446Y-126092181D01*
X92530484Y-126137234D01*
X92610213Y-126293710D01*
X92727019Y-126454480D01*
X92867536Y-126594997D01*
X93028306Y-126711803D01*
X93115149Y-126756051D01*
X93205367Y-126802021D01*
X93205370Y-126802022D01*
X93254328Y-126817929D01*
X93394364Y-126863429D01*
X93590639Y-126894516D01*
X93590640Y-126894516D01*
X93789360Y-126894516D01*
X93789361Y-126894516D01*
X93985636Y-126863429D01*
X94174632Y-126802021D01*
X94351694Y-126711803D01*
X94512464Y-126594997D01*
X94652981Y-126454480D01*
X94769787Y-126293710D01*
X94849515Y-126137234D01*
X94897490Y-126086439D01*
X94965311Y-126069644D01*
X95031446Y-126092181D01*
X95070484Y-126137234D01*
X95150213Y-126293710D01*
X95267019Y-126454480D01*
X95407536Y-126594997D01*
X95568306Y-126711803D01*
X95655149Y-126756051D01*
X95745367Y-126802021D01*
X95745370Y-126802022D01*
X95794328Y-126817929D01*
X95934364Y-126863429D01*
X96130639Y-126894516D01*
X96130640Y-126894516D01*
X96329360Y-126894516D01*
X96329361Y-126894516D01*
X96525636Y-126863429D01*
X96714632Y-126802021D01*
X96891694Y-126711803D01*
X97052464Y-126594997D01*
X97192981Y-126454480D01*
X97309787Y-126293710D01*
X97389515Y-126137234D01*
X97437490Y-126086439D01*
X97505311Y-126069644D01*
X97571446Y-126092181D01*
X97610484Y-126137234D01*
X97690213Y-126293710D01*
X97807019Y-126454480D01*
X97947536Y-126594997D01*
X98108306Y-126711803D01*
X98195149Y-126756051D01*
X98285367Y-126802021D01*
X98285370Y-126802022D01*
X98334328Y-126817929D01*
X98474364Y-126863429D01*
X98670639Y-126894516D01*
X98670640Y-126894516D01*
X98869360Y-126894516D01*
X98869361Y-126894516D01*
X99065636Y-126863429D01*
X99254632Y-126802021D01*
X99431694Y-126711803D01*
X99592464Y-126594997D01*
X99732981Y-126454480D01*
X99849787Y-126293710D01*
X99929515Y-126137234D01*
X99977490Y-126086439D01*
X100045311Y-126069644D01*
X100111446Y-126092181D01*
X100150484Y-126137234D01*
X100230213Y-126293710D01*
X100347019Y-126454480D01*
X100487536Y-126594997D01*
X100648306Y-126711803D01*
X100735149Y-126756051D01*
X100825367Y-126802021D01*
X100825370Y-126802022D01*
X100874328Y-126817929D01*
X101014364Y-126863429D01*
X101210639Y-126894516D01*
X101210640Y-126894516D01*
X101409360Y-126894516D01*
X101409361Y-126894516D01*
X101605636Y-126863429D01*
X101794632Y-126802021D01*
X101971694Y-126711803D01*
X102132464Y-126594997D01*
X102272981Y-126454480D01*
X102389787Y-126293710D01*
X102469515Y-126137234D01*
X102517490Y-126086439D01*
X102585311Y-126069644D01*
X102651446Y-126092181D01*
X102690484Y-126137234D01*
X102770213Y-126293710D01*
X102887019Y-126454480D01*
X103027536Y-126594997D01*
X103188306Y-126711803D01*
X103275149Y-126756051D01*
X103365367Y-126802021D01*
X103365370Y-126802022D01*
X103414328Y-126817929D01*
X103554364Y-126863429D01*
X103750639Y-126894516D01*
X103750640Y-126894516D01*
X103949360Y-126894516D01*
X103949361Y-126894516D01*
X104145636Y-126863429D01*
X104334632Y-126802021D01*
X104511694Y-126711803D01*
X104672464Y-126594997D01*
X104812981Y-126454480D01*
X104929787Y-126293710D01*
X105009515Y-126137234D01*
X105057490Y-126086439D01*
X105125311Y-126069644D01*
X105191446Y-126092181D01*
X105230484Y-126137234D01*
X105310213Y-126293710D01*
X105427019Y-126454480D01*
X105567536Y-126594997D01*
X105728306Y-126711803D01*
X105815149Y-126756051D01*
X105905367Y-126802021D01*
X105905370Y-126802022D01*
X105954328Y-126817929D01*
X106094364Y-126863429D01*
X106290639Y-126894516D01*
X106290640Y-126894516D01*
X106489360Y-126894516D01*
X106489361Y-126894516D01*
X106685636Y-126863429D01*
X106874632Y-126802021D01*
X107051694Y-126711803D01*
X107212464Y-126594997D01*
X107352981Y-126454480D01*
X107469787Y-126293710D01*
X107549515Y-126137234D01*
X107597490Y-126086439D01*
X107665311Y-126069644D01*
X107731446Y-126092181D01*
X107770484Y-126137234D01*
X107850213Y-126293710D01*
X107967019Y-126454480D01*
X108107536Y-126594997D01*
X108268306Y-126711803D01*
X108355149Y-126756051D01*
X108445367Y-126802021D01*
X108445370Y-126802022D01*
X108494328Y-126817929D01*
X108634364Y-126863429D01*
X108830639Y-126894516D01*
X108830640Y-126894516D01*
X109029360Y-126894516D01*
X109029361Y-126894516D01*
X109225636Y-126863429D01*
X109414632Y-126802021D01*
X109591694Y-126711803D01*
X109752464Y-126594997D01*
X109892981Y-126454480D01*
X110009787Y-126293710D01*
X110089515Y-126137234D01*
X110137490Y-126086439D01*
X110205311Y-126069644D01*
X110271446Y-126092181D01*
X110310484Y-126137234D01*
X110390213Y-126293710D01*
X110507019Y-126454480D01*
X110647536Y-126594997D01*
X110808306Y-126711803D01*
X110895149Y-126756051D01*
X110985367Y-126802021D01*
X110985370Y-126802022D01*
X111034328Y-126817929D01*
X111174364Y-126863429D01*
X111370639Y-126894516D01*
X111370640Y-126894516D01*
X111569360Y-126894516D01*
X111569361Y-126894516D01*
X111765636Y-126863429D01*
X111954632Y-126802021D01*
X112131694Y-126711803D01*
X112292464Y-126594997D01*
X112432981Y-126454480D01*
X112549787Y-126293710D01*
X112629515Y-126137234D01*
X112677490Y-126086439D01*
X112745311Y-126069644D01*
X112811446Y-126092181D01*
X112850484Y-126137234D01*
X112930213Y-126293710D01*
X113047019Y-126454480D01*
X113187536Y-126594997D01*
X113348306Y-126711803D01*
X113435149Y-126756051D01*
X113525367Y-126802021D01*
X113525370Y-126802022D01*
X113574328Y-126817929D01*
X113714364Y-126863429D01*
X113910639Y-126894516D01*
X113910640Y-126894516D01*
X114109360Y-126894516D01*
X114109361Y-126894516D01*
X114305636Y-126863429D01*
X114494632Y-126802021D01*
X114671694Y-126711803D01*
X114832464Y-126594997D01*
X114972981Y-126454480D01*
X115089787Y-126293710D01*
X115169515Y-126137234D01*
X115217490Y-126086439D01*
X115285311Y-126069644D01*
X115351446Y-126092181D01*
X115390484Y-126137234D01*
X115470213Y-126293710D01*
X115587019Y-126454480D01*
X115727536Y-126594997D01*
X115888306Y-126711803D01*
X115975149Y-126756051D01*
X116065367Y-126802021D01*
X116065370Y-126802022D01*
X116114328Y-126817929D01*
X116254364Y-126863429D01*
X116450639Y-126894516D01*
X116450640Y-126894516D01*
X116649360Y-126894516D01*
X116649361Y-126894516D01*
X116845636Y-126863429D01*
X117034632Y-126802021D01*
X117211694Y-126711803D01*
X117372464Y-126594997D01*
X117512981Y-126454480D01*
X117629787Y-126293710D01*
X117709515Y-126137234D01*
X117757490Y-126086439D01*
X117825311Y-126069644D01*
X117891446Y-126092181D01*
X117930484Y-126137234D01*
X118010213Y-126293710D01*
X118127019Y-126454480D01*
X118267536Y-126594997D01*
X118428306Y-126711803D01*
X118515149Y-126756051D01*
X118605367Y-126802021D01*
X118605370Y-126802022D01*
X118654328Y-126817929D01*
X118794364Y-126863429D01*
X118990639Y-126894516D01*
X118990640Y-126894516D01*
X119189360Y-126894516D01*
X119189361Y-126894516D01*
X119385636Y-126863429D01*
X119574632Y-126802021D01*
X119751694Y-126711803D01*
X119912464Y-126594997D01*
X120052981Y-126454480D01*
X120169787Y-126293710D01*
X120249515Y-126137234D01*
X120297490Y-126086439D01*
X120365311Y-126069644D01*
X120431446Y-126092181D01*
X120470484Y-126137234D01*
X120550213Y-126293710D01*
X120667019Y-126454480D01*
X120807536Y-126594997D01*
X120968306Y-126711803D01*
X121055149Y-126756051D01*
X121145367Y-126802021D01*
X121145370Y-126802022D01*
X121194328Y-126817929D01*
X121334364Y-126863429D01*
X121530639Y-126894516D01*
X121530640Y-126894516D01*
X121729360Y-126894516D01*
X121729361Y-126894516D01*
X121925636Y-126863429D01*
X122114632Y-126802021D01*
X122291694Y-126711803D01*
X122452464Y-126594997D01*
X122592981Y-126454480D01*
X122709787Y-126293710D01*
X122789515Y-126137234D01*
X122837490Y-126086439D01*
X122905311Y-126069644D01*
X122971446Y-126092181D01*
X123010484Y-126137234D01*
X123090213Y-126293710D01*
X123207019Y-126454480D01*
X123347536Y-126594997D01*
X123508306Y-126711803D01*
X123595149Y-126756051D01*
X123685367Y-126802021D01*
X123685370Y-126802022D01*
X123734328Y-126817929D01*
X123874364Y-126863429D01*
X124070639Y-126894516D01*
X124070640Y-126894516D01*
X124269360Y-126894516D01*
X124269361Y-126894516D01*
X124465636Y-126863429D01*
X124654632Y-126802021D01*
X124831694Y-126711803D01*
X124992464Y-126594997D01*
X125132981Y-126454480D01*
X125249787Y-126293710D01*
X125329515Y-126137234D01*
X125377490Y-126086439D01*
X125445311Y-126069644D01*
X125511446Y-126092181D01*
X125550484Y-126137234D01*
X125630213Y-126293710D01*
X125747019Y-126454480D01*
X125887536Y-126594997D01*
X126048306Y-126711803D01*
X126135149Y-126756051D01*
X126225367Y-126802021D01*
X126225370Y-126802022D01*
X126274328Y-126817929D01*
X126414364Y-126863429D01*
X126610639Y-126894516D01*
X126610640Y-126894516D01*
X126809360Y-126894516D01*
X126809361Y-126894516D01*
X127005636Y-126863429D01*
X127194632Y-126802021D01*
X127371694Y-126711803D01*
X127532464Y-126594997D01*
X127672981Y-126454480D01*
X127789787Y-126293710D01*
X127869515Y-126137234D01*
X127917490Y-126086439D01*
X127985311Y-126069644D01*
X128051446Y-126092181D01*
X128090484Y-126137234D01*
X128170213Y-126293710D01*
X128287019Y-126454480D01*
X128427536Y-126594997D01*
X128588306Y-126711803D01*
X128675149Y-126756051D01*
X128765367Y-126802021D01*
X128765370Y-126802022D01*
X128814328Y-126817929D01*
X128954364Y-126863429D01*
X129150639Y-126894516D01*
X129150640Y-126894516D01*
X129349360Y-126894516D01*
X129349361Y-126894516D01*
X129545636Y-126863429D01*
X129734632Y-126802021D01*
X129911694Y-126711803D01*
X130072464Y-126594997D01*
X130212981Y-126454480D01*
X130329787Y-126293710D01*
X130420005Y-126116648D01*
X130481413Y-125927652D01*
X130512500Y-125731377D01*
X130512500Y-125532655D01*
X130481413Y-125336380D01*
X130431769Y-125183589D01*
X130420006Y-125147386D01*
X130420005Y-125147383D01*
X130329786Y-124970321D01*
X130282507Y-124905247D01*
X130212981Y-124809552D01*
X130072464Y-124669035D01*
X129911694Y-124552229D01*
X129755218Y-124472500D01*
X129704423Y-124424526D01*
X129687628Y-124356705D01*
X129710165Y-124290570D01*
X129755218Y-124251531D01*
X129911694Y-124171803D01*
X130072464Y-124054997D01*
X130212981Y-123914480D01*
X130329787Y-123753710D01*
X130420005Y-123576648D01*
X130481413Y-123387652D01*
X130512500Y-123191377D01*
X130512500Y-122992655D01*
X130481413Y-122796380D01*
X130420005Y-122607384D01*
X130420005Y-122607383D01*
X130374035Y-122517165D01*
X130329787Y-122430322D01*
X130212981Y-122269552D01*
X130072464Y-122129035D01*
X129911694Y-122012229D01*
X129911692Y-122012228D01*
X129734632Y-121922010D01*
X129734629Y-121922009D01*
X129545637Y-121860603D01*
X129447498Y-121845059D01*
X129349361Y-121829516D01*
X129150639Y-121829516D01*
X129085214Y-121839878D01*
X128954362Y-121860603D01*
X128765370Y-121922009D01*
X128765367Y-121922010D01*
X128588305Y-122012229D01*
X128427533Y-122129037D01*
X128287021Y-122269549D01*
X128170213Y-122430321D01*
X128090485Y-122586796D01*
X128042510Y-122637592D01*
X127974689Y-122654387D01*
X127908554Y-122631849D01*
X127869515Y-122586796D01*
X127850179Y-122548848D01*
X127789787Y-122430322D01*
X127672981Y-122269552D01*
X127532464Y-122129035D01*
X127371694Y-122012229D01*
X127371692Y-122012228D01*
X127194632Y-121922010D01*
X127194629Y-121922009D01*
X127005637Y-121860603D01*
X126907498Y-121845059D01*
X126809361Y-121829516D01*
X126610639Y-121829516D01*
X126545214Y-121839878D01*
X126414362Y-121860603D01*
X126225370Y-121922009D01*
X126225367Y-121922010D01*
X126048305Y-122012229D01*
X125887533Y-122129037D01*
X125747021Y-122269549D01*
X125630213Y-122430321D01*
X125550485Y-122586796D01*
X125502510Y-122637592D01*
X125434689Y-122654387D01*
X125368554Y-122631849D01*
X125329515Y-122586796D01*
X125310179Y-122548848D01*
X125249787Y-122430322D01*
X125132981Y-122269552D01*
X124992464Y-122129035D01*
X124831694Y-122012229D01*
X124831692Y-122012228D01*
X124654632Y-121922010D01*
X124654629Y-121922009D01*
X124465637Y-121860603D01*
X124367498Y-121845059D01*
X124269361Y-121829516D01*
X124070639Y-121829516D01*
X124005214Y-121839878D01*
X123874362Y-121860603D01*
X123685370Y-121922009D01*
X123685367Y-121922010D01*
X123508305Y-122012229D01*
X123347533Y-122129037D01*
X123207021Y-122269549D01*
X123090213Y-122430321D01*
X123010485Y-122586796D01*
X122962510Y-122637592D01*
X122894689Y-122654387D01*
X122828554Y-122631849D01*
X122789515Y-122586796D01*
X122770179Y-122548848D01*
X122709787Y-122430322D01*
X122592981Y-122269552D01*
X122452464Y-122129035D01*
X122291694Y-122012229D01*
X122291692Y-122012228D01*
X122114632Y-121922010D01*
X122114629Y-121922009D01*
X121925637Y-121860603D01*
X121827498Y-121845059D01*
X121729361Y-121829516D01*
X121530639Y-121829516D01*
X121465214Y-121839878D01*
X121334362Y-121860603D01*
X121145370Y-121922009D01*
X121145367Y-121922010D01*
X120968305Y-122012229D01*
X120807533Y-122129037D01*
X120667021Y-122269549D01*
X120550213Y-122430321D01*
X120470485Y-122586796D01*
X120422510Y-122637592D01*
X120354689Y-122654387D01*
X120288554Y-122631849D01*
X120249515Y-122586796D01*
X120230179Y-122548848D01*
X120169787Y-122430322D01*
X120052981Y-122269552D01*
X119912464Y-122129035D01*
X119751694Y-122012229D01*
X119751692Y-122012228D01*
X119574632Y-121922010D01*
X119574629Y-121922009D01*
X119385637Y-121860603D01*
X119287498Y-121845059D01*
X119189361Y-121829516D01*
X118990639Y-121829516D01*
X118925214Y-121839878D01*
X118794362Y-121860603D01*
X118605370Y-121922009D01*
X118605367Y-121922010D01*
X118428305Y-122012229D01*
X118267533Y-122129037D01*
X118127021Y-122269549D01*
X118010213Y-122430321D01*
X117930485Y-122586796D01*
X117882510Y-122637592D01*
X117814689Y-122654387D01*
X117748554Y-122631849D01*
X117709515Y-122586796D01*
X117690179Y-122548848D01*
X117629787Y-122430322D01*
X117512981Y-122269552D01*
X117372464Y-122129035D01*
X117211694Y-122012229D01*
X117211692Y-122012228D01*
X117034632Y-121922010D01*
X117034629Y-121922009D01*
X116845637Y-121860603D01*
X116747498Y-121845059D01*
X116649361Y-121829516D01*
X116450639Y-121829516D01*
X116385214Y-121839878D01*
X116254362Y-121860603D01*
X116065370Y-121922009D01*
X116065367Y-121922010D01*
X115888305Y-122012229D01*
X115727533Y-122129037D01*
X115587021Y-122269549D01*
X115470213Y-122430321D01*
X115390485Y-122586796D01*
X115342510Y-122637592D01*
X115274689Y-122654387D01*
X115208554Y-122631849D01*
X115169515Y-122586796D01*
X115150179Y-122548848D01*
X115089787Y-122430322D01*
X114972981Y-122269552D01*
X114832464Y-122129035D01*
X114671694Y-122012229D01*
X114671692Y-122012228D01*
X114494632Y-121922010D01*
X114494629Y-121922009D01*
X114305637Y-121860603D01*
X114207498Y-121845059D01*
X114109361Y-121829516D01*
X113910639Y-121829516D01*
X113845214Y-121839878D01*
X113714362Y-121860603D01*
X113525370Y-121922009D01*
X113525367Y-121922010D01*
X113348305Y-122012229D01*
X113187533Y-122129037D01*
X113047021Y-122269549D01*
X112930213Y-122430321D01*
X112850485Y-122586796D01*
X112802510Y-122637592D01*
X112734689Y-122654387D01*
X112668554Y-122631849D01*
X112629515Y-122586796D01*
X112610179Y-122548848D01*
X112549787Y-122430322D01*
X112432981Y-122269552D01*
X112292464Y-122129035D01*
X112131694Y-122012229D01*
X112131692Y-122012228D01*
X111954632Y-121922010D01*
X111954629Y-121922009D01*
X111765637Y-121860603D01*
X111667498Y-121845059D01*
X111569361Y-121829516D01*
X111370639Y-121829516D01*
X111305214Y-121839878D01*
X111174362Y-121860603D01*
X110985370Y-121922009D01*
X110985367Y-121922010D01*
X110808305Y-122012229D01*
X110647533Y-122129037D01*
X110507021Y-122269549D01*
X110390213Y-122430321D01*
X110310485Y-122586796D01*
X110262510Y-122637592D01*
X110194689Y-122654387D01*
X110128554Y-122631849D01*
X110089515Y-122586796D01*
X110070179Y-122548848D01*
X110009787Y-122430322D01*
X109892981Y-122269552D01*
X109752464Y-122129035D01*
X109591694Y-122012229D01*
X109591692Y-122012228D01*
X109414632Y-121922010D01*
X109414629Y-121922009D01*
X109225637Y-121860603D01*
X109127498Y-121845059D01*
X109029361Y-121829516D01*
X108830639Y-121829516D01*
X108765214Y-121839878D01*
X108634362Y-121860603D01*
X108445370Y-121922009D01*
X108445367Y-121922010D01*
X108268305Y-122012229D01*
X108107533Y-122129037D01*
X107967021Y-122269549D01*
X107850213Y-122430321D01*
X107770485Y-122586796D01*
X107722510Y-122637592D01*
X107654689Y-122654387D01*
X107588554Y-122631849D01*
X107549515Y-122586796D01*
X107530179Y-122548848D01*
X107469787Y-122430322D01*
X107352981Y-122269552D01*
X107212464Y-122129035D01*
X107051694Y-122012229D01*
X107051692Y-122012228D01*
X106874632Y-121922010D01*
X106874629Y-121922009D01*
X106685637Y-121860603D01*
X106587498Y-121845059D01*
X106489361Y-121829516D01*
X106290639Y-121829516D01*
X106225214Y-121839878D01*
X106094362Y-121860603D01*
X105905370Y-121922009D01*
X105905367Y-121922010D01*
X105728305Y-122012229D01*
X105567533Y-122129037D01*
X105427021Y-122269549D01*
X105310213Y-122430321D01*
X105230485Y-122586796D01*
X105182510Y-122637592D01*
X105114689Y-122654387D01*
X105048554Y-122631849D01*
X105009515Y-122586796D01*
X104990179Y-122548848D01*
X104929787Y-122430322D01*
X104812981Y-122269552D01*
X104672464Y-122129035D01*
X104511694Y-122012229D01*
X104511692Y-122012228D01*
X104334632Y-121922010D01*
X104334629Y-121922009D01*
X104145637Y-121860603D01*
X104047498Y-121845059D01*
X103949361Y-121829516D01*
X103750639Y-121829516D01*
X103685214Y-121839878D01*
X103554362Y-121860603D01*
X103365370Y-121922009D01*
X103365367Y-121922010D01*
X103188305Y-122012229D01*
X103027533Y-122129037D01*
X102887021Y-122269549D01*
X102770213Y-122430321D01*
X102690485Y-122586796D01*
X102642510Y-122637592D01*
X102574689Y-122654387D01*
X102508554Y-122631849D01*
X102469515Y-122586796D01*
X102450179Y-122548848D01*
X102389787Y-122430322D01*
X102272981Y-122269552D01*
X102132464Y-122129035D01*
X101971694Y-122012229D01*
X101971692Y-122012228D01*
X101794632Y-121922010D01*
X101794629Y-121922009D01*
X101605637Y-121860603D01*
X101507498Y-121845059D01*
X101409361Y-121829516D01*
X101210639Y-121829516D01*
X101145214Y-121839878D01*
X101014362Y-121860603D01*
X100825370Y-121922009D01*
X100825367Y-121922010D01*
X100648305Y-122012229D01*
X100487533Y-122129037D01*
X100347021Y-122269549D01*
X100230213Y-122430321D01*
X100150485Y-122586796D01*
X100102510Y-122637592D01*
X100034689Y-122654387D01*
X99968554Y-122631849D01*
X99929515Y-122586796D01*
X99910179Y-122548848D01*
X99849787Y-122430322D01*
X99732981Y-122269552D01*
X99592464Y-122129035D01*
X99431694Y-122012229D01*
X99431692Y-122012228D01*
X99254632Y-121922010D01*
X99254629Y-121922009D01*
X99065637Y-121860603D01*
X98967498Y-121845059D01*
X98869361Y-121829516D01*
X98670639Y-121829516D01*
X98605214Y-121839878D01*
X98474362Y-121860603D01*
X98285370Y-121922009D01*
X98285367Y-121922010D01*
X98108305Y-122012229D01*
X97947533Y-122129037D01*
X97807021Y-122269549D01*
X97690213Y-122430321D01*
X97610485Y-122586796D01*
X97562510Y-122637592D01*
X97494689Y-122654387D01*
X97428554Y-122631849D01*
X97389515Y-122586796D01*
X97370179Y-122548848D01*
X97309787Y-122430322D01*
X97192981Y-122269552D01*
X97052464Y-122129035D01*
X96891694Y-122012229D01*
X96891692Y-122012228D01*
X96714632Y-121922010D01*
X96714629Y-121922009D01*
X96525637Y-121860603D01*
X96427498Y-121845059D01*
X96329361Y-121829516D01*
X96130639Y-121829516D01*
X96065214Y-121839878D01*
X95934362Y-121860603D01*
X95745370Y-121922009D01*
X95745367Y-121922010D01*
X95568306Y-122012228D01*
X95500385Y-122061576D01*
X95434578Y-122085055D01*
X95366524Y-122069229D01*
X95317830Y-122019123D01*
X95303500Y-121961257D01*
X95303500Y-101853578D01*
X95323185Y-101786539D01*
X95339819Y-101765897D01*
X100362476Y-96743240D01*
X105394563Y-91711153D01*
X106169500Y-91711153D01*
X106169500Y-91868846D01*
X106200261Y-92023489D01*
X106200264Y-92023501D01*
X106260602Y-92169172D01*
X106260609Y-92169185D01*
X106348210Y-92300288D01*
X106348213Y-92300292D01*
X106459707Y-92411786D01*
X106459711Y-92411789D01*
X106590814Y-92499390D01*
X106590827Y-92499397D01*
X106736498Y-92559735D01*
X106736503Y-92559737D01*
X106801147Y-92572595D01*
X106891849Y-92590638D01*
X106953760Y-92623023D01*
X106955339Y-92624574D01*
X130683004Y-116352239D01*
X130716489Y-116413562D01*
X130711505Y-116483254D01*
X130670809Y-116538296D01*
X130567263Y-116617749D01*
X130567256Y-116617755D01*
X130395739Y-116789272D01*
X130395733Y-116789279D01*
X130248067Y-116981722D01*
X130126777Y-117191801D01*
X130126773Y-117191810D01*
X130033947Y-117415911D01*
X129971161Y-117650230D01*
X129939500Y-117890727D01*
X129939500Y-118133304D01*
X129968036Y-118350067D01*
X129971162Y-118373805D01*
X130002554Y-118490960D01*
X130033947Y-118608120D01*
X130079957Y-118719197D01*
X130126776Y-118832228D01*
X130248064Y-119042305D01*
X130248066Y-119042308D01*
X130248067Y-119042309D01*
X130395733Y-119234752D01*
X130395739Y-119234759D01*
X130567256Y-119406276D01*
X130567263Y-119406282D01*
X130646730Y-119467259D01*
X130759711Y-119553952D01*
X130969788Y-119675240D01*
X131193900Y-119768070D01*
X131428211Y-119830854D01*
X131608586Y-119854600D01*
X131668711Y-119862516D01*
X131668712Y-119862516D01*
X131911289Y-119862516D01*
X131959388Y-119856183D01*
X132151789Y-119830854D01*
X132386100Y-119768070D01*
X132610212Y-119675240D01*
X132820289Y-119553952D01*
X133012738Y-119406281D01*
X133184265Y-119234754D01*
X133331936Y-119042305D01*
X133453224Y-118832228D01*
X133546054Y-118608116D01*
X133608838Y-118373805D01*
X133640500Y-118133304D01*
X133640500Y-117890728D01*
X133608838Y-117650227D01*
X133546054Y-117415916D01*
X133453224Y-117191804D01*
X133331936Y-116981727D01*
X133239301Y-116861002D01*
X133214107Y-116795833D01*
X133228145Y-116727388D01*
X133276959Y-116677399D01*
X133337677Y-116661516D01*
X159810919Y-116661516D01*
X159877958Y-116681201D01*
X159898600Y-116697835D01*
X164720139Y-121519375D01*
X164753624Y-121580698D01*
X164754931Y-121626453D01*
X164735500Y-121749138D01*
X164735500Y-121930860D01*
X164763928Y-122110347D01*
X164763928Y-122110350D01*
X164820081Y-122283171D01*
X164820083Y-122283174D01*
X164902583Y-122445090D01*
X165009397Y-122592106D01*
X165009399Y-122592108D01*
X165137894Y-122720603D01*
X165164155Y-122739683D01*
X165206820Y-122795014D01*
X165212798Y-122864627D01*
X165180191Y-122926422D01*
X165164155Y-122940317D01*
X165137894Y-122959396D01*
X165009399Y-123087891D01*
X165009399Y-123087892D01*
X165009397Y-123087894D01*
X164963525Y-123151030D01*
X164902583Y-123234909D01*
X164820083Y-123396825D01*
X164820081Y-123396828D01*
X164763928Y-123569649D01*
X164763928Y-123569652D01*
X164735500Y-123749139D01*
X164735500Y-123930860D01*
X164763928Y-124110347D01*
X164763928Y-124110350D01*
X164820081Y-124283171D01*
X164820083Y-124283174D01*
X164902583Y-124445090D01*
X165009397Y-124592106D01*
X165137894Y-124720603D01*
X165284910Y-124827417D01*
X165380656Y-124876202D01*
X165437660Y-124905247D01*
X165488456Y-124953222D01*
X165505251Y-125021043D01*
X165482714Y-125087178D01*
X165427998Y-125130629D01*
X165419683Y-125133663D01*
X165266027Y-125183588D01*
X165266024Y-125183589D01*
X165038049Y-125299750D01*
X164831064Y-125450132D01*
X164831059Y-125450136D01*
X164650136Y-125631059D01*
X164650132Y-125631064D01*
X164499750Y-125838049D01*
X164383589Y-126066024D01*
X164383588Y-126066027D01*
X164304526Y-126309359D01*
X164264500Y-126562070D01*
X164264500Y-126817930D01*
X164276630Y-126894516D01*
X164304526Y-127070640D01*
X164383588Y-127313972D01*
X164383589Y-127313975D01*
X164499750Y-127541950D01*
X164650132Y-127748935D01*
X164650136Y-127748940D01*
X164831059Y-127929863D01*
X164831064Y-127929867D01*
X165011607Y-128061038D01*
X165038053Y-128080252D01*
X165187080Y-128156185D01*
X165266024Y-128196410D01*
X165266027Y-128196411D01*
X165340490Y-128220605D01*
X165509361Y-128275474D01*
X165762070Y-128315500D01*
X165762071Y-128315500D01*
X166017929Y-128315500D01*
X166017930Y-128315500D01*
X166270639Y-128275474D01*
X166513975Y-128196410D01*
X166741947Y-128080252D01*
X166948942Y-127929862D01*
X167129862Y-127748942D01*
X167280252Y-127541947D01*
X167396410Y-127313975D01*
X167475474Y-127070639D01*
X167515500Y-126817930D01*
X167515500Y-126562070D01*
X167475474Y-126309361D01*
X167412858Y-126116648D01*
X167396411Y-126066027D01*
X167396410Y-126066024D01*
X167356185Y-125987080D01*
X167280252Y-125838053D01*
X167202747Y-125731376D01*
X167129867Y-125631064D01*
X167129863Y-125631059D01*
X166948940Y-125450136D01*
X166948935Y-125450132D01*
X166741950Y-125299750D01*
X166741949Y-125299749D01*
X166741947Y-125299748D01*
X166668910Y-125262533D01*
X166513975Y-125183589D01*
X166513972Y-125183588D01*
X166360316Y-125133663D01*
X166302641Y-125094226D01*
X166275442Y-125029867D01*
X166287357Y-124961021D01*
X166334601Y-124909545D01*
X166342339Y-124905247D01*
X166495090Y-124827417D01*
X166642106Y-124720603D01*
X166770603Y-124592106D01*
X166877417Y-124445090D01*
X166959917Y-124283174D01*
X166979542Y-124222774D01*
X167016071Y-124110350D01*
X167016071Y-124110349D01*
X167016072Y-124110346D01*
X167044500Y-123930861D01*
X167044500Y-123749139D01*
X167016072Y-123569654D01*
X167016071Y-123569650D01*
X167016071Y-123569649D01*
X166959918Y-123396828D01*
X166959916Y-123396825D01*
X166955243Y-123387652D01*
X166877417Y-123234910D01*
X166770603Y-123087894D01*
X166642106Y-122959397D01*
X166615845Y-122940317D01*
X166573180Y-122884988D01*
X166567201Y-122815375D01*
X166599807Y-122753580D01*
X166615846Y-122739682D01*
X166642106Y-122720603D01*
X166770603Y-122592106D01*
X166877417Y-122445090D01*
X166959917Y-122283174D01*
X167016072Y-122110346D01*
X167044500Y-121930861D01*
X167044500Y-121749139D01*
X167016072Y-121569654D01*
X167016071Y-121569650D01*
X167016071Y-121569649D01*
X166959918Y-121396828D01*
X166959916Y-121396825D01*
X166877416Y-121234909D01*
X166770603Y-121087894D01*
X166642106Y-120959397D01*
X166563889Y-120902569D01*
X166521226Y-120847241D01*
X166517341Y-120820895D01*
X165936446Y-120240000D01*
X165942661Y-120240000D01*
X166044394Y-120212741D01*
X166135606Y-120160080D01*
X166210080Y-120085606D01*
X166262741Y-119994394D01*
X166290000Y-119892661D01*
X166290000Y-119886446D01*
X166864949Y-120461395D01*
X166876986Y-120444831D01*
X166959451Y-120282984D01*
X167015584Y-120110225D01*
X167044000Y-119930821D01*
X167044000Y-119749178D01*
X167015584Y-119569774D01*
X166959450Y-119397012D01*
X166876993Y-119235179D01*
X166876985Y-119235165D01*
X166864950Y-119218603D01*
X166864949Y-119218602D01*
X166290000Y-119793552D01*
X166290000Y-119787339D01*
X166262741Y-119685606D01*
X166210080Y-119594394D01*
X166135606Y-119519920D01*
X166044394Y-119467259D01*
X165942661Y-119440000D01*
X165936447Y-119440000D01*
X166511396Y-118865049D01*
X166511395Y-118865048D01*
X166494834Y-118853014D01*
X166494830Y-118853012D01*
X166341665Y-118774971D01*
X166290869Y-118726997D01*
X166274074Y-118659176D01*
X166296611Y-118593041D01*
X166351326Y-118549589D01*
X166359643Y-118546555D01*
X166513969Y-118496412D01*
X166513975Y-118496410D01*
X166741947Y-118380252D01*
X166948942Y-118229862D01*
X167129862Y-118048942D01*
X167280252Y-117841947D01*
X167396410Y-117613975D01*
X167475474Y-117370639D01*
X167515500Y-117117930D01*
X167515500Y-116862070D01*
X167475474Y-116609361D01*
X167425327Y-116455024D01*
X167396411Y-116366027D01*
X167396410Y-116366024D01*
X167335384Y-116246255D01*
X167280252Y-116138053D01*
X167205874Y-116035680D01*
X167129867Y-115931064D01*
X167129863Y-115931059D01*
X166948940Y-115750136D01*
X166948935Y-115750132D01*
X166741950Y-115599750D01*
X166741949Y-115599749D01*
X166741947Y-115599748D01*
X166668910Y-115562533D01*
X166513975Y-115483589D01*
X166513972Y-115483588D01*
X166270640Y-115404526D01*
X166144284Y-115384513D01*
X166017930Y-115364500D01*
X165762070Y-115364500D01*
X165677833Y-115377842D01*
X165509359Y-115404526D01*
X165266027Y-115483588D01*
X165266024Y-115483589D01*
X165038049Y-115599750D01*
X164831064Y-115750132D01*
X164831059Y-115750136D01*
X164650136Y-115931059D01*
X164650132Y-115931064D01*
X164499750Y-116138049D01*
X164383589Y-116366024D01*
X164383588Y-116366027D01*
X164304526Y-116609359D01*
X164285832Y-116727388D01*
X164264500Y-116862070D01*
X164264500Y-117117930D01*
X164274163Y-117178938D01*
X164304526Y-117370640D01*
X164383588Y-117613972D01*
X164383589Y-117613975D01*
X164499750Y-117841950D01*
X164650132Y-118048935D01*
X164650136Y-118048940D01*
X164831059Y-118229863D01*
X164831064Y-118229867D01*
X164873537Y-118260725D01*
X165038053Y-118380252D01*
X165187080Y-118456185D01*
X165266024Y-118496410D01*
X165266027Y-118496411D01*
X165420357Y-118546555D01*
X165478032Y-118585992D01*
X165505231Y-118650350D01*
X165493317Y-118719197D01*
X165446073Y-118770673D01*
X165438334Y-118774971D01*
X165285170Y-118853012D01*
X165285161Y-118853018D01*
X165268603Y-118865048D01*
X165268602Y-118865049D01*
X165843554Y-119440000D01*
X165837339Y-119440000D01*
X165735606Y-119467259D01*
X165644394Y-119519920D01*
X165569920Y-119594394D01*
X165517259Y-119685606D01*
X165490000Y-119787339D01*
X165490000Y-119793553D01*
X164915049Y-119218602D01*
X164915048Y-119218603D01*
X164903018Y-119235161D01*
X164903012Y-119235170D01*
X164820548Y-119397015D01*
X164764415Y-119569772D01*
X164762095Y-119584424D01*
X164732164Y-119647558D01*
X164672852Y-119684488D01*
X164602990Y-119683489D01*
X164551941Y-119652705D01*
X163219349Y-118320113D01*
X160598605Y-115699370D01*
X160598604Y-115699368D01*
X160479733Y-115580497D01*
X160479732Y-115580496D01*
X160392920Y-115530376D01*
X160392920Y-115530375D01*
X160392916Y-115530374D01*
X160342801Y-115501439D01*
X160190073Y-115460515D01*
X160031959Y-115460515D01*
X160024363Y-115460515D01*
X160024347Y-115460516D01*
X131541113Y-115460516D01*
X131474074Y-115440831D01*
X131453432Y-115424197D01*
X124515969Y-108486734D01*
X148977591Y-108486734D01*
X148977591Y-108767597D01*
X149009033Y-109046660D01*
X149009036Y-109046678D01*
X149071530Y-109320483D01*
X149071534Y-109320495D01*
X149164291Y-109585577D01*
X149286144Y-109838608D01*
X149286146Y-109838611D01*
X149435568Y-110076414D01*
X149610675Y-110295991D01*
X149809266Y-110494582D01*
X150028843Y-110669689D01*
X150266646Y-110819111D01*
X150519683Y-110940967D01*
X150718771Y-111010631D01*
X150784761Y-111033722D01*
X150784773Y-111033726D01*
X151058582Y-111096221D01*
X151058588Y-111096221D01*
X151058596Y-111096223D01*
X151244638Y-111117184D01*
X151337660Y-111127665D01*
X151337663Y-111127666D01*
X151337666Y-111127666D01*
X151618519Y-111127666D01*
X151618520Y-111127665D01*
X151761146Y-111111595D01*
X151897585Y-111096223D01*
X151897590Y-111096222D01*
X151897600Y-111096221D01*
X152171409Y-111033726D01*
X152436499Y-110940967D01*
X152689536Y-110819111D01*
X152927339Y-110669689D01*
X153146916Y-110494582D01*
X153345507Y-110295991D01*
X153520614Y-110076414D01*
X153670036Y-109838611D01*
X153791892Y-109585574D01*
X153884651Y-109320484D01*
X153947146Y-109046675D01*
X153978591Y-108767591D01*
X153978591Y-108486741D01*
X153947146Y-108207657D01*
X153884651Y-107933848D01*
X153791892Y-107668758D01*
X153670036Y-107415721D01*
X153520614Y-107177918D01*
X153345507Y-106958341D01*
X153146916Y-106759750D01*
X152927339Y-106584643D01*
X152689536Y-106435221D01*
X152689533Y-106435219D01*
X152436502Y-106313366D01*
X152171420Y-106220609D01*
X152171408Y-106220605D01*
X151897603Y-106158111D01*
X151897585Y-106158108D01*
X151618522Y-106126666D01*
X151618516Y-106126666D01*
X151337666Y-106126666D01*
X151337659Y-106126666D01*
X151058596Y-106158108D01*
X151058578Y-106158111D01*
X150784773Y-106220605D01*
X150784761Y-106220609D01*
X150519679Y-106313366D01*
X150266648Y-106435219D01*
X150028844Y-106584642D01*
X149809266Y-106759749D01*
X149610674Y-106958341D01*
X149435567Y-107177919D01*
X149286144Y-107415723D01*
X149164291Y-107668754D01*
X149071534Y-107933836D01*
X149071530Y-107933848D01*
X149009036Y-108207653D01*
X149009033Y-108207671D01*
X148977591Y-108486734D01*
X124515969Y-108486734D01*
X107804574Y-91775339D01*
X107771089Y-91714016D01*
X107770638Y-91711849D01*
X107744181Y-91578844D01*
X107739737Y-91556503D01*
X107739735Y-91556498D01*
X107679397Y-91410827D01*
X107679390Y-91410814D01*
X107591789Y-91279711D01*
X107591786Y-91279707D01*
X107480292Y-91168213D01*
X107480288Y-91168210D01*
X107349185Y-91080609D01*
X107349172Y-91080602D01*
X107203501Y-91020264D01*
X107203489Y-91020261D01*
X107048845Y-90989500D01*
X107048842Y-90989500D01*
X106891158Y-90989500D01*
X106891155Y-90989500D01*
X106736510Y-91020261D01*
X106736498Y-91020264D01*
X106590827Y-91080602D01*
X106590814Y-91080609D01*
X106459711Y-91168210D01*
X106459707Y-91168213D01*
X106348213Y-91279707D01*
X106348210Y-91279711D01*
X106260609Y-91410814D01*
X106260602Y-91410827D01*
X106200264Y-91556498D01*
X106200261Y-91556510D01*
X106169500Y-91711153D01*
X105394563Y-91711153D01*
X111508453Y-85597262D01*
X111569774Y-85563779D01*
X111639466Y-85568763D01*
X111695399Y-85610635D01*
X111719816Y-85676099D01*
X111717749Y-85709136D01*
X111689500Y-85851153D01*
X111689500Y-86008846D01*
X111720261Y-86163489D01*
X111720264Y-86163501D01*
X111780602Y-86309172D01*
X111780609Y-86309185D01*
X111868210Y-86440288D01*
X111868213Y-86440292D01*
X111979707Y-86551786D01*
X111979711Y-86551789D01*
X112110814Y-86639390D01*
X112110827Y-86639397D01*
X112256498Y-86699735D01*
X112256503Y-86699737D01*
X112321147Y-86712595D01*
X112411849Y-86730638D01*
X112473760Y-86763023D01*
X112475338Y-86764573D01*
X127571284Y-101860520D01*
X127571286Y-101860521D01*
X127571290Y-101860524D01*
X127623599Y-101890724D01*
X127708216Y-101939577D01*
X127860943Y-101980501D01*
X127860945Y-101980501D01*
X128026654Y-101980501D01*
X128026670Y-101980500D01*
X131240234Y-101980500D01*
X131307273Y-102000185D01*
X131309125Y-102001398D01*
X131440814Y-102089390D01*
X131440827Y-102089397D01*
X131586498Y-102149735D01*
X131586503Y-102149737D01*
X131718088Y-102175911D01*
X131741153Y-102180499D01*
X131741156Y-102180500D01*
X131741158Y-102180500D01*
X131898844Y-102180500D01*
X131898845Y-102180499D01*
X132053497Y-102149737D01*
X132199179Y-102089394D01*
X132330289Y-102001789D01*
X132441789Y-101890289D01*
X132529394Y-101759179D01*
X132539109Y-101735726D01*
X132554647Y-101698213D01*
X132589737Y-101613497D01*
X132620500Y-101458842D01*
X132620500Y-101301158D01*
X132620500Y-101301155D01*
X132620499Y-101301153D01*
X132606362Y-101230083D01*
X132589737Y-101146503D01*
X132574117Y-101108792D01*
X132529397Y-101000827D01*
X132529390Y-101000814D01*
X132441789Y-100869711D01*
X132441786Y-100869707D01*
X132421961Y-100849882D01*
X132388476Y-100788559D01*
X132393460Y-100718867D01*
X132395062Y-100714795D01*
X132428737Y-100633497D01*
X132459500Y-100478842D01*
X132459500Y-100321158D01*
X132459500Y-100321155D01*
X132451053Y-100278692D01*
X132457280Y-100209101D01*
X132500142Y-100153923D01*
X132566032Y-100130678D01*
X132572670Y-100130500D01*
X133813331Y-100130500D01*
X133813347Y-100130501D01*
X133820943Y-100130501D01*
X133979054Y-100130501D01*
X133979057Y-100130501D01*
X134131785Y-100089577D01*
X134190465Y-100055698D01*
X134268716Y-100010520D01*
X134340338Y-99938897D01*
X134346682Y-99934012D01*
X134372075Y-99924143D01*
X134395984Y-99911088D01*
X134398152Y-99910637D01*
X134398841Y-99910500D01*
X134398842Y-99910500D01*
X134553497Y-99879737D01*
X134679952Y-99827358D01*
X134699172Y-99819397D01*
X134699172Y-99819396D01*
X134699179Y-99819394D01*
X134830289Y-99731789D01*
X134941789Y-99620289D01*
X135029394Y-99489179D01*
X135089737Y-99343497D01*
X135120500Y-99188842D01*
X135120500Y-99031158D01*
X135120500Y-99031155D01*
X135120499Y-99031153D01*
X135114558Y-99001288D01*
X135089737Y-98876503D01*
X135078584Y-98849576D01*
X135042289Y-98761952D01*
X135034820Y-98692483D01*
X135066095Y-98630004D01*
X135126184Y-98594352D01*
X135156850Y-98590500D01*
X136141982Y-98590500D01*
X136209021Y-98610185D01*
X136245086Y-98645612D01*
X136248211Y-98650290D01*
X136359707Y-98761786D01*
X136359711Y-98761789D01*
X136490814Y-98849390D01*
X136490827Y-98849397D01*
X136632816Y-98908210D01*
X136636503Y-98909737D01*
X136791153Y-98940499D01*
X136791156Y-98940500D01*
X136791158Y-98940500D01*
X136948844Y-98940500D01*
X136948845Y-98940499D01*
X137103497Y-98909737D01*
X137249179Y-98849394D01*
X137380289Y-98761789D01*
X137491789Y-98650289D01*
X137579394Y-98519179D01*
X137639737Y-98373497D01*
X137670500Y-98218842D01*
X137670500Y-98061158D01*
X137670500Y-98061155D01*
X137670499Y-98061153D01*
X137658282Y-97999735D01*
X137639737Y-97906503D01*
X137588103Y-97781846D01*
X137579397Y-97760827D01*
X137579389Y-97760813D01*
X137561993Y-97734778D01*
X137541114Y-97668101D01*
X137559598Y-97600721D01*
X137611576Y-97554030D01*
X137680546Y-97542852D01*
X137689286Y-97544269D01*
X137821155Y-97570500D01*
X137821158Y-97570500D01*
X137978844Y-97570500D01*
X137978845Y-97570499D01*
X138133497Y-97539737D01*
X138278414Y-97479711D01*
X138279172Y-97479397D01*
X138279172Y-97479396D01*
X138279179Y-97479394D01*
X138410289Y-97391789D01*
X138521789Y-97280289D01*
X138609394Y-97149179D01*
X138611162Y-97144912D01*
X138623067Y-97116166D01*
X138669737Y-97003497D01*
X138700500Y-96848842D01*
X138700500Y-96691158D01*
X138700500Y-96691155D01*
X138700499Y-96691153D01*
X138698146Y-96679324D01*
X138669737Y-96536503D01*
X138637569Y-96458842D01*
X138609397Y-96390827D01*
X138609390Y-96390814D01*
X138521789Y-96259711D01*
X138521786Y-96259707D01*
X138410292Y-96148213D01*
X138410288Y-96148210D01*
X138279185Y-96060609D01*
X138279172Y-96060602D01*
X138133501Y-96000264D01*
X138133491Y-96000261D01*
X137978151Y-95969362D01*
X137931328Y-95949396D01*
X137922382Y-95943146D01*
X137878716Y-95899480D01*
X137774825Y-95839499D01*
X137770191Y-95836824D01*
X137770189Y-95836822D01*
X137741783Y-95820422D01*
X137685881Y-95805443D01*
X137589057Y-95779499D01*
X137430943Y-95779499D01*
X137423347Y-95779499D01*
X137423331Y-95779500D01*
X132891941Y-95779500D01*
X132824902Y-95759815D01*
X132779147Y-95707011D01*
X132769203Y-95637853D01*
X132798228Y-95574297D01*
X132800521Y-95571834D01*
X132801784Y-95570293D01*
X132801789Y-95570289D01*
X132889394Y-95439179D01*
X132949737Y-95293497D01*
X132980500Y-95138842D01*
X132980500Y-94981158D01*
X132980500Y-94981155D01*
X132980499Y-94981153D01*
X132959709Y-94876636D01*
X132949737Y-94826503D01*
X132949735Y-94826498D01*
X132889397Y-94680827D01*
X132889390Y-94680814D01*
X132801789Y-94549711D01*
X132801786Y-94549707D01*
X132690292Y-94438213D01*
X132690288Y-94438210D01*
X132633471Y-94400246D01*
X132626953Y-94392446D01*
X132617866Y-94387898D01*
X132604929Y-94366094D01*
X132588666Y-94346634D01*
X132587399Y-94336548D01*
X132582214Y-94327809D01*
X132583119Y-94302469D01*
X132581278Y-94287807D01*
X143000565Y-94287807D01*
X143000565Y-94517290D01*
X143022096Y-94680827D01*
X143030517Y-94744787D01*
X143066218Y-94878027D01*
X143089907Y-94966436D01*
X143177715Y-95178425D01*
X143177722Y-95178439D01*
X143292457Y-95377166D01*
X143432146Y-95559210D01*
X143432154Y-95559219D01*
X143594395Y-95721460D01*
X143594403Y-95721467D01*
X143594404Y-95721468D01*
X143631438Y-95749885D01*
X143776447Y-95861156D01*
X143776450Y-95861157D01*
X143776453Y-95861160D01*
X143975177Y-95975893D01*
X143975182Y-95975895D01*
X143975188Y-95975898D01*
X144066545Y-96013739D01*
X144187178Y-96063707D01*
X144408827Y-96123097D01*
X144636331Y-96153049D01*
X144636338Y-96153049D01*
X144865792Y-96153049D01*
X144865799Y-96153049D01*
X145093303Y-96123097D01*
X145314952Y-96063707D01*
X145526953Y-95975893D01*
X145725677Y-95861160D01*
X145907726Y-95721468D01*
X145907730Y-95721463D01*
X145907735Y-95721460D01*
X146069976Y-95559219D01*
X146069979Y-95559214D01*
X146069984Y-95559210D01*
X146209676Y-95377161D01*
X146324409Y-95178437D01*
X146412223Y-94966436D01*
X146471613Y-94744787D01*
X146501565Y-94517283D01*
X146501565Y-94287815D01*
X146471613Y-94060311D01*
X146412223Y-93838662D01*
X146348707Y-93685322D01*
X146324414Y-93626672D01*
X146324411Y-93626666D01*
X146324409Y-93626661D01*
X146209676Y-93427937D01*
X146209673Y-93427934D01*
X146209672Y-93427931D01*
X146069983Y-93245887D01*
X146069976Y-93245879D01*
X145907735Y-93083638D01*
X145907726Y-93083630D01*
X145725682Y-92943941D01*
X145717444Y-92939185D01*
X145526953Y-92829205D01*
X145526941Y-92829199D01*
X145314952Y-92741391D01*
X145232857Y-92719394D01*
X145093303Y-92682001D01*
X145055280Y-92676995D01*
X144865806Y-92652049D01*
X144865799Y-92652049D01*
X144636331Y-92652049D01*
X144636323Y-92652049D01*
X144432624Y-92678868D01*
X144408827Y-92682001D01*
X144405140Y-92682989D01*
X144187177Y-92741391D01*
X143975188Y-92829199D01*
X143975174Y-92829206D01*
X143776447Y-92943941D01*
X143594403Y-93083630D01*
X143432146Y-93245887D01*
X143292457Y-93427931D01*
X143177722Y-93626658D01*
X143177715Y-93626672D01*
X143089907Y-93838661D01*
X143074181Y-93897352D01*
X143032801Y-94051789D01*
X143030518Y-94060308D01*
X143030516Y-94060319D01*
X143000565Y-94287807D01*
X132581278Y-94287807D01*
X132579959Y-94277309D01*
X132584345Y-94268140D01*
X132584708Y-94257984D01*
X132599168Y-94237156D01*
X132610113Y-94214281D01*
X132619820Y-94207411D01*
X132624556Y-94200592D01*
X132654908Y-94182584D01*
X132759179Y-94139394D01*
X132890289Y-94051789D01*
X133001789Y-93940289D01*
X133089394Y-93809179D01*
X133149737Y-93663497D01*
X133180500Y-93508842D01*
X133180500Y-93351158D01*
X133180500Y-93351155D01*
X133180499Y-93351153D01*
X133176239Y-93329737D01*
X133149737Y-93196503D01*
X133143642Y-93181789D01*
X133089397Y-93050827D01*
X133089390Y-93050814D01*
X133001789Y-92919711D01*
X133001786Y-92919707D01*
X132890289Y-92808210D01*
X132888158Y-92806461D01*
X132887342Y-92805263D01*
X132885982Y-92803903D01*
X132886240Y-92803644D01*
X132848827Y-92748713D01*
X132846960Y-92678868D01*
X132879145Y-92622932D01*
X132981789Y-92520289D01*
X133069394Y-92389179D01*
X133129737Y-92243497D01*
X133160500Y-92088842D01*
X133160500Y-91931158D01*
X133160500Y-91931155D01*
X133160499Y-91931153D01*
X133152101Y-91888935D01*
X133129737Y-91776503D01*
X133111925Y-91733501D01*
X133069397Y-91630827D01*
X133069390Y-91630814D01*
X132981789Y-91499711D01*
X132981786Y-91499707D01*
X132870292Y-91388213D01*
X132870288Y-91388210D01*
X132739185Y-91300609D01*
X132739172Y-91300602D01*
X132669230Y-91271632D01*
X132614826Y-91227792D01*
X132592761Y-91161497D01*
X132610040Y-91093798D01*
X132661177Y-91046187D01*
X132669230Y-91042510D01*
X132749172Y-91009397D01*
X132749172Y-91009396D01*
X132749179Y-91009394D01*
X132880289Y-90921789D01*
X132991789Y-90810289D01*
X133079394Y-90679179D01*
X133139737Y-90533497D01*
X133164241Y-90410309D01*
X133196626Y-90348398D01*
X133257341Y-90313824D01*
X133285858Y-90310500D01*
X141269903Y-90310500D01*
X141336942Y-90330185D01*
X141357584Y-90346819D01*
X142525425Y-91514660D01*
X142558910Y-91575983D01*
X142559361Y-91578149D01*
X142590261Y-91733491D01*
X142590264Y-91733501D01*
X142650602Y-91879172D01*
X142650609Y-91879185D01*
X142738210Y-92010288D01*
X142738213Y-92010292D01*
X142849707Y-92121786D01*
X142849711Y-92121789D01*
X142980814Y-92209390D01*
X142980827Y-92209397D01*
X143126498Y-92269735D01*
X143126503Y-92269737D01*
X143210012Y-92286348D01*
X143281153Y-92300499D01*
X143281156Y-92300500D01*
X143281158Y-92300500D01*
X143438844Y-92300500D01*
X143438845Y-92300499D01*
X143593497Y-92269737D01*
X143739179Y-92209394D01*
X143870289Y-92121789D01*
X143981789Y-92010289D01*
X144069394Y-91879179D01*
X144129737Y-91733497D01*
X144160500Y-91578842D01*
X144160500Y-91421158D01*
X144160500Y-91421155D01*
X144160499Y-91421153D01*
X144139614Y-91316157D01*
X144129737Y-91266503D01*
X144126761Y-91259318D01*
X144069397Y-91120827D01*
X144069390Y-91120814D01*
X143981789Y-90989711D01*
X143981786Y-90989707D01*
X143870292Y-90878213D01*
X143870288Y-90878210D01*
X143739185Y-90790609D01*
X143739172Y-90790602D01*
X143593501Y-90730264D01*
X143593491Y-90730261D01*
X143438149Y-90699361D01*
X143376238Y-90666976D01*
X143374660Y-90665425D01*
X142057590Y-89348355D01*
X142057588Y-89348352D01*
X141938717Y-89229481D01*
X141938716Y-89229480D01*
X141851904Y-89179360D01*
X141851904Y-89179359D01*
X141851900Y-89179358D01*
X141801785Y-89150423D01*
X141649057Y-89109499D01*
X141490943Y-89109499D01*
X141483347Y-89109499D01*
X141483331Y-89109500D01*
X129989766Y-89109500D01*
X129922727Y-89089815D01*
X129920875Y-89088602D01*
X129789185Y-89000609D01*
X129789172Y-89000602D01*
X129643501Y-88940264D01*
X129643489Y-88940261D01*
X129488845Y-88909500D01*
X129488842Y-88909500D01*
X129331158Y-88909500D01*
X129331155Y-88909500D01*
X129176510Y-88940261D01*
X129176498Y-88940264D01*
X129030827Y-89000602D01*
X129030814Y-89000609D01*
X128899711Y-89088210D01*
X128899707Y-89088213D01*
X128788213Y-89199707D01*
X128788210Y-89199711D01*
X128700609Y-89330814D01*
X128700602Y-89330827D01*
X128640264Y-89476498D01*
X128640261Y-89476510D01*
X128609500Y-89631153D01*
X128609500Y-89788846D01*
X128640261Y-89943489D01*
X128640264Y-89943501D01*
X128700602Y-90089172D01*
X128700609Y-90089185D01*
X128788210Y-90220288D01*
X128788213Y-90220292D01*
X128899707Y-90331786D01*
X128899711Y-90331789D01*
X129035695Y-90422652D01*
X129080500Y-90476265D01*
X129089207Y-90545590D01*
X129061146Y-90604238D01*
X129062076Y-90605001D01*
X129058210Y-90609711D01*
X128970609Y-90740814D01*
X128970602Y-90740827D01*
X128910264Y-90886498D01*
X128910261Y-90886510D01*
X128879500Y-91041153D01*
X128879500Y-91198846D01*
X128910261Y-91353489D01*
X128910264Y-91353501D01*
X128970602Y-91499172D01*
X128970609Y-91499185D01*
X129058210Y-91630288D01*
X129058213Y-91630292D01*
X129169707Y-91741786D01*
X129169711Y-91741789D01*
X129287712Y-91820635D01*
X129332517Y-91874247D01*
X129341224Y-91943572D01*
X129311070Y-92006599D01*
X129306503Y-92011417D01*
X129268214Y-92049706D01*
X129268210Y-92049711D01*
X129180609Y-92180814D01*
X129180602Y-92180827D01*
X129120264Y-92326498D01*
X129120261Y-92326510D01*
X129089500Y-92481153D01*
X129089500Y-92638846D01*
X129120261Y-92793489D01*
X129120264Y-92793501D01*
X129180602Y-92939172D01*
X129180609Y-92939185D01*
X129268210Y-93070288D01*
X129268213Y-93070292D01*
X129379708Y-93181787D01*
X129379711Y-93181789D01*
X129404702Y-93198488D01*
X129449507Y-93252099D01*
X129458216Y-93321424D01*
X129428061Y-93384452D01*
X129404704Y-93404692D01*
X129279707Y-93488213D01*
X129168213Y-93599707D01*
X129168210Y-93599711D01*
X129080609Y-93730814D01*
X129080602Y-93730827D01*
X129020264Y-93876498D01*
X129020261Y-93876510D01*
X128989500Y-94031153D01*
X128989500Y-94188846D01*
X129020261Y-94343489D01*
X129020264Y-94343501D01*
X129080602Y-94489172D01*
X129080609Y-94489185D01*
X129168210Y-94620288D01*
X129168213Y-94620292D01*
X129279705Y-94731784D01*
X129281584Y-94733326D01*
X129282304Y-94734383D01*
X129284018Y-94736097D01*
X129283693Y-94736421D01*
X129320922Y-94791070D01*
X129322797Y-94860914D01*
X129317486Y-94876636D01*
X129280264Y-94966498D01*
X129280261Y-94966510D01*
X129249500Y-95121153D01*
X129249500Y-95278846D01*
X129280261Y-95433489D01*
X129280264Y-95433501D01*
X129340602Y-95579172D01*
X129340609Y-95579185D01*
X129428210Y-95710288D01*
X129428213Y-95710292D01*
X129450080Y-95732159D01*
X129483565Y-95793482D01*
X129478581Y-95863174D01*
X129465501Y-95888730D01*
X129390612Y-96000809D01*
X129390602Y-96000827D01*
X129330264Y-96146498D01*
X129330261Y-96146510D01*
X129299500Y-96301153D01*
X129299500Y-96458846D01*
X129330261Y-96613489D01*
X129330264Y-96613501D01*
X129390602Y-96759172D01*
X129390609Y-96759185D01*
X129478210Y-96890288D01*
X129478213Y-96890292D01*
X129589707Y-97001786D01*
X129589711Y-97001789D01*
X129639531Y-97035078D01*
X129684336Y-97088690D01*
X129693043Y-97158015D01*
X129662889Y-97221042D01*
X129618093Y-97252741D01*
X129550823Y-97280604D01*
X129550814Y-97280609D01*
X129419711Y-97368210D01*
X129419707Y-97368213D01*
X129308213Y-97479707D01*
X129308210Y-97479711D01*
X129220609Y-97610814D01*
X129220602Y-97610827D01*
X129160264Y-97756498D01*
X129160261Y-97756510D01*
X129129500Y-97911153D01*
X129129500Y-98068846D01*
X129160261Y-98223489D01*
X129160264Y-98223501D01*
X129220602Y-98369172D01*
X129220609Y-98369185D01*
X129308210Y-98500288D01*
X129308213Y-98500292D01*
X129419709Y-98611788D01*
X129427222Y-98616808D01*
X129472026Y-98670421D01*
X129480732Y-98739746D01*
X129450576Y-98802773D01*
X129427220Y-98823011D01*
X129299711Y-98908210D01*
X129299707Y-98908213D01*
X129188213Y-99019707D01*
X129188210Y-99019711D01*
X129100609Y-99150814D01*
X129100602Y-99150827D01*
X129040264Y-99296498D01*
X129040261Y-99296510D01*
X129009500Y-99451153D01*
X129009500Y-99608846D01*
X129040261Y-99763489D01*
X129040264Y-99763501D01*
X129100602Y-99909172D01*
X129100609Y-99909185D01*
X129175372Y-100021074D01*
X129196250Y-100087751D01*
X129177766Y-100155131D01*
X129175373Y-100158855D01*
X129120608Y-100240816D01*
X129120602Y-100240827D01*
X129060264Y-100386498D01*
X129060261Y-100386510D01*
X129029500Y-100541153D01*
X129029500Y-100655500D01*
X129009815Y-100722539D01*
X128957011Y-100768294D01*
X128905500Y-100779500D01*
X128240098Y-100779500D01*
X128173059Y-100759815D01*
X128152417Y-100743181D01*
X113324573Y-85915337D01*
X113291088Y-85854014D01*
X113290637Y-85851847D01*
X113270326Y-85749737D01*
X113259737Y-85696503D01*
X113256582Y-85688886D01*
X113199397Y-85550827D01*
X113199390Y-85550814D01*
X113111789Y-85419711D01*
X113111786Y-85419707D01*
X113000292Y-85308213D01*
X113000288Y-85308210D01*
X112869185Y-85220609D01*
X112869172Y-85220602D01*
X112723501Y-85160264D01*
X112723489Y-85160261D01*
X112568845Y-85129500D01*
X112568842Y-85129500D01*
X112411158Y-85129500D01*
X112411153Y-85129500D01*
X112269136Y-85157749D01*
X112199544Y-85151522D01*
X112144367Y-85108659D01*
X112121123Y-85042769D01*
X112137191Y-84974772D01*
X112157260Y-84948455D01*
X129557395Y-67548320D01*
X129618716Y-67514837D01*
X129688408Y-67519821D01*
X129744341Y-67561693D01*
X129759635Y-67588551D01*
X129780602Y-67639172D01*
X129780609Y-67639185D01*
X129868210Y-67770288D01*
X129868213Y-67770292D01*
X129979707Y-67881786D01*
X129979711Y-67881789D01*
X130110814Y-67969390D01*
X130110827Y-67969397D01*
X130208218Y-68009737D01*
X130256503Y-68029737D01*
X130411153Y-68060499D01*
X130411156Y-68060500D01*
X130411158Y-68060500D01*
X130568844Y-68060500D01*
X130568845Y-68060499D01*
X130723497Y-68029737D01*
X130869179Y-67969394D01*
X130958971Y-67909397D01*
X131000875Y-67881398D01*
X131067553Y-67860520D01*
X131069766Y-67860500D01*
X131760166Y-67860500D01*
X131774701Y-67864225D01*
X131786770Y-67863387D01*
X131809950Y-67873260D01*
X131819813Y-67875788D01*
X131824559Y-67878392D01*
X131930821Y-67949394D01*
X132025259Y-67988511D01*
X132031193Y-67991767D01*
X132051258Y-68011914D01*
X132073402Y-68029758D01*
X132075596Y-68036351D01*
X132080498Y-68041273D01*
X132086485Y-68069067D01*
X132095467Y-68096052D01*
X132093748Y-68102783D01*
X132095212Y-68109576D01*
X132085220Y-68136199D01*
X132078188Y-68163752D01*
X132072929Y-68168948D01*
X132070662Y-68174990D01*
X132055006Y-68186659D01*
X132033551Y-68207863D01*
X132029708Y-68210081D01*
X131837263Y-68357749D01*
X131837256Y-68357755D01*
X131665739Y-68529272D01*
X131665733Y-68529279D01*
X131518067Y-68721722D01*
X131396777Y-68931801D01*
X131396773Y-68931810D01*
X131303947Y-69155911D01*
X131241161Y-69390230D01*
X131209500Y-69630727D01*
X131209500Y-69873304D01*
X131241161Y-70113801D01*
X131303947Y-70348120D01*
X131396773Y-70572221D01*
X131396776Y-70572228D01*
X131518064Y-70782305D01*
X131518066Y-70782308D01*
X131518067Y-70782309D01*
X131665733Y-70974752D01*
X131665739Y-70974759D01*
X131837256Y-71146276D01*
X131837263Y-71146282D01*
X131845025Y-71152238D01*
X132029711Y-71293952D01*
X132239788Y-71415240D01*
X132463900Y-71508070D01*
X132698211Y-71570854D01*
X132878586Y-71594600D01*
X132938711Y-71602516D01*
X132938712Y-71602516D01*
X133181289Y-71602516D01*
X133229388Y-71596183D01*
X133421789Y-71570854D01*
X133656100Y-71508070D01*
X133880212Y-71415240D01*
X134090289Y-71293952D01*
X134282738Y-71146281D01*
X134454265Y-70974754D01*
X134601936Y-70782305D01*
X134723224Y-70572228D01*
X134816054Y-70348116D01*
X134878838Y-70113805D01*
X134910500Y-69873304D01*
X134910500Y-69630728D01*
X134878838Y-69390227D01*
X134816054Y-69155916D01*
X134723224Y-68931804D01*
X134601936Y-68721727D01*
X134454265Y-68529278D01*
X134454260Y-68529272D01*
X134282743Y-68357755D01*
X134282736Y-68357749D01*
X134090293Y-68210083D01*
X134090290Y-68210081D01*
X134090289Y-68210080D01*
X133880212Y-68088792D01*
X133832592Y-68069067D01*
X133656104Y-67995963D01*
X133421785Y-67933177D01*
X133181289Y-67901516D01*
X133181288Y-67901516D01*
X133062730Y-67901516D01*
X132995691Y-67881831D01*
X132949936Y-67829027D01*
X132939992Y-67759869D01*
X132959628Y-67708625D01*
X133006035Y-67639172D01*
X133019394Y-67619179D01*
X133079737Y-67473497D01*
X133110500Y-67318842D01*
X133110500Y-67161158D01*
X133110500Y-67161155D01*
X133110499Y-67161153D01*
X133079738Y-67006510D01*
X133079737Y-67006503D01*
X133079735Y-67006498D01*
X133019397Y-66860827D01*
X133019390Y-66860814D01*
X132931789Y-66729711D01*
X132931786Y-66729707D01*
X132820292Y-66618213D01*
X132820288Y-66618210D01*
X132689185Y-66530609D01*
X132689172Y-66530602D01*
X132543501Y-66470264D01*
X132543489Y-66470261D01*
X132388845Y-66439500D01*
X132388842Y-66439500D01*
X132231158Y-66439500D01*
X132231155Y-66439500D01*
X132076510Y-66470261D01*
X132076498Y-66470264D01*
X131930827Y-66530602D01*
X131930814Y-66530609D01*
X131799711Y-66618210D01*
X131799707Y-66618213D01*
X131794740Y-66623181D01*
X131733417Y-66656666D01*
X131707059Y-66659500D01*
X131069766Y-66659500D01*
X131053876Y-66655155D01*
X131039306Y-66655701D01*
X131012897Y-66643950D01*
X131006676Y-66642250D01*
X131000935Y-66638857D01*
X131000289Y-66638211D01*
X130869179Y-66550606D01*
X130810457Y-66526283D01*
X130802913Y-66521824D01*
X130784803Y-66502440D01*
X130764147Y-66485795D01*
X130761321Y-66477306D01*
X130755214Y-66470769D01*
X130750459Y-66444670D01*
X130742082Y-66419501D01*
X130744294Y-66410832D01*
X130742691Y-66402031D01*
X130752800Y-66377505D01*
X130759361Y-66351801D01*
X130767957Y-66340735D01*
X130769318Y-66337434D01*
X130771942Y-66335604D01*
X130778318Y-66327397D01*
X140540520Y-56565197D01*
X140619577Y-56428265D01*
X140660501Y-56275538D01*
X140660501Y-56275535D01*
X140661562Y-56267479D01*
X140664113Y-56267814D01*
X140680186Y-56213078D01*
X140728205Y-56169633D01*
X140767816Y-56149451D01*
X140939792Y-56024504D01*
X141090104Y-55874192D01*
X141090106Y-55874188D01*
X141090109Y-55874186D01*
X141215048Y-55702220D01*
X141215047Y-55702220D01*
X141215051Y-55702216D01*
X141219514Y-55693454D01*
X141267488Y-55642659D01*
X141335308Y-55625863D01*
X141401444Y-55648399D01*
X141440486Y-55693456D01*
X141444951Y-55702220D01*
X141569890Y-55874186D01*
X141720213Y-56024509D01*
X141892179Y-56149448D01*
X141892181Y-56149449D01*
X141892184Y-56149451D01*
X142081588Y-56245957D01*
X142283757Y-56311646D01*
X142493713Y-56344900D01*
X142493714Y-56344900D01*
X142706286Y-56344900D01*
X142706287Y-56344900D01*
X142916243Y-56311646D01*
X143118412Y-56245957D01*
X143307816Y-56149451D01*
X143394138Y-56086735D01*
X143479786Y-56024509D01*
X143479788Y-56024506D01*
X143479792Y-56024504D01*
X143630104Y-55874192D01*
X143630106Y-55874188D01*
X143630109Y-55874186D01*
X143755048Y-55702220D01*
X143755047Y-55702220D01*
X143755051Y-55702216D01*
X143759514Y-55693454D01*
X143807488Y-55642659D01*
X143875308Y-55625863D01*
X143941444Y-55648399D01*
X143980486Y-55693456D01*
X143984951Y-55702220D01*
X144109890Y-55874186D01*
X144260213Y-56024509D01*
X144432179Y-56149448D01*
X144432181Y-56149449D01*
X144432184Y-56149451D01*
X144621588Y-56245957D01*
X144823757Y-56311646D01*
X145033713Y-56344900D01*
X145033714Y-56344900D01*
X145246286Y-56344900D01*
X145246287Y-56344900D01*
X145456243Y-56311646D01*
X145658412Y-56245957D01*
X145847816Y-56149451D01*
X145934138Y-56086735D01*
X146019786Y-56024509D01*
X146019788Y-56024506D01*
X146019792Y-56024504D01*
X146170104Y-55874192D01*
X146170106Y-55874188D01*
X146170109Y-55874186D01*
X146295048Y-55702220D01*
X146295047Y-55702220D01*
X146295051Y-55702216D01*
X146299514Y-55693454D01*
X146347488Y-55642659D01*
X146415308Y-55625863D01*
X146481444Y-55648399D01*
X146520486Y-55693456D01*
X146524951Y-55702220D01*
X146649890Y-55874186D01*
X146800213Y-56024509D01*
X146972179Y-56149448D01*
X146972181Y-56149449D01*
X146972184Y-56149451D01*
X147161588Y-56245957D01*
X147363757Y-56311646D01*
X147573713Y-56344900D01*
X147573714Y-56344900D01*
X147786286Y-56344900D01*
X147786287Y-56344900D01*
X147996243Y-56311646D01*
X148198412Y-56245957D01*
X148387816Y-56149451D01*
X148474138Y-56086735D01*
X148559786Y-56024509D01*
X148559788Y-56024506D01*
X148559792Y-56024504D01*
X148710104Y-55874192D01*
X148710106Y-55874188D01*
X148710109Y-55874186D01*
X148795890Y-55756117D01*
X148835051Y-55702216D01*
X148839793Y-55692908D01*
X148887763Y-55642111D01*
X148955583Y-55625311D01*
X149021719Y-55647845D01*
X149060763Y-55692900D01*
X149065373Y-55701947D01*
X149104728Y-55756116D01*
X149737037Y-55123808D01*
X149754075Y-55187393D01*
X149819901Y-55301407D01*
X149912993Y-55394499D01*
X150027007Y-55460325D01*
X150090590Y-55477362D01*
X149458282Y-56109669D01*
X149458282Y-56109670D01*
X149512449Y-56149024D01*
X149701782Y-56245495D01*
X149903870Y-56311157D01*
X150113754Y-56344400D01*
X150326246Y-56344400D01*
X150536127Y-56311157D01*
X150536130Y-56311157D01*
X150738217Y-56245495D01*
X150927554Y-56149022D01*
X150981716Y-56109670D01*
X150981717Y-56109670D01*
X150349408Y-55477362D01*
X150412993Y-55460325D01*
X150527007Y-55394499D01*
X150620099Y-55301407D01*
X150685925Y-55187393D01*
X150702962Y-55123809D01*
X151335270Y-55756117D01*
X151335270Y-55756116D01*
X151374622Y-55701954D01*
X151471095Y-55512617D01*
X151536757Y-55310530D01*
X151536757Y-55310527D01*
X151570000Y-55100646D01*
X151570000Y-54888153D01*
X151536757Y-54678272D01*
X151536757Y-54678269D01*
X151471095Y-54476182D01*
X151374624Y-54286849D01*
X151335270Y-54232682D01*
X151335269Y-54232682D01*
X150702962Y-54864990D01*
X150685925Y-54801407D01*
X150620099Y-54687393D01*
X150527007Y-54594301D01*
X150412993Y-54528475D01*
X150349409Y-54511437D01*
X150981716Y-53879128D01*
X150927550Y-53839775D01*
X150738217Y-53743304D01*
X150536129Y-53677642D01*
X150326246Y-53644400D01*
X150113754Y-53644400D01*
X149903872Y-53677642D01*
X149903869Y-53677642D01*
X149701782Y-53743304D01*
X149512439Y-53839780D01*
X149458282Y-53879127D01*
X149458282Y-53879128D01*
X150090591Y-54511437D01*
X150027007Y-54528475D01*
X149912993Y-54594301D01*
X149819901Y-54687393D01*
X149754075Y-54801407D01*
X149737037Y-54864991D01*
X149104728Y-54232682D01*
X149104727Y-54232682D01*
X149065380Y-54286840D01*
X149065376Y-54286846D01*
X149060760Y-54295905D01*
X149012781Y-54346697D01*
X148944959Y-54363487D01*
X148878826Y-54340943D01*
X148839794Y-54295893D01*
X148835051Y-54286584D01*
X148835049Y-54286581D01*
X148835048Y-54286579D01*
X148710109Y-54114613D01*
X148559786Y-53964290D01*
X148387820Y-53839351D01*
X148198414Y-53742844D01*
X148198413Y-53742843D01*
X148198412Y-53742843D01*
X147996243Y-53677154D01*
X147996241Y-53677153D01*
X147996240Y-53677153D01*
X147834957Y-53651608D01*
X147786287Y-53643900D01*
X147573713Y-53643900D01*
X147525042Y-53651608D01*
X147363760Y-53677153D01*
X147161585Y-53742844D01*
X146972179Y-53839351D01*
X146800213Y-53964290D01*
X146649890Y-54114613D01*
X146524949Y-54286582D01*
X146520484Y-54295346D01*
X146472509Y-54346142D01*
X146404688Y-54362936D01*
X146338553Y-54340398D01*
X146299516Y-54295346D01*
X146295050Y-54286582D01*
X146170109Y-54114613D01*
X146019786Y-53964290D01*
X145847820Y-53839351D01*
X145658414Y-53742844D01*
X145658413Y-53742843D01*
X145658412Y-53742843D01*
X145456243Y-53677154D01*
X145456241Y-53677153D01*
X145456240Y-53677153D01*
X145294957Y-53651608D01*
X145246287Y-53643900D01*
X145033713Y-53643900D01*
X144985042Y-53651608D01*
X144823760Y-53677153D01*
X144621585Y-53742844D01*
X144432179Y-53839351D01*
X144260213Y-53964290D01*
X144109890Y-54114613D01*
X143984949Y-54286582D01*
X143980484Y-54295346D01*
X143932509Y-54346142D01*
X143864688Y-54362936D01*
X143798553Y-54340398D01*
X143759516Y-54295346D01*
X143755050Y-54286582D01*
X143630109Y-54114613D01*
X143479786Y-53964290D01*
X143307820Y-53839351D01*
X143118414Y-53742844D01*
X143118413Y-53742843D01*
X143118412Y-53742843D01*
X142916243Y-53677154D01*
X142916241Y-53677153D01*
X142916240Y-53677153D01*
X142754957Y-53651608D01*
X142706287Y-53643900D01*
X142493713Y-53643900D01*
X142465006Y-53648446D01*
X142283757Y-53677153D01*
X142241473Y-53690892D01*
X142226260Y-53691326D01*
X142212003Y-53696644D01*
X142192048Y-53692303D01*
X142171632Y-53692886D01*
X142157545Y-53684797D01*
X142143730Y-53681792D01*
X142115476Y-53660641D01*
X141986590Y-53531755D01*
X141986588Y-53531752D01*
X141867717Y-53412881D01*
X141867716Y-53412880D01*
X141780904Y-53362760D01*
X141780904Y-53362759D01*
X141780900Y-53362758D01*
X141730785Y-53333823D01*
X141578057Y-53292899D01*
X141419943Y-53292899D01*
X141412347Y-53292899D01*
X141412331Y-53292900D01*
X91689556Y-53292900D01*
X91648635Y-53303864D01*
X91648635Y-53303865D01*
X91611367Y-53313851D01*
X91536830Y-53333823D01*
X91536825Y-53333826D01*
X91399906Y-53412875D01*
X91399898Y-53412881D01*
X91288094Y-53524686D01*
X83944526Y-60868253D01*
X83883203Y-60901738D01*
X83830478Y-60901174D01*
X83830448Y-60901365D01*
X83829156Y-60901160D01*
X83827903Y-60901147D01*
X83825636Y-60900602D01*
X83643232Y-60871713D01*
X83629361Y-60869516D01*
X83430639Y-60869516D01*
X83365214Y-60879878D01*
X83234362Y-60900603D01*
X83045370Y-60962009D01*
X83045367Y-60962010D01*
X82868305Y-61052229D01*
X82707533Y-61169037D01*
X82567021Y-61309549D01*
X82450213Y-61470321D01*
X82359994Y-61647383D01*
X82359993Y-61647386D01*
X82298587Y-61836378D01*
X82267500Y-62032655D01*
X79265096Y-62032655D01*
X79265096Y-52251666D01*
X79284781Y-52184627D01*
X79337585Y-52138872D01*
X79389096Y-52127666D01*
X169140096Y-52127666D01*
X169207135Y-52147351D01*
G37*
%TD.AperFunction*%
%TD*%
M02*
