M48
; DRILL file {KiCad 9.0.3} date 2026-02-14T15:56:08-0500
; FORMAT={-:-/ absolute / inch / decimal}
; #@! TF.CreationDate,2026-02-14T15:56:08-05:00
; #@! TF.GenerationSoftware,Kicad,Pcbnew,9.0.3
; #@! TF.FileFunction,Plated,1,2,PTH
FMAT,2
INCH
; #@! TA.AperFunction,Plated,PTH,ViaDrill
T1C0.0118
; #@! TA.AperFunction,Plated,PTH,ComponentDrill
T2C0.0300
; #@! TA.AperFunction,Plated,PTH,ComponentDrill
T3C0.0315
; #@! TA.AperFunction,Plated,PTH,ComponentDrill
T4C0.0394
; #@! TA.AperFunction,Plated,PTH,ComponentDrill
T5C0.0400
; #@! TA.AperFunction,Plated,PTH,ComponentDrill
T6C0.0591
%
G90
G05
T1
X3.9457Y-2.6457
X3.961Y-2.998
X4.2114Y-3.6138
X4.4287Y-3.3831
X5.0949Y-3.5319
X5.1055Y-3.5874
X5.1098Y-3.7051
X5.1106Y-3.9185
X5.1114Y-3.9614
X5.1138Y-3.6441
X5.1154Y-3.8579
X5.1161Y-3.0157
X5.1201Y-3.748
X5.1205Y-2.7783
X5.122Y-3.7945
X5.1374Y-2.648
X5.1401Y-3.3457
X5.1834Y-3.9528
X5.1898Y-3.9913
X5.2039Y-3.7425
X5.2091Y-2.6472
X5.211Y-3.6224
X5.2114Y-3.5551
X5.2118Y-3.6783
X5.2165Y-2.4591
X5.2197Y-3.0224
X5.2882Y-3.902
X5.3886Y-3.8638
X5.4291Y-3.8098
X5.6441Y-3.6024
X5.6469Y-3.0906
X5.7098Y-3.2736
X5.7201Y-3.115
X5.7287Y-3.2457
X5.8965Y-3.7319
X6.0685Y-3.6894
X6.1248Y-3.6472
X6.1602Y-3.7969
X6.186Y-3.8589
X6.2114Y-3.9343
X6.224Y-3.7327
X6.2437Y-3.8972
X6.2815Y-3.8693
X6.2963Y-3.9147
X6.3339Y-3.702
X6.3382Y-3.6665
X6.3488Y-3.9713
X6.3673Y-3.8992
X6.3878Y-4.0571
X6.4055Y-3.3516
X6.5303Y-4.0283
X6.5362Y-3.2406
X6.6134Y-3.3589
X6.6201Y-3.5287
X6.6217Y-3.9425
X6.622Y-3.8571
X6.6228Y-3.3043
X6.636Y-3.4144
T2
X6.5165Y-3.4401
X6.5165Y-3.4901
X6.5165Y-3.5401
X6.5165Y-3.5901
X6.5165Y-3.6401
X6.5165Y-3.6901
X6.5165Y-3.7401
X6.5165Y-3.7901
X6.5165Y-3.8401
X6.5165Y-3.8901
X6.5665Y-3.4401
X6.5665Y-3.4901
X6.5665Y-3.5401
X6.5665Y-3.5901
X6.5665Y-3.6401
X6.5665Y-3.6901
X6.5665Y-3.7401
X6.5665Y-3.7901
X6.5665Y-3.8401
X6.5665Y-3.8901
T3
X6.5311Y-4.7181
X6.5311Y-4.7969
X6.5311Y-4.8756
T4
X5.2142Y-2.1651
X5.3142Y-2.1651
X5.4142Y-2.1651
X5.5142Y-2.1651
X5.6142Y-2.1651
X5.7142Y-2.1651
X5.8142Y-2.1651
X5.9142Y-2.1651
T5
X3.2886Y-2.4461
X3.2886Y-2.5461
X3.2886Y-4.8461
X3.2886Y-4.9461
X3.3886Y-2.4461
X3.3886Y-2.5461
X3.3886Y-4.8461
X3.3886Y-4.9461
X3.4886Y-2.4461
X3.4886Y-2.5461
X3.4886Y-4.8461
X3.4886Y-4.9461
X3.5886Y-2.4461
X3.5886Y-2.5461
X3.5886Y-4.8461
X3.5886Y-4.9461
X3.6886Y-2.4461
X3.6886Y-2.5461
X3.6886Y-4.8461
X3.6886Y-4.9461
X3.7886Y-2.4461
X3.7886Y-2.5461
X3.7886Y-4.8461
X3.7886Y-4.9461
X3.8886Y-2.4461
X3.8886Y-2.5461
X3.8886Y-4.8461
X3.8886Y-4.9461
X3.9886Y-2.4461
X3.9886Y-2.5461
X3.9886Y-4.8461
X3.9886Y-4.9461
X4.0886Y-2.4461
X4.0886Y-2.5461
X4.0886Y-4.8461
X4.0886Y-4.9461
X4.1886Y-2.4461
X4.1886Y-2.5461
X4.1886Y-4.8461
X4.1886Y-4.9461
X4.2886Y-2.4461
X4.2886Y-2.5461
X4.2886Y-4.8461
X4.2886Y-4.9461
X4.3886Y-2.4461
X4.3886Y-2.5461
X4.3886Y-4.8461
X4.3886Y-4.9461
X4.4886Y-2.4461
X4.4886Y-2.5461
X4.4886Y-4.8461
X4.4886Y-4.9461
X4.5886Y-2.4461
X4.5886Y-2.5461
X4.5886Y-4.8461
X4.5886Y-4.9461
X4.6886Y-2.4461
X4.6886Y-2.5461
X4.6886Y-4.8461
X4.6886Y-4.9461
X4.7886Y-2.4461
X4.7886Y-2.5461
X4.7886Y-4.8461
X4.7886Y-4.9461
X4.8886Y-2.4461
X4.8886Y-2.5461
X4.8886Y-4.8461
X4.8886Y-4.9461
X4.9886Y-2.4461
X4.9886Y-2.5461
X4.9886Y-4.8461
X4.9886Y-4.9461
X5.0886Y-2.4461
X5.0886Y-2.5461
X5.0886Y-4.8461
X5.0886Y-4.9461
T6
X6.5311Y-4.6059
X6.5311Y-4.9878
M30
