%TF.GenerationSoftware,KiCad,Pcbnew,9.0.3*%
%TF.CreationDate,2026-02-14T15:55:26-05:00*%
%TF.ProjectId,MM26_bottom,4d4d3236-5f62-46f7-9474-6f6d2e6b6963,rev?*%
%TF.SameCoordinates,Original*%
%TF.FileFunction,Legend,Bot*%
%TF.FilePolarity,Positive*%
%FSLAX46Y46*%
G04 Gerber Fmt 4.6, Leading zero omitted, Abs format (unit mm)*
G04 Created by KiCad (PCBNEW 9.0.3) date 2026-02-14 15:55:26*
%MOMM*%
%LPD*%
G01*
G04 APERTURE LIST*
%ADD10C,0.150000*%
%ADD11C,0.508000*%
%ADD12C,0.120000*%
G04 APERTURE END LIST*
D10*
X66016666Y-98589580D02*
X66064285Y-98637200D01*
X66064285Y-98637200D02*
X66207142Y-98684819D01*
X66207142Y-98684819D02*
X66302380Y-98684819D01*
X66302380Y-98684819D02*
X66445237Y-98637200D01*
X66445237Y-98637200D02*
X66540475Y-98541961D01*
X66540475Y-98541961D02*
X66588094Y-98446723D01*
X66588094Y-98446723D02*
X66635713Y-98256247D01*
X66635713Y-98256247D02*
X66635713Y-98113390D01*
X66635713Y-98113390D02*
X66588094Y-97922914D01*
X66588094Y-97922914D02*
X66540475Y-97827676D01*
X66540475Y-97827676D02*
X66445237Y-97732438D01*
X66445237Y-97732438D02*
X66302380Y-97684819D01*
X66302380Y-97684819D02*
X66207142Y-97684819D01*
X66207142Y-97684819D02*
X66064285Y-97732438D01*
X66064285Y-97732438D02*
X66016666Y-97780057D01*
X65159523Y-98018152D02*
X65159523Y-98684819D01*
X65397618Y-97637200D02*
X65635713Y-98351485D01*
X65635713Y-98351485D02*
X65016666Y-98351485D01*
X74216666Y-92689580D02*
X74264285Y-92737200D01*
X74264285Y-92737200D02*
X74407142Y-92784819D01*
X74407142Y-92784819D02*
X74502380Y-92784819D01*
X74502380Y-92784819D02*
X74645237Y-92737200D01*
X74645237Y-92737200D02*
X74740475Y-92641961D01*
X74740475Y-92641961D02*
X74788094Y-92546723D01*
X74788094Y-92546723D02*
X74835713Y-92356247D01*
X74835713Y-92356247D02*
X74835713Y-92213390D01*
X74835713Y-92213390D02*
X74788094Y-92022914D01*
X74788094Y-92022914D02*
X74740475Y-91927676D01*
X74740475Y-91927676D02*
X74645237Y-91832438D01*
X74645237Y-91832438D02*
X74502380Y-91784819D01*
X74502380Y-91784819D02*
X74407142Y-91784819D01*
X74407142Y-91784819D02*
X74264285Y-91832438D01*
X74264285Y-91832438D02*
X74216666Y-91880057D01*
X73359523Y-91784819D02*
X73549999Y-91784819D01*
X73549999Y-91784819D02*
X73645237Y-91832438D01*
X73645237Y-91832438D02*
X73692856Y-91880057D01*
X73692856Y-91880057D02*
X73788094Y-92022914D01*
X73788094Y-92022914D02*
X73835713Y-92213390D01*
X73835713Y-92213390D02*
X73835713Y-92594342D01*
X73835713Y-92594342D02*
X73788094Y-92689580D01*
X73788094Y-92689580D02*
X73740475Y-92737200D01*
X73740475Y-92737200D02*
X73645237Y-92784819D01*
X73645237Y-92784819D02*
X73454761Y-92784819D01*
X73454761Y-92784819D02*
X73359523Y-92737200D01*
X73359523Y-92737200D02*
X73311904Y-92689580D01*
X73311904Y-92689580D02*
X73264285Y-92594342D01*
X73264285Y-92594342D02*
X73264285Y-92356247D01*
X73264285Y-92356247D02*
X73311904Y-92261009D01*
X73311904Y-92261009D02*
X73359523Y-92213390D01*
X73359523Y-92213390D02*
X73454761Y-92165771D01*
X73454761Y-92165771D02*
X73645237Y-92165771D01*
X73645237Y-92165771D02*
X73740475Y-92213390D01*
X73740475Y-92213390D02*
X73788094Y-92261009D01*
X73788094Y-92261009D02*
X73835713Y-92356247D01*
X74236666Y-95019580D02*
X74284285Y-95067200D01*
X74284285Y-95067200D02*
X74427142Y-95114819D01*
X74427142Y-95114819D02*
X74522380Y-95114819D01*
X74522380Y-95114819D02*
X74665237Y-95067200D01*
X74665237Y-95067200D02*
X74760475Y-94971961D01*
X74760475Y-94971961D02*
X74808094Y-94876723D01*
X74808094Y-94876723D02*
X74855713Y-94686247D01*
X74855713Y-94686247D02*
X74855713Y-94543390D01*
X74855713Y-94543390D02*
X74808094Y-94352914D01*
X74808094Y-94352914D02*
X74760475Y-94257676D01*
X74760475Y-94257676D02*
X74665237Y-94162438D01*
X74665237Y-94162438D02*
X74522380Y-94114819D01*
X74522380Y-94114819D02*
X74427142Y-94114819D01*
X74427142Y-94114819D02*
X74284285Y-94162438D01*
X74284285Y-94162438D02*
X74236666Y-94210057D01*
X73331904Y-94114819D02*
X73808094Y-94114819D01*
X73808094Y-94114819D02*
X73855713Y-94591009D01*
X73855713Y-94591009D02*
X73808094Y-94543390D01*
X73808094Y-94543390D02*
X73712856Y-94495771D01*
X73712856Y-94495771D02*
X73474761Y-94495771D01*
X73474761Y-94495771D02*
X73379523Y-94543390D01*
X73379523Y-94543390D02*
X73331904Y-94591009D01*
X73331904Y-94591009D02*
X73284285Y-94686247D01*
X73284285Y-94686247D02*
X73284285Y-94924342D01*
X73284285Y-94924342D02*
X73331904Y-95019580D01*
X73331904Y-95019580D02*
X73379523Y-95067200D01*
X73379523Y-95067200D02*
X73474761Y-95114819D01*
X73474761Y-95114819D02*
X73712856Y-95114819D01*
X73712856Y-95114819D02*
X73808094Y-95067200D01*
X73808094Y-95067200D02*
X73855713Y-95019580D01*
X65936666Y-95709580D02*
X65984285Y-95757200D01*
X65984285Y-95757200D02*
X66127142Y-95804819D01*
X66127142Y-95804819D02*
X66222380Y-95804819D01*
X66222380Y-95804819D02*
X66365237Y-95757200D01*
X66365237Y-95757200D02*
X66460475Y-95661961D01*
X66460475Y-95661961D02*
X66508094Y-95566723D01*
X66508094Y-95566723D02*
X66555713Y-95376247D01*
X66555713Y-95376247D02*
X66555713Y-95233390D01*
X66555713Y-95233390D02*
X66508094Y-95042914D01*
X66508094Y-95042914D02*
X66460475Y-94947676D01*
X66460475Y-94947676D02*
X66365237Y-94852438D01*
X66365237Y-94852438D02*
X66222380Y-94804819D01*
X66222380Y-94804819D02*
X66127142Y-94804819D01*
X66127142Y-94804819D02*
X65984285Y-94852438D01*
X65984285Y-94852438D02*
X65936666Y-94900057D01*
X65603332Y-94804819D02*
X64984285Y-94804819D01*
X64984285Y-94804819D02*
X65317618Y-95185771D01*
X65317618Y-95185771D02*
X65174761Y-95185771D01*
X65174761Y-95185771D02*
X65079523Y-95233390D01*
X65079523Y-95233390D02*
X65031904Y-95281009D01*
X65031904Y-95281009D02*
X64984285Y-95376247D01*
X64984285Y-95376247D02*
X64984285Y-95614342D01*
X64984285Y-95614342D02*
X65031904Y-95709580D01*
X65031904Y-95709580D02*
X65079523Y-95757200D01*
X65079523Y-95757200D02*
X65174761Y-95804819D01*
X65174761Y-95804819D02*
X65460475Y-95804819D01*
X65460475Y-95804819D02*
X65555713Y-95757200D01*
X65555713Y-95757200D02*
X65603332Y-95709580D01*
D11*
%TO.C,J10*%
X133081000Y-106476000D02*
G75*
G02*
X132319000Y-106476000I-381000J0D01*
G01*
X132319000Y-106476000D02*
G75*
G02*
X133081000Y-106476000I381000J0D01*
G01*
D12*
%TO.C,C4*%
X65588748Y-95815000D02*
X66111252Y-95815000D01*
X65588748Y-97285000D02*
X66111252Y-97285000D01*
%TO.C,C6*%
X74311252Y-93275000D02*
X73788748Y-93275000D01*
X74311252Y-94745000D02*
X73788748Y-94745000D01*
%TO.C,C5*%
X74331252Y-95605000D02*
X73808748Y-95605000D01*
X74331252Y-97075000D02*
X73808748Y-97075000D01*
%TO.C,C3*%
X65508748Y-92935000D02*
X66031252Y-92935000D01*
X65508748Y-94405000D02*
X66031252Y-94405000D01*
%TD*%
M02*
