%TF.GenerationSoftware,KiCad,Pcbnew,9.0.3*%
%TF.CreationDate,2026-02-14T15:55:27-05:00*%
%TF.ProjectId,MM26_bottom,4d4d3236-5f62-46f7-9474-6f6d2e6b6963,rev?*%
%TF.SameCoordinates,Original*%
%TF.FileFunction,Profile,NP*%
%FSLAX46Y46*%
G04 Gerber Fmt 4.6, Leading zero omitted, Abs format (unit mm)*
G04 Created by KiCad (PCBNEW 9.0.3) date 2026-02-14 15:55:27*
%MOMM*%
%LPD*%
G01*
G04 APERTURE LIST*
%TA.AperFunction,Profile*%
%ADD10C,0.200000*%
%TD*%
G04 APERTURE END LIST*
D10*
X55714884Y-119386403D02*
G75*
G02*
X53214884Y-119386403I-1250000J0D01*
G01*
X53214884Y-119386403D02*
G75*
G02*
X55714884Y-119386403I1250000J0D01*
G01*
X114890147Y-96490289D02*
G75*
G02*
X112390147Y-96490289I-1250000J0D01*
G01*
X112390147Y-96490289D02*
G75*
G02*
X114890147Y-96490289I1250000J0D01*
G01*
X125335669Y-69185909D02*
X108335669Y-69185909D01*
X125791455Y-103856501D02*
G75*
G02*
X123505455Y-103856501I-1143000J0D01*
G01*
X123505455Y-103856501D02*
G75*
G02*
X125791455Y-103856501I1143000J0D01*
G01*
X108335486Y-123794754D02*
X125335486Y-123794754D01*
X142153192Y-83193661D02*
X130132377Y-71172846D01*
X130132248Y-121807946D02*
X142153063Y-109787131D01*
X55715086Y-73593653D02*
G75*
G02*
X53215086Y-73593653I-1250000J0D01*
G01*
X53215086Y-73593653D02*
G75*
G02*
X55715086Y-73593653I1250000J0D01*
G01*
X80439109Y-133739839D02*
G75*
G02*
X78139109Y-133739839I-1150000J0D01*
G01*
X78139109Y-133739839D02*
G75*
G02*
X80439109Y-133739839I1150000J0D01*
G01*
X108335669Y-69185909D02*
X108335669Y-54490000D01*
X48140000Y-138490000D02*
X108335486Y-138490000D01*
X130132377Y-71172846D02*
X125335669Y-69185909D01*
X144140000Y-104990423D02*
X144140000Y-87990423D01*
X108335486Y-138490000D02*
X108335486Y-123794754D01*
X48140000Y-54490000D02*
X48140000Y-138490000D01*
X125791455Y-89124501D02*
G75*
G02*
X123505455Y-89124501I-1143000J0D01*
G01*
X123505455Y-89124501D02*
G75*
G02*
X125791455Y-89124501I1143000J0D01*
G01*
X144140000Y-87990423D02*
X142153192Y-83193661D01*
X125335486Y-123794754D02*
X130132248Y-121807946D01*
X108335669Y-54490000D02*
X48140000Y-54490000D01*
X142153063Y-109787131D02*
X144140000Y-104990423D01*
M02*
