%TF.GenerationSoftware,KiCad,Pcbnew,9.0.3*%
%TF.CreationDate,2026-02-14T15:55:26-05:00*%
%TF.ProjectId,MM26_bottom,4d4d3236-5f62-46f7-9474-6f6d2e6b6963,rev?*%
%TF.SameCoordinates,Original*%
%TF.FileFunction,Legend,Top*%
%TF.FilePolarity,Positive*%
%FSLAX46Y46*%
G04 Gerber Fmt 4.6, Leading zero omitted, Abs format (unit mm)*
G04 Created by KiCad (PCBNEW 9.0.3) date 2026-02-14 15:55:26*
%MOMM*%
%LPD*%
G01*
G04 APERTURE LIST*
%ADD10C,0.150000*%
%ADD11C,0.120000*%
%ADD12C,0.100000*%
%ADD13C,0.127000*%
%ADD14C,0.200000*%
%ADD15C,0.152400*%
%ADD16C,0.508000*%
G04 APERTURE END LIST*
D10*
X132534181Y-118906323D02*
X132029105Y-119411399D01*
X132029105Y-119411399D02*
X131894418Y-119478743D01*
X131894418Y-119478743D02*
X131759731Y-119478743D01*
X131759731Y-119478743D02*
X131625044Y-119411399D01*
X131625044Y-119411399D02*
X131557700Y-119344056D01*
X132197464Y-119983819D02*
X132332151Y-120118506D01*
X132332151Y-120118506D02*
X132433166Y-120152178D01*
X132433166Y-120152178D02*
X132500510Y-120152178D01*
X132500510Y-120152178D02*
X132668868Y-120118506D01*
X132668868Y-120118506D02*
X132837227Y-120017491D01*
X132837227Y-120017491D02*
X133106601Y-119748117D01*
X133106601Y-119748117D02*
X133140273Y-119647102D01*
X133140273Y-119647102D02*
X133140273Y-119579758D01*
X133140273Y-119579758D02*
X133106601Y-119478743D01*
X133106601Y-119478743D02*
X132971914Y-119344056D01*
X132971914Y-119344056D02*
X132870899Y-119310384D01*
X132870899Y-119310384D02*
X132803555Y-119310384D01*
X132803555Y-119310384D02*
X132702540Y-119344056D01*
X132702540Y-119344056D02*
X132534181Y-119512415D01*
X132534181Y-119512415D02*
X132500510Y-119613430D01*
X132500510Y-119613430D02*
X132500510Y-119680773D01*
X132500510Y-119680773D02*
X132534181Y-119781789D01*
X132534181Y-119781789D02*
X132668868Y-119916476D01*
X132668868Y-119916476D02*
X132769884Y-119950147D01*
X132769884Y-119950147D02*
X132837227Y-119950147D01*
X132837227Y-119950147D02*
X132938242Y-119916476D01*
X78527204Y-130744658D02*
X78527204Y-129744658D01*
X78527204Y-130220848D02*
X79098632Y-130220848D01*
X79098632Y-130744658D02*
X79098632Y-129744658D01*
X80051013Y-129744658D02*
X79574823Y-129744658D01*
X79574823Y-129744658D02*
X79527204Y-130220848D01*
X79527204Y-130220848D02*
X79574823Y-130173229D01*
X79574823Y-130173229D02*
X79670061Y-130125610D01*
X79670061Y-130125610D02*
X79908156Y-130125610D01*
X79908156Y-130125610D02*
X80003394Y-130173229D01*
X80003394Y-130173229D02*
X80051013Y-130220848D01*
X80051013Y-130220848D02*
X80098632Y-130316086D01*
X80098632Y-130316086D02*
X80098632Y-130554181D01*
X80098632Y-130554181D02*
X80051013Y-130649419D01*
X80051013Y-130649419D02*
X80003394Y-130697039D01*
X80003394Y-130697039D02*
X79908156Y-130744658D01*
X79908156Y-130744658D02*
X79670061Y-130744658D01*
X79670061Y-130744658D02*
X79574823Y-130697039D01*
X79574823Y-130697039D02*
X79527204Y-130649419D01*
X62161876Y-97650619D02*
X62679971Y-97650619D01*
X62679971Y-97650619D02*
X62740923Y-97620142D01*
X62740923Y-97620142D02*
X62771400Y-97589666D01*
X62771400Y-97589666D02*
X62801876Y-97528714D01*
X62801876Y-97528714D02*
X62801876Y-97406809D01*
X62801876Y-97406809D02*
X62771400Y-97345857D01*
X62771400Y-97345857D02*
X62740923Y-97315380D01*
X62740923Y-97315380D02*
X62679971Y-97284904D01*
X62679971Y-97284904D02*
X62161876Y-97284904D01*
X62161876Y-96675381D02*
X62161876Y-96980143D01*
X62161876Y-96980143D02*
X62466638Y-97010619D01*
X62466638Y-97010619D02*
X62436161Y-96980143D01*
X62436161Y-96980143D02*
X62405685Y-96919190D01*
X62405685Y-96919190D02*
X62405685Y-96766809D01*
X62405685Y-96766809D02*
X62436161Y-96705857D01*
X62436161Y-96705857D02*
X62466638Y-96675381D01*
X62466638Y-96675381D02*
X62527590Y-96644904D01*
X62527590Y-96644904D02*
X62679971Y-96644904D01*
X62679971Y-96644904D02*
X62740923Y-96675381D01*
X62740923Y-96675381D02*
X62771400Y-96705857D01*
X62771400Y-96705857D02*
X62801876Y-96766809D01*
X62801876Y-96766809D02*
X62801876Y-96919190D01*
X62801876Y-96919190D02*
X62771400Y-96980143D01*
X62771400Y-96980143D02*
X62740923Y-97010619D01*
X143786666Y-101240242D02*
X143786666Y-101954527D01*
X143786666Y-101954527D02*
X143739047Y-102097384D01*
X143739047Y-102097384D02*
X143643809Y-102192623D01*
X143643809Y-102192623D02*
X143500952Y-102240242D01*
X143500952Y-102240242D02*
X143405714Y-102240242D01*
X144167619Y-101240242D02*
X144834285Y-101240242D01*
X144834285Y-101240242D02*
X144405714Y-102240242D01*
X62373095Y-107129819D02*
X62373095Y-107939342D01*
X62373095Y-107939342D02*
X62420714Y-108034580D01*
X62420714Y-108034580D02*
X62468333Y-108082200D01*
X62468333Y-108082200D02*
X62563571Y-108129819D01*
X62563571Y-108129819D02*
X62754047Y-108129819D01*
X62754047Y-108129819D02*
X62849285Y-108082200D01*
X62849285Y-108082200D02*
X62896904Y-108034580D01*
X62896904Y-108034580D02*
X62944523Y-107939342D01*
X62944523Y-107939342D02*
X62944523Y-107129819D01*
X63944523Y-108129819D02*
X63373095Y-108129819D01*
X63658809Y-108129819D02*
X63658809Y-107129819D01*
X63658809Y-107129819D02*
X63563571Y-107272676D01*
X63563571Y-107272676D02*
X63468333Y-107367914D01*
X63468333Y-107367914D02*
X63373095Y-107415533D01*
X110995305Y-124108087D02*
X111709590Y-124108087D01*
X111709590Y-124108087D02*
X111852447Y-124155706D01*
X111852447Y-124155706D02*
X111947686Y-124250944D01*
X111947686Y-124250944D02*
X111995305Y-124393801D01*
X111995305Y-124393801D02*
X111995305Y-124489039D01*
X110995305Y-123155706D02*
X110995305Y-123631896D01*
X110995305Y-123631896D02*
X111471495Y-123679515D01*
X111471495Y-123679515D02*
X111423876Y-123631896D01*
X111423876Y-123631896D02*
X111376257Y-123536658D01*
X111376257Y-123536658D02*
X111376257Y-123298563D01*
X111376257Y-123298563D02*
X111423876Y-123203325D01*
X111423876Y-123203325D02*
X111471495Y-123155706D01*
X111471495Y-123155706D02*
X111566733Y-123108087D01*
X111566733Y-123108087D02*
X111804828Y-123108087D01*
X111804828Y-123108087D02*
X111900066Y-123155706D01*
X111900066Y-123155706D02*
X111947686Y-123203325D01*
X111947686Y-123203325D02*
X111995305Y-123298563D01*
X111995305Y-123298563D02*
X111995305Y-123536658D01*
X111995305Y-123536658D02*
X111947686Y-123631896D01*
X111947686Y-123631896D02*
X111900066Y-123679515D01*
X132789819Y-96744523D02*
X133504104Y-96744523D01*
X133504104Y-96744523D02*
X133646961Y-96792142D01*
X133646961Y-96792142D02*
X133742200Y-96887380D01*
X133742200Y-96887380D02*
X133789819Y-97030237D01*
X133789819Y-97030237D02*
X133789819Y-97125475D01*
X133789819Y-95744523D02*
X133789819Y-96315951D01*
X133789819Y-96030237D02*
X132789819Y-96030237D01*
X132789819Y-96030237D02*
X132932676Y-96125475D01*
X132932676Y-96125475D02*
X133027914Y-96220713D01*
X133027914Y-96220713D02*
X133075533Y-96315951D01*
X132789819Y-95125475D02*
X132789819Y-95030237D01*
X132789819Y-95030237D02*
X132837438Y-94934999D01*
X132837438Y-94934999D02*
X132885057Y-94887380D01*
X132885057Y-94887380D02*
X132980295Y-94839761D01*
X132980295Y-94839761D02*
X133170771Y-94792142D01*
X133170771Y-94792142D02*
X133408866Y-94792142D01*
X133408866Y-94792142D02*
X133599342Y-94839761D01*
X133599342Y-94839761D02*
X133694580Y-94887380D01*
X133694580Y-94887380D02*
X133742200Y-94934999D01*
X133742200Y-94934999D02*
X133789819Y-95030237D01*
X133789819Y-95030237D02*
X133789819Y-95125475D01*
X133789819Y-95125475D02*
X133742200Y-95220713D01*
X133742200Y-95220713D02*
X133694580Y-95268332D01*
X133694580Y-95268332D02*
X133599342Y-95315951D01*
X133599342Y-95315951D02*
X133408866Y-95363570D01*
X133408866Y-95363570D02*
X133170771Y-95363570D01*
X133170771Y-95363570D02*
X132980295Y-95315951D01*
X132980295Y-95315951D02*
X132885057Y-95268332D01*
X132885057Y-95268332D02*
X132837438Y-95220713D01*
X132837438Y-95220713D02*
X132789819Y-95125475D01*
X121585488Y-69539242D02*
X122299773Y-69539242D01*
X122299773Y-69539242D02*
X122442630Y-69586861D01*
X122442630Y-69586861D02*
X122537869Y-69682099D01*
X122537869Y-69682099D02*
X122585488Y-69824956D01*
X122585488Y-69824956D02*
X122585488Y-69920194D01*
X121585488Y-68634480D02*
X121585488Y-68824956D01*
X121585488Y-68824956D02*
X121633107Y-68920194D01*
X121633107Y-68920194D02*
X121680726Y-68967813D01*
X121680726Y-68967813D02*
X121823583Y-69063051D01*
X121823583Y-69063051D02*
X122014059Y-69110670D01*
X122014059Y-69110670D02*
X122395011Y-69110670D01*
X122395011Y-69110670D02*
X122490249Y-69063051D01*
X122490249Y-69063051D02*
X122537869Y-69015432D01*
X122537869Y-69015432D02*
X122585488Y-68920194D01*
X122585488Y-68920194D02*
X122585488Y-68729718D01*
X122585488Y-68729718D02*
X122537869Y-68634480D01*
X122537869Y-68634480D02*
X122490249Y-68586861D01*
X122490249Y-68586861D02*
X122395011Y-68539242D01*
X122395011Y-68539242D02*
X122156916Y-68539242D01*
X122156916Y-68539242D02*
X122061678Y-68586861D01*
X122061678Y-68586861D02*
X122014059Y-68634480D01*
X122014059Y-68634480D02*
X121966440Y-68729718D01*
X121966440Y-68729718D02*
X121966440Y-68920194D01*
X121966440Y-68920194D02*
X122014059Y-69015432D01*
X122014059Y-69015432D02*
X122061678Y-69063051D01*
X122061678Y-69063051D02*
X122156916Y-69110670D01*
X139251569Y-80791728D02*
X139756645Y-81296804D01*
X139756645Y-81296804D02*
X139823989Y-81431491D01*
X139823989Y-81431491D02*
X139823989Y-81566178D01*
X139823989Y-81566178D02*
X139756645Y-81700865D01*
X139756645Y-81700865D02*
X139689302Y-81768209D01*
X139992348Y-80657041D02*
X139891332Y-80690712D01*
X139891332Y-80690712D02*
X139823989Y-80690712D01*
X139823989Y-80690712D02*
X139722974Y-80657041D01*
X139722974Y-80657041D02*
X139689302Y-80623369D01*
X139689302Y-80623369D02*
X139655630Y-80522354D01*
X139655630Y-80522354D02*
X139655630Y-80455010D01*
X139655630Y-80455010D02*
X139689302Y-80353995D01*
X139689302Y-80353995D02*
X139823989Y-80219308D01*
X139823989Y-80219308D02*
X139925004Y-80185636D01*
X139925004Y-80185636D02*
X139992348Y-80185636D01*
X139992348Y-80185636D02*
X140093363Y-80219308D01*
X140093363Y-80219308D02*
X140127035Y-80252980D01*
X140127035Y-80252980D02*
X140160706Y-80353995D01*
X140160706Y-80353995D02*
X140160706Y-80421338D01*
X140160706Y-80421338D02*
X140127035Y-80522354D01*
X140127035Y-80522354D02*
X139992348Y-80657041D01*
X139992348Y-80657041D02*
X139958676Y-80758056D01*
X139958676Y-80758056D02*
X139958676Y-80825399D01*
X139958676Y-80825399D02*
X139992348Y-80926415D01*
X139992348Y-80926415D02*
X140127035Y-81061102D01*
X140127035Y-81061102D02*
X140228050Y-81094773D01*
X140228050Y-81094773D02*
X140295393Y-81094773D01*
X140295393Y-81094773D02*
X140396409Y-81061102D01*
X140396409Y-81061102D02*
X140531096Y-80926415D01*
X140531096Y-80926415D02*
X140564767Y-80825399D01*
X140564767Y-80825399D02*
X140564767Y-80758056D01*
X140564767Y-80758056D02*
X140531096Y-80657041D01*
X140531096Y-80657041D02*
X140396409Y-80522354D01*
X140396409Y-80522354D02*
X140295393Y-80488682D01*
X140295393Y-80488682D02*
X140228050Y-80488682D01*
X140228050Y-80488682D02*
X140127035Y-80522354D01*
X85564819Y-78043333D02*
X86279104Y-78043333D01*
X86279104Y-78043333D02*
X86421961Y-78090952D01*
X86421961Y-78090952D02*
X86517200Y-78186190D01*
X86517200Y-78186190D02*
X86564819Y-78329047D01*
X86564819Y-78329047D02*
X86564819Y-78424285D01*
X85898152Y-77138571D02*
X86564819Y-77138571D01*
X85517200Y-77376666D02*
X86231485Y-77614761D01*
X86231485Y-77614761D02*
X86231485Y-76995714D01*
X60527820Y-56244819D02*
X60527820Y-55244819D01*
X60527820Y-55721009D02*
X61099248Y-55721009D01*
X61099248Y-56244819D02*
X61099248Y-55244819D01*
X61527820Y-55340057D02*
X61575439Y-55292438D01*
X61575439Y-55292438D02*
X61670677Y-55244819D01*
X61670677Y-55244819D02*
X61908772Y-55244819D01*
X61908772Y-55244819D02*
X62004010Y-55292438D01*
X62004010Y-55292438D02*
X62051629Y-55340057D01*
X62051629Y-55340057D02*
X62099248Y-55435295D01*
X62099248Y-55435295D02*
X62099248Y-55530533D01*
X62099248Y-55530533D02*
X62051629Y-55673390D01*
X62051629Y-55673390D02*
X61480201Y-56244819D01*
X61480201Y-56244819D02*
X62099248Y-56244819D01*
X72669580Y-117156666D02*
X72717200Y-117204285D01*
X72717200Y-117204285D02*
X72764819Y-117347142D01*
X72764819Y-117347142D02*
X72764819Y-117442380D01*
X72764819Y-117442380D02*
X72717200Y-117585237D01*
X72717200Y-117585237D02*
X72621961Y-117680475D01*
X72621961Y-117680475D02*
X72526723Y-117728094D01*
X72526723Y-117728094D02*
X72336247Y-117775713D01*
X72336247Y-117775713D02*
X72193390Y-117775713D01*
X72193390Y-117775713D02*
X72002914Y-117728094D01*
X72002914Y-117728094D02*
X71907676Y-117680475D01*
X71907676Y-117680475D02*
X71812438Y-117585237D01*
X71812438Y-117585237D02*
X71764819Y-117442380D01*
X71764819Y-117442380D02*
X71764819Y-117347142D01*
X71764819Y-117347142D02*
X71812438Y-117204285D01*
X71812438Y-117204285D02*
X71860057Y-117156666D01*
X71860057Y-116775713D02*
X71812438Y-116728094D01*
X71812438Y-116728094D02*
X71764819Y-116632856D01*
X71764819Y-116632856D02*
X71764819Y-116394761D01*
X71764819Y-116394761D02*
X71812438Y-116299523D01*
X71812438Y-116299523D02*
X71860057Y-116251904D01*
X71860057Y-116251904D02*
X71955295Y-116204285D01*
X71955295Y-116204285D02*
X72050533Y-116204285D01*
X72050533Y-116204285D02*
X72193390Y-116251904D01*
X72193390Y-116251904D02*
X72764819Y-116823332D01*
X72764819Y-116823332D02*
X72764819Y-116204285D01*
X60527204Y-130744658D02*
X60527204Y-129744658D01*
X60527204Y-130220848D02*
X61098632Y-130220848D01*
X61098632Y-130744658D02*
X61098632Y-129744658D01*
X62003394Y-130077991D02*
X62003394Y-130744658D01*
X61765299Y-129697039D02*
X61527204Y-130411324D01*
X61527204Y-130411324D02*
X62146251Y-130411324D01*
X54589819Y-103458333D02*
X55304104Y-103458333D01*
X55304104Y-103458333D02*
X55446961Y-103505952D01*
X55446961Y-103505952D02*
X55542200Y-103601190D01*
X55542200Y-103601190D02*
X55589819Y-103744047D01*
X55589819Y-103744047D02*
X55589819Y-103839285D01*
X54685057Y-103029761D02*
X54637438Y-102982142D01*
X54637438Y-102982142D02*
X54589819Y-102886904D01*
X54589819Y-102886904D02*
X54589819Y-102648809D01*
X54589819Y-102648809D02*
X54637438Y-102553571D01*
X54637438Y-102553571D02*
X54685057Y-102505952D01*
X54685057Y-102505952D02*
X54780295Y-102458333D01*
X54780295Y-102458333D02*
X54875533Y-102458333D01*
X54875533Y-102458333D02*
X55018390Y-102505952D01*
X55018390Y-102505952D02*
X55589819Y-103077380D01*
X55589819Y-103077380D02*
X55589819Y-102458333D01*
X78527815Y-56244819D02*
X78527815Y-55244819D01*
X78527815Y-55721009D02*
X79099243Y-55721009D01*
X79099243Y-56244819D02*
X79099243Y-55244819D01*
X80099243Y-56244819D02*
X79527815Y-56244819D01*
X79813529Y-56244819D02*
X79813529Y-55244819D01*
X79813529Y-55244819D02*
X79718291Y-55387676D01*
X79718291Y-55387676D02*
X79623053Y-55482914D01*
X79623053Y-55482914D02*
X79527815Y-55530533D01*
X85564819Y-114803333D02*
X86279104Y-114803333D01*
X86279104Y-114803333D02*
X86421961Y-114850952D01*
X86421961Y-114850952D02*
X86517200Y-114946190D01*
X86517200Y-114946190D02*
X86564819Y-115089047D01*
X86564819Y-115089047D02*
X86564819Y-115184285D01*
X85564819Y-114422380D02*
X85564819Y-113803333D01*
X85564819Y-113803333D02*
X85945771Y-114136666D01*
X85945771Y-114136666D02*
X85945771Y-113993809D01*
X85945771Y-113993809D02*
X85993390Y-113898571D01*
X85993390Y-113898571D02*
X86041009Y-113850952D01*
X86041009Y-113850952D02*
X86136247Y-113803333D01*
X86136247Y-113803333D02*
X86374342Y-113803333D01*
X86374342Y-113803333D02*
X86469580Y-113850952D01*
X86469580Y-113850952D02*
X86517200Y-113898571D01*
X86517200Y-113898571D02*
X86564819Y-113993809D01*
X86564819Y-113993809D02*
X86564819Y-114279523D01*
X86564819Y-114279523D02*
X86517200Y-114374761D01*
X86517200Y-114374761D02*
X86469580Y-114422380D01*
X62173333Y-115919580D02*
X62125714Y-115967200D01*
X62125714Y-115967200D02*
X61982857Y-116014819D01*
X61982857Y-116014819D02*
X61887619Y-116014819D01*
X61887619Y-116014819D02*
X61744762Y-115967200D01*
X61744762Y-115967200D02*
X61649524Y-115871961D01*
X61649524Y-115871961D02*
X61601905Y-115776723D01*
X61601905Y-115776723D02*
X61554286Y-115586247D01*
X61554286Y-115586247D02*
X61554286Y-115443390D01*
X61554286Y-115443390D02*
X61601905Y-115252914D01*
X61601905Y-115252914D02*
X61649524Y-115157676D01*
X61649524Y-115157676D02*
X61744762Y-115062438D01*
X61744762Y-115062438D02*
X61887619Y-115014819D01*
X61887619Y-115014819D02*
X61982857Y-115014819D01*
X61982857Y-115014819D02*
X62125714Y-115062438D01*
X62125714Y-115062438D02*
X62173333Y-115110057D01*
X63125714Y-116014819D02*
X62554286Y-116014819D01*
X62840000Y-116014819D02*
X62840000Y-115014819D01*
X62840000Y-115014819D02*
X62744762Y-115157676D01*
X62744762Y-115157676D02*
X62649524Y-115252914D01*
X62649524Y-115252914D02*
X62554286Y-115300533D01*
X54589819Y-110748333D02*
X55304104Y-110748333D01*
X55304104Y-110748333D02*
X55446961Y-110795952D01*
X55446961Y-110795952D02*
X55542200Y-110891190D01*
X55542200Y-110891190D02*
X55589819Y-111034047D01*
X55589819Y-111034047D02*
X55589819Y-111129285D01*
X55589819Y-109748333D02*
X55589819Y-110319761D01*
X55589819Y-110034047D02*
X54589819Y-110034047D01*
X54589819Y-110034047D02*
X54732676Y-110129285D01*
X54732676Y-110129285D02*
X54827914Y-110224523D01*
X54827914Y-110224523D02*
X54875533Y-110319761D01*
X51708972Y-89489925D02*
X51746467Y-89377439D01*
X51746467Y-89377439D02*
X51746467Y-89189963D01*
X51746467Y-89189963D02*
X51708972Y-89114972D01*
X51708972Y-89114972D02*
X51671476Y-89077477D01*
X51671476Y-89077477D02*
X51596486Y-89039981D01*
X51596486Y-89039981D02*
X51521495Y-89039981D01*
X51521495Y-89039981D02*
X51446504Y-89077477D01*
X51446504Y-89077477D02*
X51409009Y-89114972D01*
X51409009Y-89114972D02*
X51371514Y-89189963D01*
X51371514Y-89189963D02*
X51334018Y-89339944D01*
X51334018Y-89339944D02*
X51296523Y-89414935D01*
X51296523Y-89414935D02*
X51259028Y-89452430D01*
X51259028Y-89452430D02*
X51184037Y-89489925D01*
X51184037Y-89489925D02*
X51109046Y-89489925D01*
X51109046Y-89489925D02*
X51034056Y-89452430D01*
X51034056Y-89452430D02*
X50996560Y-89414935D01*
X50996560Y-89414935D02*
X50959065Y-89339944D01*
X50959065Y-89339944D02*
X50959065Y-89152467D01*
X50959065Y-89152467D02*
X50996560Y-89039981D01*
X51746467Y-88290074D02*
X51746467Y-88740018D01*
X51746467Y-88515046D02*
X50959065Y-88515046D01*
X50959065Y-88515046D02*
X51071551Y-88590037D01*
X51071551Y-88590037D02*
X51146542Y-88665028D01*
X51146542Y-88665028D02*
X51184037Y-88740018D01*
X58804819Y-92926666D02*
X58328628Y-93259999D01*
X58804819Y-93498094D02*
X57804819Y-93498094D01*
X57804819Y-93498094D02*
X57804819Y-93117142D01*
X57804819Y-93117142D02*
X57852438Y-93021904D01*
X57852438Y-93021904D02*
X57900057Y-92974285D01*
X57900057Y-92974285D02*
X57995295Y-92926666D01*
X57995295Y-92926666D02*
X58138152Y-92926666D01*
X58138152Y-92926666D02*
X58233390Y-92974285D01*
X58233390Y-92974285D02*
X58281009Y-93021904D01*
X58281009Y-93021904D02*
X58328628Y-93117142D01*
X58328628Y-93117142D02*
X58328628Y-93498094D01*
X58804819Y-91974285D02*
X58804819Y-92545713D01*
X58804819Y-92259999D02*
X57804819Y-92259999D01*
X57804819Y-92259999D02*
X57947676Y-92355237D01*
X57947676Y-92355237D02*
X58042914Y-92450475D01*
X58042914Y-92450475D02*
X58090533Y-92545713D01*
D11*
%TO.C,J9*%
X129520600Y-114627277D02*
X130461052Y-113686825D01*
X130305489Y-115412166D02*
X129520600Y-114627277D01*
X131337865Y-116444542D02*
X136810871Y-110971535D01*
X132023758Y-115758648D02*
X131776271Y-115511161D01*
X132532875Y-115249531D02*
X132285388Y-115002044D01*
X133819810Y-113962597D02*
X133529896Y-113672683D01*
X134328927Y-113453480D02*
X134039013Y-113163566D01*
X135615861Y-112166546D02*
X135325947Y-111876632D01*
X136124978Y-111657429D02*
X135835064Y-111367515D01*
X137440196Y-122546873D02*
X131337865Y-116444542D01*
X137440196Y-122546873D02*
X142913203Y-117073867D01*
X137525049Y-122462021D02*
X131422718Y-116359689D01*
X137608555Y-122378515D02*
X131506223Y-116276183D01*
X137692061Y-122295009D02*
X131589729Y-116192678D01*
X137775567Y-122211503D02*
X131673235Y-116109172D01*
X137859072Y-122127998D02*
X131756741Y-116025666D01*
X137942578Y-122044492D02*
X131840247Y-115942160D01*
X138026084Y-121960986D02*
X131923752Y-115858654D01*
X138109590Y-121877480D02*
X132007258Y-115775149D01*
X138193095Y-121793974D02*
X132090764Y-115691643D01*
X138276601Y-121710469D02*
X132174270Y-115608137D01*
X138360107Y-121626963D02*
X132257775Y-115524631D01*
X138443613Y-121543457D02*
X132341281Y-115441126D01*
X138527119Y-121459951D02*
X132424787Y-115357620D01*
X138610624Y-121376446D02*
X132508293Y-115274114D01*
X138694130Y-121292940D02*
X132591799Y-115190608D01*
X138777636Y-121209434D02*
X132675304Y-115107102D01*
X138861142Y-121125928D02*
X132758810Y-115023597D01*
X138944647Y-121042422D02*
X132842316Y-114940091D01*
X139028153Y-120958917D02*
X132925822Y-114856585D01*
X139111659Y-120875411D02*
X133009327Y-114773079D01*
X139195165Y-120791905D02*
X133092833Y-114689574D01*
X139278674Y-120708396D02*
X133176343Y-114606064D01*
X141074725Y-118912345D02*
X134972394Y-112810013D01*
X142913203Y-117073867D02*
X136810871Y-110971535D01*
%TO.C,U3*%
D12*
X86990000Y-83790000D02*
X104770000Y-83790000D01*
X104770000Y-109190000D01*
X86990000Y-109190000D01*
X86990000Y-83790000D01*
D13*
%TO.C,U5*%
X63405000Y-99185000D02*
X63405000Y-91585000D01*
X63575000Y-91585000D02*
X63405000Y-91585000D01*
X63575000Y-99185000D02*
X63405000Y-99185000D01*
X76235000Y-91585000D02*
X76405000Y-91585000D01*
X76235000Y-99185000D02*
X76405000Y-99185000D01*
X76405000Y-99185000D02*
X76405000Y-91585000D01*
D14*
X64255000Y-101635000D02*
G75*
G02*
X64055000Y-101635000I-100000J0D01*
G01*
X64055000Y-101635000D02*
G75*
G02*
X64255000Y-101635000I100000J0D01*
G01*
D11*
%TO.C,J7*%
X138630000Y-100345423D02*
X138630000Y-99015423D01*
X139740000Y-100345423D02*
X138630000Y-100345423D01*
X141200000Y-93575423D02*
X140790000Y-93575423D01*
X141200000Y-94295423D02*
X140790000Y-94295423D01*
X141200000Y-96115423D02*
X140790000Y-96115423D01*
X141200000Y-96835423D02*
X140790000Y-96835423D01*
X141200000Y-98655423D02*
X140850000Y-98655423D01*
X141200000Y-99375423D02*
X140850000Y-99375423D01*
X141200000Y-100345423D02*
X141200000Y-92605423D01*
X149830000Y-92605423D02*
X141200000Y-92605423D01*
X149830000Y-95205423D02*
X141200000Y-95205423D01*
X149830000Y-97745423D02*
X141200000Y-97745423D01*
X149830000Y-97863523D02*
X141200000Y-97863523D01*
X149830000Y-97981618D02*
X141200000Y-97981618D01*
X149830000Y-98099713D02*
X141200000Y-98099713D01*
X149830000Y-98217808D02*
X141200000Y-98217808D01*
X149830000Y-98335903D02*
X141200000Y-98335903D01*
X149830000Y-98453998D02*
X141200000Y-98453998D01*
X149830000Y-98572093D02*
X141200000Y-98572093D01*
X149830000Y-98690188D02*
X141200000Y-98690188D01*
X149830000Y-98808283D02*
X141200000Y-98808283D01*
X149830000Y-98926378D02*
X141200000Y-98926378D01*
X149830000Y-99044473D02*
X141200000Y-99044473D01*
X149830000Y-99162568D02*
X141200000Y-99162568D01*
X149830000Y-99280663D02*
X141200000Y-99280663D01*
X149830000Y-99398758D02*
X141200000Y-99398758D01*
X149830000Y-99516853D02*
X141200000Y-99516853D01*
X149830000Y-99634948D02*
X141200000Y-99634948D01*
X149830000Y-99753043D02*
X141200000Y-99753043D01*
X149830000Y-99871138D02*
X141200000Y-99871138D01*
X149830000Y-99989233D02*
X141200000Y-99989233D01*
X149830000Y-100107328D02*
X141200000Y-100107328D01*
X149830000Y-100225423D02*
X141200000Y-100225423D01*
X149830000Y-100345423D02*
X141200000Y-100345423D01*
X149830000Y-100345423D02*
X149830000Y-92605423D01*
D14*
%TO.C,U1*%
X62660000Y-108910000D02*
X66160000Y-108910000D01*
X66160000Y-108910000D02*
X66160000Y-110060000D01*
X66160000Y-114260000D02*
X66160000Y-115410000D01*
X66160000Y-115410000D02*
X62660000Y-115410000D01*
X59410000Y-109860000D02*
G75*
G02*
X59210000Y-109860000I-100000J0D01*
G01*
X59210000Y-109860000D02*
G75*
G02*
X59410000Y-109860000I100000J0D01*
G01*
D11*
%TO.C,J5*%
X112980486Y-118284754D02*
X114310486Y-118284754D01*
X112980486Y-119394754D02*
X112980486Y-118284754D01*
X112980486Y-120854754D02*
X120720486Y-120854754D01*
X112980486Y-129484754D02*
X112980486Y-120854754D01*
X112980486Y-129484754D02*
X120720486Y-129484754D01*
X113100486Y-129484754D02*
X113100486Y-120854754D01*
X113218581Y-129484754D02*
X113218581Y-120854754D01*
X113336676Y-129484754D02*
X113336676Y-120854754D01*
X113454771Y-129484754D02*
X113454771Y-120854754D01*
X113572866Y-129484754D02*
X113572866Y-120854754D01*
X113690961Y-129484754D02*
X113690961Y-120854754D01*
X113809056Y-129484754D02*
X113809056Y-120854754D01*
X113927151Y-129484754D02*
X113927151Y-120854754D01*
X113950486Y-120854754D02*
X113950486Y-120504754D01*
X114045246Y-129484754D02*
X114045246Y-120854754D01*
X114163341Y-129484754D02*
X114163341Y-120854754D01*
X114281436Y-129484754D02*
X114281436Y-120854754D01*
X114399531Y-129484754D02*
X114399531Y-120854754D01*
X114517626Y-129484754D02*
X114517626Y-120854754D01*
X114635721Y-129484754D02*
X114635721Y-120854754D01*
X114670486Y-120854754D02*
X114670486Y-120504754D01*
X114753816Y-129484754D02*
X114753816Y-120854754D01*
X114871911Y-129484754D02*
X114871911Y-120854754D01*
X114990006Y-129484754D02*
X114990006Y-120854754D01*
X115108101Y-129484754D02*
X115108101Y-120854754D01*
X115226196Y-129484754D02*
X115226196Y-120854754D01*
X115344291Y-129484754D02*
X115344291Y-120854754D01*
X115462386Y-129484754D02*
X115462386Y-120854754D01*
X115580486Y-129484754D02*
X115580486Y-120854754D01*
X116490486Y-120854754D02*
X116490486Y-120444754D01*
X117210486Y-120854754D02*
X117210486Y-120444754D01*
X118120486Y-129484754D02*
X118120486Y-120854754D01*
X119030486Y-120854754D02*
X119030486Y-120444754D01*
X119750486Y-120854754D02*
X119750486Y-120444754D01*
X120720486Y-129484754D02*
X120720486Y-120854754D01*
D15*
%TO.C,J10*%
X130706100Y-86029000D02*
X130706100Y-105841000D01*
X130706100Y-105841000D02*
X135963900Y-105841000D01*
X135963900Y-86029000D02*
X130706100Y-86029000D01*
X135963900Y-105841000D02*
X135963900Y-86029000D01*
D16*
X133081000Y-106476000D02*
G75*
G02*
X132319000Y-106476000I-381000J0D01*
G01*
X132319000Y-106476000D02*
G75*
G02*
X133081000Y-106476000I381000J0D01*
G01*
D11*
%TO.C,J6*%
X112950669Y-63495909D02*
X112950669Y-72125909D01*
X113920669Y-72125909D02*
X113920669Y-72535909D01*
X114640669Y-72125909D02*
X114640669Y-72535909D01*
X115550669Y-63495909D02*
X115550669Y-72125909D01*
X116460669Y-72125909D02*
X116460669Y-72535909D01*
X117180669Y-72125909D02*
X117180669Y-72535909D01*
X118090669Y-63495909D02*
X118090669Y-72125909D01*
X118208769Y-63495909D02*
X118208769Y-72125909D01*
X118326864Y-63495909D02*
X118326864Y-72125909D01*
X118444959Y-63495909D02*
X118444959Y-72125909D01*
X118563054Y-63495909D02*
X118563054Y-72125909D01*
X118681149Y-63495909D02*
X118681149Y-72125909D01*
X118799244Y-63495909D02*
X118799244Y-72125909D01*
X118917339Y-63495909D02*
X118917339Y-72125909D01*
X119000669Y-72125909D02*
X119000669Y-72475909D01*
X119035434Y-63495909D02*
X119035434Y-72125909D01*
X119153529Y-63495909D02*
X119153529Y-72125909D01*
X119271624Y-63495909D02*
X119271624Y-72125909D01*
X119389719Y-63495909D02*
X119389719Y-72125909D01*
X119507814Y-63495909D02*
X119507814Y-72125909D01*
X119625909Y-63495909D02*
X119625909Y-72125909D01*
X119720669Y-72125909D02*
X119720669Y-72475909D01*
X119744004Y-63495909D02*
X119744004Y-72125909D01*
X119862099Y-63495909D02*
X119862099Y-72125909D01*
X119980194Y-63495909D02*
X119980194Y-72125909D01*
X120098289Y-63495909D02*
X120098289Y-72125909D01*
X120216384Y-63495909D02*
X120216384Y-72125909D01*
X120334479Y-63495909D02*
X120334479Y-72125909D01*
X120452574Y-63495909D02*
X120452574Y-72125909D01*
X120570669Y-63495909D02*
X120570669Y-72125909D01*
X120690669Y-63495909D02*
X112950669Y-63495909D01*
X120690669Y-63495909D02*
X120690669Y-72125909D01*
X120690669Y-72125909D02*
X112950669Y-72125909D01*
X120690669Y-73585909D02*
X120690669Y-74695909D01*
X120690669Y-74695909D02*
X119360669Y-74695909D01*
%TO.C,J8*%
X132002675Y-77200932D02*
X131712761Y-77490846D01*
X132511792Y-77710049D02*
X132221878Y-77999963D01*
X133798726Y-78996983D02*
X133508812Y-79286897D01*
X134307843Y-79506100D02*
X134017929Y-79796014D01*
X134972523Y-83805310D02*
X134032071Y-82864858D01*
X135594777Y-80793035D02*
X135347290Y-81040522D01*
X135757412Y-83020421D02*
X134972523Y-83805310D01*
X136103894Y-81302152D02*
X135856407Y-81549639D01*
X136789788Y-81988045D02*
X131316781Y-76515039D01*
X137419113Y-70412707D02*
X131316781Y-76515039D01*
X139257591Y-72251185D02*
X133155259Y-78353516D01*
X141053642Y-74047236D02*
X134951310Y-80149567D01*
X141137151Y-74130745D02*
X135034820Y-80233077D01*
X141220657Y-74214251D02*
X135118325Y-80316583D01*
X141304163Y-74297757D02*
X135201831Y-80400088D01*
X141387668Y-74381263D02*
X135285337Y-80483594D01*
X141471174Y-74464768D02*
X135368843Y-80567100D01*
X141554680Y-74548274D02*
X135452348Y-80650606D01*
X141638186Y-74631780D02*
X135535854Y-80734111D01*
X141721692Y-74715286D02*
X135619360Y-80817617D01*
X141805197Y-74798791D02*
X135702866Y-80901123D01*
X141888703Y-74882297D02*
X135786372Y-80984629D01*
X141972209Y-74965803D02*
X135869877Y-81068135D01*
X142055715Y-75049309D02*
X135953383Y-81151640D01*
X142139220Y-75132815D02*
X136036889Y-81235146D01*
X142222726Y-75216320D02*
X136120395Y-81318652D01*
X142306232Y-75299826D02*
X136203900Y-81402158D01*
X142389738Y-75383332D02*
X136287406Y-81485663D01*
X142473244Y-75466838D02*
X136370912Y-81569169D01*
X142556749Y-75550343D02*
X136454418Y-81652675D01*
X142640255Y-75633849D02*
X136537924Y-81736181D01*
X142723761Y-75717355D02*
X136621429Y-81819687D01*
X142807267Y-75800861D02*
X136704935Y-81903192D01*
X142892119Y-75885714D02*
X136789788Y-81988045D01*
X142892119Y-75885714D02*
X137419113Y-70412707D01*
%TO.C,J4*%
X81700000Y-73600000D02*
X81700000Y-74650000D01*
X81700000Y-74650000D02*
X80710000Y-74650000D01*
X81700000Y-81820000D02*
X81700000Y-80770000D01*
X82850000Y-73600000D02*
X81700000Y-73600000D01*
X82850000Y-81820000D02*
X81700000Y-81820000D01*
X84820000Y-74770000D02*
X84820000Y-80650000D01*
%TO.C,C2*%
X69895000Y-116728748D02*
X69895000Y-117251252D01*
X71365000Y-116728748D02*
X71365000Y-117251252D01*
D13*
%TO.C,J2*%
X49300000Y-100200000D02*
X53800000Y-100200000D01*
X49300000Y-106100000D02*
X49300000Y-100200000D01*
X53800000Y-100200000D02*
X53800000Y-106100000D01*
X53800000Y-106100000D02*
X49300000Y-106100000D01*
D14*
X48700000Y-104150000D02*
G75*
G02*
X48500000Y-104150000I-100000J0D01*
G01*
X48500000Y-104150000D02*
G75*
G02*
X48700000Y-104150000I100000J0D01*
G01*
D11*
%TO.C,J3*%
X81700000Y-110360000D02*
X81700000Y-111410000D01*
X81700000Y-111410000D02*
X80710000Y-111410000D01*
X81700000Y-118580000D02*
X81700000Y-117530000D01*
X82850000Y-110360000D02*
X81700000Y-110360000D01*
X82850000Y-118580000D02*
X81700000Y-118580000D01*
X84820000Y-111530000D02*
X84820000Y-117410000D01*
%TO.C,C1*%
X62078748Y-116505000D02*
X62601252Y-116505000D01*
X62078748Y-117975000D02*
X62601252Y-117975000D01*
D13*
%TO.C,J1*%
X49300000Y-107490000D02*
X53800000Y-107490000D01*
X49300000Y-113390000D02*
X49300000Y-107490000D01*
X53800000Y-107490000D02*
X53800000Y-113390000D01*
X53800000Y-113390000D02*
X49300000Y-113390000D01*
D14*
X48700000Y-111440000D02*
G75*
G02*
X48500000Y-111440000I-100000J0D01*
G01*
X48500000Y-111440000D02*
G75*
G02*
X48700000Y-111440000I100000J0D01*
G01*
D13*
%TO.C,S1*%
X49390000Y-86890000D02*
X49390000Y-83890000D01*
X49390000Y-88890000D02*
X49390000Y-86890000D01*
X49390000Y-90890000D02*
X49390000Y-88890000D01*
X49390000Y-93890000D02*
X49390000Y-90890000D01*
X50090000Y-83890000D02*
X49390000Y-83890000D01*
X50090000Y-93890000D02*
X49390000Y-93890000D01*
X53390000Y-83890000D02*
X52690000Y-83890000D01*
X53390000Y-83890000D02*
X53390000Y-93890000D01*
X53390000Y-93890000D02*
X52690000Y-93890000D01*
D11*
%TO.C,R1*%
X55965000Y-92532936D02*
X55965000Y-92987064D01*
X57435000Y-92532936D02*
X57435000Y-92987064D01*
%TD*%
M02*
