M48
; DRILL file {KiCad 9.0.3} date 2026-02-14T15:55:29-0500
; FORMAT={-:-/ absolute / inch / decimal}
; #@! TF.CreationDate,2026-02-14T15:55:29-05:00
; #@! TF.GenerationSoftware,Kicad,Pcbnew,9.0.3
; #@! TF.FileFunction,Plated,1,2,PTH
FMAT,2
INCH
; #@! TA.AperFunction,Plated,PTH,ViaDrill
T1C0.0118
; #@! TA.AperFunction,Plated,PTH,ComponentDrill
T2C0.0300
; #@! TA.AperFunction,Plated,PTH,ComponentDrill
T3C0.0315
; #@! TA.AperFunction,Plated,PTH,ComponentDrill
T4C0.0394
; #@! TA.AperFunction,Plated,PTH,ComponentDrill
T5C0.0591
%
G90
G05
T1
X2.2067Y-3.7394
X2.4185Y-4.2551
X2.5224Y-3.4823
X2.5732Y-4.6189
X2.628Y-4.0693
X2.7319Y-4.6976
X2.7504Y-3.4854
X2.7512Y-3.8402
X3.035Y-3.5449
X3.0732Y-3.8154
X3.0768Y-3.9386
X3.1327Y-4.6047
X3.1335Y-3.1531
X3.3878Y-3.3992
X4.4839Y-3.9452
X4.6102Y-3.0795
X4.7299Y-4.0791
X4.8173Y-3.9966
X4.8561Y-4.2868
X4.8976Y-4.3665
X4.9831Y-4.4457
X5.0327Y-4.3764
X5.0555Y-4.0645
X5.0815Y-3.9992
X5.0858Y-3.9374
X5.0969Y-3.6441
X5.1421Y-3.8378
X5.1657Y-4.1976
X5.2059Y-3.4642
X5.2782Y-4.0794
X5.285Y-4.1154
X5.3169Y-3.5051
X5.3322Y-3.9262
X5.3322Y-4.0961
X5.3323Y-3.9583
X5.335Y-3.8669
X5.3366Y-3.6114
X5.337Y-3.7512
X5.3453Y-3.6992
X5.3575Y-4.0114
X5.4177Y-3.8213
T2
X5.2244Y-3.552
X5.2244Y-3.602
X5.2244Y-3.652
X5.2244Y-3.702
X5.2244Y-3.752
X5.2244Y-3.802
X5.2244Y-3.852
X5.2244Y-3.902
X5.2244Y-3.952
X5.2244Y-4.002
X5.2744Y-3.552
X5.2744Y-3.602
X5.2744Y-3.652
X5.2744Y-3.702
X5.2744Y-3.752
X5.2744Y-3.802
X5.2744Y-3.852
X5.2744Y-3.902
X5.2744Y-3.952
X5.2744Y-4.002
T3
X2.0079Y-4.0217
X2.0079Y-4.1004
X2.0079Y-4.3087
X2.0079Y-4.3874
X2.0232Y-3.4209
X2.0232Y-3.4996
X2.0232Y-3.5783
T4
X3.5248Y-3.3988
X3.5248Y-3.4978
X3.5248Y-3.5988
X3.5248Y-3.6988
X3.5248Y-3.7988
X3.5248Y-3.8988
X3.5248Y-3.9988
X3.5248Y-4.0988
X3.5248Y-4.1988
X4.0248Y-3.5988
X4.0248Y-3.6988
X4.0248Y-3.7988
X4.0248Y-3.8988
X4.0248Y-3.9988
X4.4992Y-2.8971
X4.5004Y-4.7006
X4.5992Y-2.8971
X4.6004Y-4.7006
X4.6992Y-2.8971
X4.7004Y-4.7006
X5.1663Y-3.0901
X5.1672Y-4.5068
X5.237Y-3.1608
X5.2379Y-4.436
X5.3078Y-3.2315
X5.3086Y-4.3653
X5.5016Y-3.6982
X5.5016Y-3.7982
X5.5016Y-3.8982
T5
X2.0232Y-3.3087
X2.0232Y-3.6906
M30
