%TF.GenerationSoftware,KiCad,Pcbnew,9.0.3*%
%TF.CreationDate,2026-02-14T15:55:26-05:00*%
%TF.ProjectId,MM26_bottom,4d4d3236-5f62-46f7-9474-6f6d2e6b6963,rev?*%
%TF.SameCoordinates,Original*%
%TF.FileFunction,Soldermask,Bot*%
%TF.FilePolarity,Negative*%
%FSLAX46Y46*%
G04 Gerber Fmt 4.6, Leading zero omitted, Abs format (unit mm)*
G04 Created by KiCad (PCBNEW 9.0.3) date 2026-02-14 15:55:27*
%MOMM*%
%LPD*%
G01*
G04 APERTURE LIST*
G04 Aperture macros list*
%AMRoundRect*
0 Rectangle with rounded corners*
0 $1 Rounding radius*
0 $2 $3 $4 $5 $6 $7 $8 $9 X,Y pos of 4 corners*
0 Add a 4 corners polygon primitive as box body*
4,1,4,$2,$3,$4,$5,$6,$7,$8,$9,$2,$3,0*
0 Add four circle primitives for the rounded corners*
1,1,$1+$1,$2,$3*
1,1,$1+$1,$4,$5*
1,1,$1+$1,$6,$7*
1,1,$1+$1,$8,$9*
0 Add four rect primitives between the rounded corners*
20,1,$1+$1,$2,$3,$4,$5,0*
20,1,$1+$1,$4,$5,$6,$7,0*
20,1,$1+$1,$6,$7,$8,$9,0*
20,1,$1+$1,$8,$9,$2,$3,0*%
%AMRotRect*
0 Rectangle, with rotation*
0 The origin of the aperture is its center*
0 $1 length*
0 $2 width*
0 $3 Rotation angle, in degrees counterclockwise*
0 Add horizontal line*
21,1,$1,$2,0,0,$3*%
G04 Aperture macros list end*
%ADD10RotRect,1.700000X1.700000X135.000000*%
%ADD11C,1.700000*%
%ADD12C,2.500000*%
%ADD13R,1.700000X1.700000*%
%ADD14C,1.117600*%
%ADD15RotRect,1.700000X1.700000X225.000000*%
%ADD16RoundRect,0.102000X-0.654000X0.654000X-0.654000X-0.654000X0.654000X-0.654000X0.654000X0.654000X0*%
%ADD17C,1.512000*%
%ADD18C,2.454000*%
%ADD19RoundRect,0.250000X-0.337500X-0.475000X0.337500X-0.475000X0.337500X0.475000X-0.337500X0.475000X0*%
%ADD20RoundRect,0.250000X0.337500X0.475000X-0.337500X0.475000X-0.337500X-0.475000X0.337500X-0.475000X0*%
G04 APERTURE END LIST*
D10*
%TO.C,J9*%
X131245941Y-114471714D03*
D11*
X133041992Y-112675663D03*
X134838043Y-110879612D03*
%TD*%
D12*
%TO.C,H5*%
X79289109Y-133739839D03*
%TD*%
D13*
%TO.C,U3*%
X89530000Y-86330000D03*
D11*
X89530000Y-88844600D03*
X89530000Y-91410000D03*
X89530000Y-93950000D03*
X89530000Y-96490000D03*
X89530000Y-99030000D03*
X89530000Y-101570000D03*
X89530000Y-104110000D03*
X89530000Y-106650000D03*
X102230000Y-91410000D03*
X102230000Y-93950000D03*
X102230000Y-96490000D03*
X102230000Y-99030000D03*
X102230000Y-101570000D03*
%TD*%
D13*
%TO.C,J7*%
X139740000Y-99015423D03*
D11*
X139740000Y-96475423D03*
X139740000Y-93935423D03*
%TD*%
D13*
%TO.C,J5*%
X114310486Y-119394754D03*
D11*
X116850486Y-119394754D03*
X119390486Y-119394754D03*
%TD*%
D14*
%TO.C,J10*%
X132700000Y-101650000D03*
X133970000Y-101650000D03*
X132700000Y-100380000D03*
X133970000Y-100380000D03*
X132700000Y-99110000D03*
X133970000Y-99110000D03*
X132700000Y-97840000D03*
X133970000Y-97840000D03*
X132700000Y-96570000D03*
X133970000Y-96570000D03*
X132700000Y-95300000D03*
X133970000Y-95300000D03*
X132700000Y-94030000D03*
X133970000Y-94030000D03*
X132700000Y-92760000D03*
X133970000Y-92760000D03*
X132700000Y-91490000D03*
X133970000Y-91490000D03*
X132700000Y-90220000D03*
X133970000Y-90220000D03*
%TD*%
D13*
%TO.C,J6*%
X119360669Y-73585909D03*
D11*
X116820669Y-73585909D03*
X114280669Y-73585909D03*
%TD*%
D15*
%TO.C,J8*%
X134816960Y-82079969D03*
D11*
X133020909Y-80283918D03*
X131224858Y-78487867D03*
%TD*%
D12*
%TO.C,H2*%
X61289725Y-59240000D03*
%TD*%
%TO.C,H4*%
X61289109Y-133739839D03*
%TD*%
D16*
%TO.C,J2*%
X51000000Y-104150000D03*
D17*
X51000000Y-102150000D03*
%TD*%
D12*
%TO.C,H1*%
X79289720Y-59240000D03*
%TD*%
D16*
%TO.C,J1*%
X51000000Y-111440000D03*
D17*
X51000000Y-109440000D03*
%TD*%
%TO.C,S1*%
X51390000Y-86890000D03*
X51390000Y-88890000D03*
X51390000Y-90890000D03*
D18*
X51390000Y-84040000D03*
X51390000Y-93740000D03*
%TD*%
D19*
%TO.C,C4*%
X64812500Y-96550000D03*
X66887500Y-96550000D03*
%TD*%
D20*
%TO.C,C6*%
X75087500Y-94010000D03*
X73012500Y-94010000D03*
%TD*%
%TO.C,C5*%
X75107500Y-96340000D03*
X73032500Y-96340000D03*
%TD*%
D19*
%TO.C,C3*%
X64732500Y-93670000D03*
X66807500Y-93670000D03*
%TD*%
M02*
