%TF.GenerationSoftware,KiCad,Pcbnew,9.0.3*%
%TF.CreationDate,2026-02-12T12:53:48-05:00*%
%TF.ProjectId,MM26,4d4d3236-2e6b-4696-9361-645f70636258,rev?*%
%TF.SameCoordinates,Original*%
%TF.FileFunction,Paste,Top*%
%TF.FilePolarity,Positive*%
%FSLAX46Y46*%
G04 Gerber Fmt 4.6, Leading zero omitted, Abs format (unit mm)*
G04 Created by KiCad (PCBNEW 9.0.3) date 2026-02-12 12:53:48*
%MOMM*%
%LPD*%
G01*
G04 APERTURE LIST*
G04 Aperture macros list*
%AMRoundRect*
0 Rectangle with rounded corners*
0 $1 Rounding radius*
0 $2 $3 $4 $5 $6 $7 $8 $9 X,Y pos of 4 corners*
0 Add a 4 corners polygon primitive as box body*
4,1,4,$2,$3,$4,$5,$6,$7,$8,$9,$2,$3,0*
0 Add four circle primitives for the rounded corners*
1,1,$1+$1,$2,$3*
1,1,$1+$1,$4,$5*
1,1,$1+$1,$6,$7*
1,1,$1+$1,$8,$9*
0 Add four rect primitives between the rounded corners*
20,1,$1+$1,$2,$3,$4,$5,0*
20,1,$1+$1,$4,$5,$6,$7,0*
20,1,$1+$1,$6,$7,$8,$9,0*
20,1,$1+$1,$8,$9,$2,$3,0*%
G04 Aperture macros list end*
%ADD10RoundRect,0.250000X0.475000X-0.337500X0.475000X0.337500X-0.475000X0.337500X-0.475000X-0.337500X0*%
%ADD11RoundRect,0.250000X-0.337500X-0.475000X0.337500X-0.475000X0.337500X0.475000X-0.337500X0.475000X0*%
%ADD12R,2.200000X1.200000*%
%ADD13R,2.200000X3.500000*%
%ADD14RoundRect,0.150000X0.150000X-0.875000X0.150000X0.875000X-0.150000X0.875000X-0.150000X-0.875000X0*%
%ADD15RoundRect,0.150000X-0.625000X0.150000X-0.625000X-0.150000X0.625000X-0.150000X0.625000X0.150000X0*%
%ADD16RoundRect,0.250000X-0.650000X0.350000X-0.650000X-0.350000X0.650000X-0.350000X0.650000X0.350000X0*%
%ADD17RoundRect,0.250000X0.450000X-0.350000X0.450000X0.350000X-0.450000X0.350000X-0.450000X-0.350000X0*%
%ADD18R,1.600200X1.193800*%
G04 APERTURE END LIST*
D10*
%TO.C,C4*%
X244000000Y-189037500D03*
X244000000Y-186962500D03*
%TD*%
D11*
%TO.C,C1*%
X228362500Y-229600000D03*
X230437500Y-229600000D03*
%TD*%
D10*
%TO.C,C3*%
X247000000Y-189075000D03*
X247000000Y-187000000D03*
%TD*%
D12*
%TO.C,U1*%
X226912500Y-222400000D03*
X226912500Y-224700000D03*
X226912500Y-227000000D03*
D13*
X233112500Y-224700000D03*
%TD*%
D14*
%TO.C,U5*%
X246490000Y-201252500D03*
X247760000Y-201252500D03*
X249030000Y-201252500D03*
X250300000Y-201252500D03*
X251570000Y-201252500D03*
X252840000Y-201252500D03*
X254110000Y-201252500D03*
X255380000Y-201252500D03*
X256650000Y-201252500D03*
X257920000Y-201252500D03*
X257920000Y-191942500D03*
X256650000Y-191942500D03*
X255380000Y-191942500D03*
X254110000Y-191942500D03*
X252840000Y-191942500D03*
X251570000Y-191942500D03*
X250300000Y-191942500D03*
X249030000Y-191942500D03*
X247760000Y-191942500D03*
X246490000Y-191942500D03*
%TD*%
D15*
%TO.C,J4*%
X261375000Y-180420000D03*
X261375000Y-181420000D03*
X261375000Y-182420000D03*
X261375000Y-183420000D03*
X261375000Y-184420000D03*
X261375000Y-185420000D03*
D16*
X263900000Y-179120000D03*
X263900000Y-186720000D03*
%TD*%
D17*
%TO.C,R1*%
X223100000Y-221700000D03*
X223100000Y-219700000D03*
%TD*%
D18*
%TO.C,SW1*%
X215900000Y-217460002D03*
X218700000Y-220000002D03*
X215900000Y-222540002D03*
%TD*%
D15*
%TO.C,J3*%
X260960000Y-207040000D03*
X260960000Y-208040000D03*
X260960000Y-209040000D03*
X260960000Y-210040000D03*
X260960000Y-211040000D03*
X260960000Y-212040000D03*
D16*
X263485000Y-205740000D03*
X263485000Y-213340000D03*
%TD*%
M02*
