%TF.GenerationSoftware,KiCad,Pcbnew,9.0.3*%
%TF.CreationDate,2026-02-12T13:00:54-05:00*%
%TF.ProjectId,MM26,4d4d3236-2e6b-4696-9361-645f70636258,rev?*%
%TF.SameCoordinates,Original*%
%TF.FileFunction,Legend,Bot*%
%TF.FilePolarity,Positive*%
%FSLAX46Y46*%
G04 Gerber Fmt 4.6, Leading zero omitted, Abs format (unit mm)*
G04 Created by KiCad (PCBNEW 9.0.3) date 2026-02-12 13:00:54*
%MOMM*%
%LPD*%
G01*
G04 APERTURE LIST*
%ADD10C,0.150000*%
%ADD11C,0.508000*%
%ADD12C,0.120000*%
G04 APERTURE END LIST*
D10*
X250039580Y-196833333D02*
X250087200Y-196785714D01*
X250087200Y-196785714D02*
X250134819Y-196642857D01*
X250134819Y-196642857D02*
X250134819Y-196547619D01*
X250134819Y-196547619D02*
X250087200Y-196404762D01*
X250087200Y-196404762D02*
X249991961Y-196309524D01*
X249991961Y-196309524D02*
X249896723Y-196261905D01*
X249896723Y-196261905D02*
X249706247Y-196214286D01*
X249706247Y-196214286D02*
X249563390Y-196214286D01*
X249563390Y-196214286D02*
X249372914Y-196261905D01*
X249372914Y-196261905D02*
X249277676Y-196309524D01*
X249277676Y-196309524D02*
X249182438Y-196404762D01*
X249182438Y-196404762D02*
X249134819Y-196547619D01*
X249134819Y-196547619D02*
X249134819Y-196642857D01*
X249134819Y-196642857D02*
X249182438Y-196785714D01*
X249182438Y-196785714D02*
X249230057Y-196833333D01*
X249134819Y-197738095D02*
X249134819Y-197261905D01*
X249134819Y-197261905D02*
X249611009Y-197214286D01*
X249611009Y-197214286D02*
X249563390Y-197261905D01*
X249563390Y-197261905D02*
X249515771Y-197357143D01*
X249515771Y-197357143D02*
X249515771Y-197595238D01*
X249515771Y-197595238D02*
X249563390Y-197690476D01*
X249563390Y-197690476D02*
X249611009Y-197738095D01*
X249611009Y-197738095D02*
X249706247Y-197785714D01*
X249706247Y-197785714D02*
X249944342Y-197785714D01*
X249944342Y-197785714D02*
X250039580Y-197738095D01*
X250039580Y-197738095D02*
X250087200Y-197690476D01*
X250087200Y-197690476D02*
X250134819Y-197595238D01*
X250134819Y-197595238D02*
X250134819Y-197357143D01*
X250134819Y-197357143D02*
X250087200Y-197261905D01*
X250087200Y-197261905D02*
X250039580Y-197214286D01*
X230466666Y-219759580D02*
X230514285Y-219807200D01*
X230514285Y-219807200D02*
X230657142Y-219854819D01*
X230657142Y-219854819D02*
X230752380Y-219854819D01*
X230752380Y-219854819D02*
X230895237Y-219807200D01*
X230895237Y-219807200D02*
X230990475Y-219711961D01*
X230990475Y-219711961D02*
X231038094Y-219616723D01*
X231038094Y-219616723D02*
X231085713Y-219426247D01*
X231085713Y-219426247D02*
X231085713Y-219283390D01*
X231085713Y-219283390D02*
X231038094Y-219092914D01*
X231038094Y-219092914D02*
X230990475Y-218997676D01*
X230990475Y-218997676D02*
X230895237Y-218902438D01*
X230895237Y-218902438D02*
X230752380Y-218854819D01*
X230752380Y-218854819D02*
X230657142Y-218854819D01*
X230657142Y-218854819D02*
X230514285Y-218902438D01*
X230514285Y-218902438D02*
X230466666Y-218950057D01*
X230085713Y-218950057D02*
X230038094Y-218902438D01*
X230038094Y-218902438D02*
X229942856Y-218854819D01*
X229942856Y-218854819D02*
X229704761Y-218854819D01*
X229704761Y-218854819D02*
X229609523Y-218902438D01*
X229609523Y-218902438D02*
X229561904Y-218950057D01*
X229561904Y-218950057D02*
X229514285Y-219045295D01*
X229514285Y-219045295D02*
X229514285Y-219140533D01*
X229514285Y-219140533D02*
X229561904Y-219283390D01*
X229561904Y-219283390D02*
X230133332Y-219854819D01*
X230133332Y-219854819D02*
X229514285Y-219854819D01*
X253039580Y-196833333D02*
X253087200Y-196785714D01*
X253087200Y-196785714D02*
X253134819Y-196642857D01*
X253134819Y-196642857D02*
X253134819Y-196547619D01*
X253134819Y-196547619D02*
X253087200Y-196404762D01*
X253087200Y-196404762D02*
X252991961Y-196309524D01*
X252991961Y-196309524D02*
X252896723Y-196261905D01*
X252896723Y-196261905D02*
X252706247Y-196214286D01*
X252706247Y-196214286D02*
X252563390Y-196214286D01*
X252563390Y-196214286D02*
X252372914Y-196261905D01*
X252372914Y-196261905D02*
X252277676Y-196309524D01*
X252277676Y-196309524D02*
X252182438Y-196404762D01*
X252182438Y-196404762D02*
X252134819Y-196547619D01*
X252134819Y-196547619D02*
X252134819Y-196642857D01*
X252134819Y-196642857D02*
X252182438Y-196785714D01*
X252182438Y-196785714D02*
X252230057Y-196833333D01*
X252134819Y-197690476D02*
X252134819Y-197500000D01*
X252134819Y-197500000D02*
X252182438Y-197404762D01*
X252182438Y-197404762D02*
X252230057Y-197357143D01*
X252230057Y-197357143D02*
X252372914Y-197261905D01*
X252372914Y-197261905D02*
X252563390Y-197214286D01*
X252563390Y-197214286D02*
X252944342Y-197214286D01*
X252944342Y-197214286D02*
X253039580Y-197261905D01*
X253039580Y-197261905D02*
X253087200Y-197309524D01*
X253087200Y-197309524D02*
X253134819Y-197404762D01*
X253134819Y-197404762D02*
X253134819Y-197595238D01*
X253134819Y-197595238D02*
X253087200Y-197690476D01*
X253087200Y-197690476D02*
X253039580Y-197738095D01*
X253039580Y-197738095D02*
X252944342Y-197785714D01*
X252944342Y-197785714D02*
X252706247Y-197785714D01*
X252706247Y-197785714D02*
X252611009Y-197738095D01*
X252611009Y-197738095D02*
X252563390Y-197690476D01*
X252563390Y-197690476D02*
X252515771Y-197595238D01*
X252515771Y-197595238D02*
X252515771Y-197404762D01*
X252515771Y-197404762D02*
X252563390Y-197309524D01*
X252563390Y-197309524D02*
X252611009Y-197261905D01*
X252611009Y-197261905D02*
X252706247Y-197214286D01*
D11*
%TO.C,SW1*%
X216281000Y-213840502D02*
G75*
G02*
X215519000Y-213840502I-381000J0D01*
G01*
X215519000Y-213840502D02*
G75*
G02*
X216281000Y-213840502I381000J0D01*
G01*
D12*
%TO.C,C5*%
X247265000Y-197261252D02*
X247265000Y-196738748D01*
X248735000Y-197261252D02*
X248735000Y-196738748D01*
%TO.C,C2*%
X229165000Y-222061252D02*
X229165000Y-221538748D01*
X230635000Y-222061252D02*
X230635000Y-221538748D01*
%TO.C,C6*%
X250265000Y-197261252D02*
X250265000Y-196738748D01*
X251735000Y-197261252D02*
X251735000Y-196738748D01*
%TD*%
M02*
