M48
; DRILL file {KiCad 9.0.3} date 2026-02-12T13:00:57-0500
; FORMAT={-:-/ absolute / inch / decimal}
; #@! TF.CreationDate,2026-02-12T13:00:57-05:00
; #@! TF.GenerationSoftware,Kicad,Pcbnew,9.0.3
; #@! TF.FileFunction,Plated,1,2,PTH
FMAT,2
INCH
; #@! TA.AperFunction,Plated,PTH,ViaDrill
T1C0.0118
; #@! TA.AperFunction,Plated,PTH,ComponentDrill
T2C0.0315
; #@! TA.AperFunction,Plated,PTH,ComponentDrill
T3C0.0394
; #@! TA.AperFunction,Plated,PTH,ComponentDrill
T4C0.0400
%
G90
G05
T1
X8.4409Y-8.5
X8.8071Y-8.6024
X8.8937Y-8.689
X9.0197Y-8.8346
X9.1575Y-9.0591
X9.5984Y-7.3071
X9.7165Y-7.3031
X9.7244Y-7.8346
X9.9094Y-7.8622
X9.9173Y-7.4843
X9.9488Y-7.6299
X9.9685Y-8.0039
X10.1929Y-8.2992
X10.1969Y-7.9134
X10.2205Y-7.2992
X10.2953Y-7.6929
X10.3425Y-8.3386
X10.3543Y-7.7913
X10.3583Y-7.8622
X10.5669Y-7.6024
X10.6024Y-8.252
X10.6102Y-7.5039
X10.6654Y-8.1929
X10.7677Y-8.0315
X10.7677Y-8.1457
X10.8228Y-8.0866
X10.8425Y-8.8031
X10.9449Y-8.811
X10.9567Y-7.9685
X10.9764Y-7.9291
X11.0433Y-7.0118
X11.2795Y-7.1417
X11.2795Y-8.748
X11.3189Y-8.7913
X11.4016Y-8.7402
X11.5472Y-8.4528
X11.6063Y-8.4409
X11.7559Y-8.811
X11.7913Y-8.6772
X11.9134Y-8.248
X11.9449Y-8.7126
X12.811Y-6.5667
X12.8701Y-6.6496
X13.4528Y-6.874
X13.6181Y-6.8701
X13.9252Y-7.5197
X13.937Y-7.3819
X13.9449Y-7.811
X14.0512Y-7.811
X14.2244Y-7.2835
X14.3425Y-7.437
T2
X8.5512Y-9.2579
X8.6299Y-9.2579
X8.878Y-9.2539
X8.9567Y-9.2539
T3
X13.9173Y-7.9252
X14.0173Y-7.9252
X14.1169Y-7.6662
X14.1173Y-7.9252
X14.1173Y-8.4252
X14.2169Y-7.6662
X14.2173Y-7.9252
X14.2173Y-8.4252
X14.3169Y-7.6662
X14.3173Y-7.9252
X14.3173Y-8.4252
X14.4169Y-7.6662
X14.4173Y-7.9252
X14.4173Y-8.4252
X14.4607Y-6.8286
X14.4618Y-8.6321
X14.5169Y-7.6662
X14.5173Y-7.9252
X14.5173Y-8.4252
X14.5607Y-6.8286
X14.5618Y-8.6321
X14.6169Y-7.6662
X14.6183Y-7.9252
X14.6607Y-6.8286
X14.6618Y-8.6321
X14.7169Y-7.6662
X14.7173Y-7.9252
X14.8169Y-7.6662
X15.1277Y-7.0216
X15.1286Y-8.4383
X15.1985Y-7.0923
X15.1993Y-8.3675
X15.2692Y-7.163
X15.27Y-8.2968
X15.463Y-7.6297
X15.463Y-7.7297
X15.463Y-7.8297
T4
X10.7126Y-6.4903
X10.7126Y-6.5903
X10.7126Y-8.8903
X10.7126Y-8.9903
X10.8126Y-6.4903
X10.8126Y-6.5903
X10.8126Y-8.8903
X10.8126Y-8.9903
X10.9126Y-6.4903
X10.9126Y-6.5903
X10.9126Y-8.8903
X10.9126Y-8.9903
X11.0126Y-6.4903
X11.0126Y-6.5903
X11.0126Y-8.8903
X11.0126Y-8.9903
X11.1126Y-6.4903
X11.1126Y-6.5903
X11.1126Y-8.8903
X11.1126Y-8.9903
X11.2126Y-6.4903
X11.2126Y-6.5903
X11.2126Y-8.8903
X11.2126Y-8.9903
X11.3126Y-6.4903
X11.3126Y-6.5903
X11.3126Y-8.8903
X11.3126Y-8.9903
X11.4126Y-6.4903
X11.4126Y-6.5903
X11.4126Y-8.8903
X11.4126Y-8.9903
X11.5126Y-6.4903
X11.5126Y-6.5903
X11.5126Y-8.8903
X11.5126Y-8.9903
X11.6126Y-6.4903
X11.6126Y-6.5903
X11.6126Y-8.8903
X11.6126Y-8.9903
X11.7126Y-6.4903
X11.7126Y-6.5903
X11.7126Y-8.8903
X11.7126Y-8.9903
X11.8126Y-6.4903
X11.8126Y-6.5903
X11.8126Y-8.8903
X11.8126Y-8.9903
X11.9126Y-6.4903
X11.9126Y-6.5903
X11.9126Y-8.8903
X11.9126Y-8.9903
X12.0126Y-6.4903
X12.0126Y-6.5903
X12.0126Y-8.8903
X12.0126Y-8.9903
X12.1126Y-6.4903
X12.1126Y-6.5903
X12.1126Y-8.8903
X12.1126Y-8.9903
X12.2126Y-6.4903
X12.2126Y-6.5903
X12.2126Y-8.8903
X12.2126Y-8.9903
X12.3126Y-6.4903
X12.3126Y-6.5903
X12.3126Y-8.8903
X12.3126Y-8.9903
X12.4126Y-6.4903
X12.4126Y-6.5903
X12.4126Y-8.8903
X12.4126Y-8.9903
X12.5126Y-6.4903
X12.5126Y-6.5903
X12.5126Y-8.8903
X12.5126Y-8.9903
M30
