%TF.GenerationSoftware,KiCad,Pcbnew,9.0.3*%
%TF.CreationDate,2026-02-12T13:00:54-05:00*%
%TF.ProjectId,MM26,4d4d3236-2e6b-4696-9361-645f70636258,rev?*%
%TF.SameCoordinates,Original*%
%TF.FileFunction,Legend,Top*%
%TF.FilePolarity,Positive*%
%FSLAX46Y46*%
G04 Gerber Fmt 4.6, Leading zero omitted, Abs format (unit mm)*
G04 Created by KiCad (PCBNEW 9.0.3) date 2026-02-12 13:00:54*
%MOMM*%
%LPD*%
G01*
G04 APERTURE LIST*
%ADD10C,0.150000*%
%ADD11C,0.100000*%
%ADD12C,0.120000*%
%ADD13C,0.127000*%
%ADD14C,0.200000*%
%ADD15C,0.152400*%
%ADD16C,0.508000*%
G04 APERTURE END LIST*
D10*
X243733333Y-184959580D02*
X243685714Y-185007200D01*
X243685714Y-185007200D02*
X243542857Y-185054819D01*
X243542857Y-185054819D02*
X243447619Y-185054819D01*
X243447619Y-185054819D02*
X243304762Y-185007200D01*
X243304762Y-185007200D02*
X243209524Y-184911961D01*
X243209524Y-184911961D02*
X243161905Y-184816723D01*
X243161905Y-184816723D02*
X243114286Y-184626247D01*
X243114286Y-184626247D02*
X243114286Y-184483390D01*
X243114286Y-184483390D02*
X243161905Y-184292914D01*
X243161905Y-184292914D02*
X243209524Y-184197676D01*
X243209524Y-184197676D02*
X243304762Y-184102438D01*
X243304762Y-184102438D02*
X243447619Y-184054819D01*
X243447619Y-184054819D02*
X243542857Y-184054819D01*
X243542857Y-184054819D02*
X243685714Y-184102438D01*
X243685714Y-184102438D02*
X243733333Y-184150057D01*
X244590476Y-184388152D02*
X244590476Y-185054819D01*
X244352381Y-184007200D02*
X244114286Y-184721485D01*
X244114286Y-184721485D02*
X244733333Y-184721485D01*
X350103819Y-166567154D02*
X350913342Y-166567154D01*
X350913342Y-166567154D02*
X351008580Y-166519535D01*
X351008580Y-166519535D02*
X351056200Y-166471916D01*
X351056200Y-166471916D02*
X351103819Y-166376678D01*
X351103819Y-166376678D02*
X351103819Y-166186202D01*
X351103819Y-166186202D02*
X351056200Y-166090964D01*
X351056200Y-166090964D02*
X351008580Y-166043345D01*
X351008580Y-166043345D02*
X350913342Y-165995726D01*
X350913342Y-165995726D02*
X350103819Y-165995726D01*
X350199057Y-165567154D02*
X350151438Y-165519535D01*
X350151438Y-165519535D02*
X350103819Y-165424297D01*
X350103819Y-165424297D02*
X350103819Y-165186202D01*
X350103819Y-165186202D02*
X350151438Y-165090964D01*
X350151438Y-165090964D02*
X350199057Y-165043345D01*
X350199057Y-165043345D02*
X350294295Y-164995726D01*
X350294295Y-164995726D02*
X350389533Y-164995726D01*
X350389533Y-164995726D02*
X350532390Y-165043345D01*
X350532390Y-165043345D02*
X351103819Y-165614773D01*
X351103819Y-165614773D02*
X351103819Y-164995726D01*
X392271477Y-180651728D02*
X392776553Y-181156804D01*
X392776553Y-181156804D02*
X392843897Y-181291491D01*
X392843897Y-181291491D02*
X392843897Y-181426178D01*
X392843897Y-181426178D02*
X392776553Y-181560865D01*
X392776553Y-181560865D02*
X392709210Y-181628209D01*
X393348973Y-180988445D02*
X393483660Y-180853758D01*
X393483660Y-180853758D02*
X393517332Y-180752743D01*
X393517332Y-180752743D02*
X393517332Y-180685399D01*
X393517332Y-180685399D02*
X393483660Y-180517041D01*
X393483660Y-180517041D02*
X393382645Y-180348682D01*
X393382645Y-180348682D02*
X393113271Y-180079308D01*
X393113271Y-180079308D02*
X393012256Y-180045636D01*
X393012256Y-180045636D02*
X392944912Y-180045636D01*
X392944912Y-180045636D02*
X392843897Y-180079308D01*
X392843897Y-180079308D02*
X392709210Y-180213995D01*
X392709210Y-180213995D02*
X392675538Y-180315010D01*
X392675538Y-180315010D02*
X392675538Y-180382354D01*
X392675538Y-180382354D02*
X392709210Y-180483369D01*
X392709210Y-180483369D02*
X392877569Y-180651728D01*
X392877569Y-180651728D02*
X392978584Y-180685399D01*
X392978584Y-180685399D02*
X393045927Y-180685399D01*
X393045927Y-180685399D02*
X393146943Y-180651728D01*
X393146943Y-180651728D02*
X393281630Y-180517041D01*
X393281630Y-180517041D02*
X393315301Y-180416025D01*
X393315301Y-180416025D02*
X393315301Y-180348682D01*
X393315301Y-180348682D02*
X393281630Y-180247667D01*
X364015213Y-223968088D02*
X364729498Y-223968088D01*
X364729498Y-223968088D02*
X364872355Y-224015707D01*
X364872355Y-224015707D02*
X364967594Y-224110945D01*
X364967594Y-224110945D02*
X365015213Y-224253802D01*
X365015213Y-224253802D02*
X365015213Y-224349040D01*
X364015213Y-223063326D02*
X364015213Y-223253802D01*
X364015213Y-223253802D02*
X364062832Y-223349040D01*
X364062832Y-223349040D02*
X364110451Y-223396659D01*
X364110451Y-223396659D02*
X364253308Y-223491897D01*
X364253308Y-223491897D02*
X364443784Y-223539516D01*
X364443784Y-223539516D02*
X364824736Y-223539516D01*
X364824736Y-223539516D02*
X364919974Y-223491897D01*
X364919974Y-223491897D02*
X364967594Y-223444278D01*
X364967594Y-223444278D02*
X365015213Y-223349040D01*
X365015213Y-223349040D02*
X365015213Y-223158564D01*
X365015213Y-223158564D02*
X364967594Y-223063326D01*
X364967594Y-223063326D02*
X364919974Y-223015707D01*
X364919974Y-223015707D02*
X364824736Y-222968088D01*
X364824736Y-222968088D02*
X364586641Y-222968088D01*
X364586641Y-222968088D02*
X364491403Y-223015707D01*
X364491403Y-223015707D02*
X364443784Y-223063326D01*
X364443784Y-223063326D02*
X364396165Y-223158564D01*
X364396165Y-223158564D02*
X364396165Y-223349040D01*
X364396165Y-223349040D02*
X364443784Y-223444278D01*
X364443784Y-223444278D02*
X364491403Y-223491897D01*
X364491403Y-223491897D02*
X364586641Y-223539516D01*
X385554090Y-218766323D02*
X385049014Y-219271399D01*
X385049014Y-219271399D02*
X384914327Y-219338743D01*
X384914327Y-219338743D02*
X384779640Y-219338743D01*
X384779640Y-219338743D02*
X384644953Y-219271399D01*
X384644953Y-219271399D02*
X384577609Y-219204056D01*
X385688777Y-219507102D02*
X385655106Y-219406086D01*
X385655106Y-219406086D02*
X385655106Y-219338743D01*
X385655106Y-219338743D02*
X385688777Y-219237728D01*
X385688777Y-219237728D02*
X385722449Y-219204056D01*
X385722449Y-219204056D02*
X385823464Y-219170384D01*
X385823464Y-219170384D02*
X385890808Y-219170384D01*
X385890808Y-219170384D02*
X385991823Y-219204056D01*
X385991823Y-219204056D02*
X386126510Y-219338743D01*
X386126510Y-219338743D02*
X386160182Y-219439758D01*
X386160182Y-219439758D02*
X386160182Y-219507102D01*
X386160182Y-219507102D02*
X386126510Y-219608117D01*
X386126510Y-219608117D02*
X386092838Y-219641789D01*
X386092838Y-219641789D02*
X385991823Y-219675460D01*
X385991823Y-219675460D02*
X385924480Y-219675460D01*
X385924480Y-219675460D02*
X385823464Y-219641789D01*
X385823464Y-219641789D02*
X385688777Y-219507102D01*
X385688777Y-219507102D02*
X385587762Y-219473430D01*
X385587762Y-219473430D02*
X385520419Y-219473430D01*
X385520419Y-219473430D02*
X385419403Y-219507102D01*
X385419403Y-219507102D02*
X385284716Y-219641789D01*
X385284716Y-219641789D02*
X385251045Y-219742804D01*
X385251045Y-219742804D02*
X385251045Y-219810147D01*
X385251045Y-219810147D02*
X385284716Y-219911163D01*
X385284716Y-219911163D02*
X385419403Y-220045850D01*
X385419403Y-220045850D02*
X385520419Y-220079521D01*
X385520419Y-220079521D02*
X385587762Y-220079521D01*
X385587762Y-220079521D02*
X385688777Y-220045850D01*
X385688777Y-220045850D02*
X385823464Y-219911163D01*
X385823464Y-219911163D02*
X385857136Y-219810147D01*
X385857136Y-219810147D02*
X385857136Y-219742804D01*
X385857136Y-219742804D02*
X385823464Y-219641789D01*
X232033333Y-229159580D02*
X231985714Y-229207200D01*
X231985714Y-229207200D02*
X231842857Y-229254819D01*
X231842857Y-229254819D02*
X231747619Y-229254819D01*
X231747619Y-229254819D02*
X231604762Y-229207200D01*
X231604762Y-229207200D02*
X231509524Y-229111961D01*
X231509524Y-229111961D02*
X231461905Y-229016723D01*
X231461905Y-229016723D02*
X231414286Y-228826247D01*
X231414286Y-228826247D02*
X231414286Y-228683390D01*
X231414286Y-228683390D02*
X231461905Y-228492914D01*
X231461905Y-228492914D02*
X231509524Y-228397676D01*
X231509524Y-228397676D02*
X231604762Y-228302438D01*
X231604762Y-228302438D02*
X231747619Y-228254819D01*
X231747619Y-228254819D02*
X231842857Y-228254819D01*
X231842857Y-228254819D02*
X231985714Y-228302438D01*
X231985714Y-228302438D02*
X232033333Y-228350057D01*
X232985714Y-229254819D02*
X232414286Y-229254819D01*
X232700000Y-229254819D02*
X232700000Y-228254819D01*
X232700000Y-228254819D02*
X232604762Y-228397676D01*
X232604762Y-228397676D02*
X232509524Y-228492914D01*
X232509524Y-228492914D02*
X232414286Y-228540533D01*
D11*
X366917419Y-186838104D02*
X367726942Y-186838104D01*
X367726942Y-186838104D02*
X367822180Y-186790485D01*
X367822180Y-186790485D02*
X367869800Y-186742866D01*
X367869800Y-186742866D02*
X367917419Y-186647628D01*
X367917419Y-186647628D02*
X367917419Y-186457152D01*
X367917419Y-186457152D02*
X367869800Y-186361914D01*
X367869800Y-186361914D02*
X367822180Y-186314295D01*
X367822180Y-186314295D02*
X367726942Y-186266676D01*
X367726942Y-186266676D02*
X366917419Y-186266676D01*
X367250752Y-185361914D02*
X367917419Y-185361914D01*
X366869800Y-185600009D02*
X367584085Y-185838104D01*
X367584085Y-185838104D02*
X367584085Y-185219057D01*
D10*
X228265469Y-211040468D02*
X228265469Y-210040468D01*
X228265469Y-210516658D02*
X228836897Y-210516658D01*
X228836897Y-211040468D02*
X228836897Y-210040468D01*
X229836897Y-211040468D02*
X229265469Y-211040468D01*
X229551183Y-211040468D02*
X229551183Y-210040468D01*
X229551183Y-210040468D02*
X229455945Y-210183325D01*
X229455945Y-210183325D02*
X229360707Y-210278563D01*
X229360707Y-210278563D02*
X229265469Y-210326182D01*
X246733333Y-184859580D02*
X246685714Y-184907200D01*
X246685714Y-184907200D02*
X246542857Y-184954819D01*
X246542857Y-184954819D02*
X246447619Y-184954819D01*
X246447619Y-184954819D02*
X246304762Y-184907200D01*
X246304762Y-184907200D02*
X246209524Y-184811961D01*
X246209524Y-184811961D02*
X246161905Y-184716723D01*
X246161905Y-184716723D02*
X246114286Y-184526247D01*
X246114286Y-184526247D02*
X246114286Y-184383390D01*
X246114286Y-184383390D02*
X246161905Y-184192914D01*
X246161905Y-184192914D02*
X246209524Y-184097676D01*
X246209524Y-184097676D02*
X246304762Y-184002438D01*
X246304762Y-184002438D02*
X246447619Y-183954819D01*
X246447619Y-183954819D02*
X246542857Y-183954819D01*
X246542857Y-183954819D02*
X246685714Y-184002438D01*
X246685714Y-184002438D02*
X246733333Y-184050057D01*
X247066667Y-183954819D02*
X247685714Y-183954819D01*
X247685714Y-183954819D02*
X247352381Y-184335771D01*
X247352381Y-184335771D02*
X247495238Y-184335771D01*
X247495238Y-184335771D02*
X247590476Y-184383390D01*
X247590476Y-184383390D02*
X247638095Y-184431009D01*
X247638095Y-184431009D02*
X247685714Y-184526247D01*
X247685714Y-184526247D02*
X247685714Y-184764342D01*
X247685714Y-184764342D02*
X247638095Y-184859580D01*
X247638095Y-184859580D02*
X247590476Y-184907200D01*
X247590476Y-184907200D02*
X247495238Y-184954819D01*
X247495238Y-184954819D02*
X247209524Y-184954819D01*
X247209524Y-184954819D02*
X247114286Y-184907200D01*
X247114286Y-184907200D02*
X247066667Y-184859580D01*
X229238095Y-225154819D02*
X229238095Y-225964342D01*
X229238095Y-225964342D02*
X229285714Y-226059580D01*
X229285714Y-226059580D02*
X229333333Y-226107200D01*
X229333333Y-226107200D02*
X229428571Y-226154819D01*
X229428571Y-226154819D02*
X229619047Y-226154819D01*
X229619047Y-226154819D02*
X229714285Y-226107200D01*
X229714285Y-226107200D02*
X229761904Y-226059580D01*
X229761904Y-226059580D02*
X229809523Y-225964342D01*
X229809523Y-225964342D02*
X229809523Y-225154819D01*
X230809523Y-226154819D02*
X230238095Y-226154819D01*
X230523809Y-226154819D02*
X230523809Y-225154819D01*
X230523809Y-225154819D02*
X230428571Y-225297676D01*
X230428571Y-225297676D02*
X230333333Y-225392914D01*
X230333333Y-225392914D02*
X230238095Y-225440533D01*
X244461876Y-198863119D02*
X244979971Y-198863119D01*
X244979971Y-198863119D02*
X245040923Y-198832642D01*
X245040923Y-198832642D02*
X245071400Y-198802166D01*
X245071400Y-198802166D02*
X245101876Y-198741214D01*
X245101876Y-198741214D02*
X245101876Y-198619309D01*
X245101876Y-198619309D02*
X245071400Y-198558357D01*
X245071400Y-198558357D02*
X245040923Y-198527880D01*
X245040923Y-198527880D02*
X244979971Y-198497404D01*
X244979971Y-198497404D02*
X244461876Y-198497404D01*
X244461876Y-197887881D02*
X244461876Y-198192643D01*
X244461876Y-198192643D02*
X244766638Y-198223119D01*
X244766638Y-198223119D02*
X244736161Y-198192643D01*
X244736161Y-198192643D02*
X244705685Y-198131690D01*
X244705685Y-198131690D02*
X244705685Y-197979309D01*
X244705685Y-197979309D02*
X244736161Y-197918357D01*
X244736161Y-197918357D02*
X244766638Y-197887881D01*
X244766638Y-197887881D02*
X244827590Y-197857404D01*
X244827590Y-197857404D02*
X244979971Y-197857404D01*
X244979971Y-197857404D02*
X245040923Y-197887881D01*
X245040923Y-197887881D02*
X245071400Y-197918357D01*
X245071400Y-197918357D02*
X245101876Y-197979309D01*
X245101876Y-197979309D02*
X245101876Y-198131690D01*
X245101876Y-198131690D02*
X245071400Y-198192643D01*
X245071400Y-198192643D02*
X245040923Y-198223119D01*
X217841666Y-230469819D02*
X217841666Y-231184104D01*
X217841666Y-231184104D02*
X217794047Y-231326961D01*
X217794047Y-231326961D02*
X217698809Y-231422200D01*
X217698809Y-231422200D02*
X217555952Y-231469819D01*
X217555952Y-231469819D02*
X217460714Y-231469819D01*
X218270238Y-230565057D02*
X218317857Y-230517438D01*
X218317857Y-230517438D02*
X218413095Y-230469819D01*
X218413095Y-230469819D02*
X218651190Y-230469819D01*
X218651190Y-230469819D02*
X218746428Y-230517438D01*
X218746428Y-230517438D02*
X218794047Y-230565057D01*
X218794047Y-230565057D02*
X218841666Y-230660295D01*
X218841666Y-230660295D02*
X218841666Y-230755533D01*
X218841666Y-230755533D02*
X218794047Y-230898390D01*
X218794047Y-230898390D02*
X218222619Y-231469819D01*
X218222619Y-231469819D02*
X218841666Y-231469819D01*
X265454819Y-183253333D02*
X266169104Y-183253333D01*
X266169104Y-183253333D02*
X266311961Y-183300952D01*
X266311961Y-183300952D02*
X266407200Y-183396190D01*
X266407200Y-183396190D02*
X266454819Y-183539047D01*
X266454819Y-183539047D02*
X266454819Y-183634285D01*
X265788152Y-182348571D02*
X266454819Y-182348571D01*
X265407200Y-182586666D02*
X266121485Y-182824761D01*
X266121485Y-182824761D02*
X266121485Y-182205714D01*
X221904819Y-220866666D02*
X221428628Y-221199999D01*
X221904819Y-221438094D02*
X220904819Y-221438094D01*
X220904819Y-221438094D02*
X220904819Y-221057142D01*
X220904819Y-221057142D02*
X220952438Y-220961904D01*
X220952438Y-220961904D02*
X221000057Y-220914285D01*
X221000057Y-220914285D02*
X221095295Y-220866666D01*
X221095295Y-220866666D02*
X221238152Y-220866666D01*
X221238152Y-220866666D02*
X221333390Y-220914285D01*
X221333390Y-220914285D02*
X221381009Y-220961904D01*
X221381009Y-220961904D02*
X221428628Y-221057142D01*
X221428628Y-221057142D02*
X221428628Y-221438094D01*
X221904819Y-219914285D02*
X221904819Y-220485713D01*
X221904819Y-220199999D02*
X220904819Y-220199999D01*
X220904819Y-220199999D02*
X221047676Y-220295237D01*
X221047676Y-220295237D02*
X221142914Y-220390475D01*
X221142914Y-220390475D02*
X221190533Y-220485713D01*
X215492800Y-218666669D02*
X215445180Y-218809526D01*
X215445180Y-218809526D02*
X215445180Y-219047621D01*
X215445180Y-219047621D02*
X215492800Y-219142859D01*
X215492800Y-219142859D02*
X215540419Y-219190478D01*
X215540419Y-219190478D02*
X215635657Y-219238097D01*
X215635657Y-219238097D02*
X215730895Y-219238097D01*
X215730895Y-219238097D02*
X215826133Y-219190478D01*
X215826133Y-219190478D02*
X215873752Y-219142859D01*
X215873752Y-219142859D02*
X215921371Y-219047621D01*
X215921371Y-219047621D02*
X215968990Y-218857145D01*
X215968990Y-218857145D02*
X216016609Y-218761907D01*
X216016609Y-218761907D02*
X216064228Y-218714288D01*
X216064228Y-218714288D02*
X216159466Y-218666669D01*
X216159466Y-218666669D02*
X216254704Y-218666669D01*
X216254704Y-218666669D02*
X216349942Y-218714288D01*
X216349942Y-218714288D02*
X216397561Y-218761907D01*
X216397561Y-218761907D02*
X216445180Y-218857145D01*
X216445180Y-218857145D02*
X216445180Y-219095240D01*
X216445180Y-219095240D02*
X216397561Y-219238097D01*
X216445180Y-219571431D02*
X215445180Y-219809526D01*
X215445180Y-219809526D02*
X216159466Y-220000002D01*
X216159466Y-220000002D02*
X215445180Y-220190478D01*
X215445180Y-220190478D02*
X216445180Y-220428574D01*
X215445180Y-221333335D02*
X215445180Y-220761907D01*
X215445180Y-221047621D02*
X216445180Y-221047621D01*
X216445180Y-221047621D02*
X216302323Y-220952383D01*
X216302323Y-220952383D02*
X216207085Y-220857145D01*
X216207085Y-220857145D02*
X216159466Y-220761907D01*
X261539360Y-159307602D02*
X261539360Y-158307602D01*
X261539360Y-158783792D02*
X262110788Y-158783792D01*
X262110788Y-159307602D02*
X262110788Y-158307602D01*
X263015550Y-158307602D02*
X262825074Y-158307602D01*
X262825074Y-158307602D02*
X262729836Y-158355221D01*
X262729836Y-158355221D02*
X262682217Y-158402840D01*
X262682217Y-158402840D02*
X262586979Y-158545697D01*
X262586979Y-158545697D02*
X262539360Y-158736173D01*
X262539360Y-158736173D02*
X262539360Y-159117125D01*
X262539360Y-159117125D02*
X262586979Y-159212363D01*
X262586979Y-159212363D02*
X262634598Y-159259983D01*
X262634598Y-159259983D02*
X262729836Y-159307602D01*
X262729836Y-159307602D02*
X262920312Y-159307602D01*
X262920312Y-159307602D02*
X263015550Y-159259983D01*
X263015550Y-159259983D02*
X263063169Y-159212363D01*
X263063169Y-159212363D02*
X263110788Y-159117125D01*
X263110788Y-159117125D02*
X263110788Y-158879030D01*
X263110788Y-158879030D02*
X263063169Y-158783792D01*
X263063169Y-158783792D02*
X263015550Y-158736173D01*
X263015550Y-158736173D02*
X262920312Y-158688554D01*
X262920312Y-158688554D02*
X262729836Y-158688554D01*
X262729836Y-158688554D02*
X262634598Y-158736173D01*
X262634598Y-158736173D02*
X262586979Y-158783792D01*
X262586979Y-158783792D02*
X262539360Y-158879030D01*
X243539360Y-227402036D02*
X243539360Y-226402036D01*
X243539360Y-226878226D02*
X244110788Y-226878226D01*
X244110788Y-227402036D02*
X244110788Y-226402036D01*
X244491741Y-226402036D02*
X245110788Y-226402036D01*
X245110788Y-226402036D02*
X244777455Y-226782988D01*
X244777455Y-226782988D02*
X244920312Y-226782988D01*
X244920312Y-226782988D02*
X245015550Y-226830607D01*
X245015550Y-226830607D02*
X245063169Y-226878226D01*
X245063169Y-226878226D02*
X245110788Y-226973464D01*
X245110788Y-226973464D02*
X245110788Y-227211559D01*
X245110788Y-227211559D02*
X245063169Y-227306797D01*
X245063169Y-227306797D02*
X245015550Y-227354417D01*
X245015550Y-227354417D02*
X244920312Y-227402036D01*
X244920312Y-227402036D02*
X244634598Y-227402036D01*
X244634598Y-227402036D02*
X244539360Y-227354417D01*
X244539360Y-227354417D02*
X244491741Y-227306797D01*
X261539360Y-227402036D02*
X261539360Y-226402036D01*
X261539360Y-226878226D02*
X262110788Y-226878226D01*
X262110788Y-227402036D02*
X262110788Y-226402036D01*
X262539360Y-226497274D02*
X262586979Y-226449655D01*
X262586979Y-226449655D02*
X262682217Y-226402036D01*
X262682217Y-226402036D02*
X262920312Y-226402036D01*
X262920312Y-226402036D02*
X263015550Y-226449655D01*
X263015550Y-226449655D02*
X263063169Y-226497274D01*
X263063169Y-226497274D02*
X263110788Y-226592512D01*
X263110788Y-226592512D02*
X263110788Y-226687750D01*
X263110788Y-226687750D02*
X263063169Y-226830607D01*
X263063169Y-226830607D02*
X262491741Y-227402036D01*
X262491741Y-227402036D02*
X263110788Y-227402036D01*
X226141666Y-230369819D02*
X226141666Y-231084104D01*
X226141666Y-231084104D02*
X226094047Y-231226961D01*
X226094047Y-231226961D02*
X225998809Y-231322200D01*
X225998809Y-231322200D02*
X225855952Y-231369819D01*
X225855952Y-231369819D02*
X225760714Y-231369819D01*
X227141666Y-231369819D02*
X226570238Y-231369819D01*
X226855952Y-231369819D02*
X226855952Y-230369819D01*
X226855952Y-230369819D02*
X226760714Y-230512676D01*
X226760714Y-230512676D02*
X226665476Y-230607914D01*
X226665476Y-230607914D02*
X226570238Y-230655533D01*
X380898095Y-186488819D02*
X380898095Y-185488819D01*
X380898095Y-185965009D02*
X381469523Y-185965009D01*
X381469523Y-186488819D02*
X381469523Y-185488819D01*
X381850476Y-185488819D02*
X382517142Y-185488819D01*
X382517142Y-185488819D02*
X382088571Y-186488819D01*
X380898095Y-201220819D02*
X380898095Y-200220819D01*
X380898095Y-200697009D02*
X381469523Y-200697009D01*
X381469523Y-201220819D02*
X381469523Y-200220819D01*
X382088571Y-200649390D02*
X381993333Y-200601771D01*
X381993333Y-200601771D02*
X381945714Y-200554152D01*
X381945714Y-200554152D02*
X381898095Y-200458914D01*
X381898095Y-200458914D02*
X381898095Y-200411295D01*
X381898095Y-200411295D02*
X381945714Y-200316057D01*
X381945714Y-200316057D02*
X381993333Y-200268438D01*
X381993333Y-200268438D02*
X382088571Y-200220819D01*
X382088571Y-200220819D02*
X382279047Y-200220819D01*
X382279047Y-200220819D02*
X382374285Y-200268438D01*
X382374285Y-200268438D02*
X382421904Y-200316057D01*
X382421904Y-200316057D02*
X382469523Y-200411295D01*
X382469523Y-200411295D02*
X382469523Y-200458914D01*
X382469523Y-200458914D02*
X382421904Y-200554152D01*
X382421904Y-200554152D02*
X382374285Y-200601771D01*
X382374285Y-200601771D02*
X382279047Y-200649390D01*
X382279047Y-200649390D02*
X382088571Y-200649390D01*
X382088571Y-200649390D02*
X381993333Y-200697009D01*
X381993333Y-200697009D02*
X381945714Y-200744628D01*
X381945714Y-200744628D02*
X381898095Y-200839866D01*
X381898095Y-200839866D02*
X381898095Y-201030342D01*
X381898095Y-201030342D02*
X381945714Y-201125580D01*
X381945714Y-201125580D02*
X381993333Y-201173200D01*
X381993333Y-201173200D02*
X382088571Y-201220819D01*
X382088571Y-201220819D02*
X382279047Y-201220819D01*
X382279047Y-201220819D02*
X382374285Y-201173200D01*
X382374285Y-201173200D02*
X382421904Y-201125580D01*
X382421904Y-201125580D02*
X382469523Y-201030342D01*
X382469523Y-201030342D02*
X382469523Y-200839866D01*
X382469523Y-200839866D02*
X382421904Y-200744628D01*
X382421904Y-200744628D02*
X382374285Y-200697009D01*
X382374285Y-200697009D02*
X382279047Y-200649390D01*
X396806575Y-201100242D02*
X396806575Y-201814527D01*
X396806575Y-201814527D02*
X396758956Y-201957384D01*
X396758956Y-201957384D02*
X396663718Y-202052623D01*
X396663718Y-202052623D02*
X396520861Y-202100242D01*
X396520861Y-202100242D02*
X396425623Y-202100242D01*
X397758956Y-201100242D02*
X397282766Y-201100242D01*
X397282766Y-201100242D02*
X397235147Y-201576432D01*
X397235147Y-201576432D02*
X397282766Y-201528813D01*
X397282766Y-201528813D02*
X397378004Y-201481194D01*
X397378004Y-201481194D02*
X397616099Y-201481194D01*
X397616099Y-201481194D02*
X397711337Y-201528813D01*
X397711337Y-201528813D02*
X397758956Y-201576432D01*
X397758956Y-201576432D02*
X397806575Y-201671670D01*
X397806575Y-201671670D02*
X397806575Y-201909765D01*
X397806575Y-201909765D02*
X397758956Y-202005003D01*
X397758956Y-202005003D02*
X397711337Y-202052623D01*
X397711337Y-202052623D02*
X397616099Y-202100242D01*
X397616099Y-202100242D02*
X397378004Y-202100242D01*
X397378004Y-202100242D02*
X397282766Y-202052623D01*
X397282766Y-202052623D02*
X397235147Y-202005003D01*
X243539360Y-159307602D02*
X243539360Y-158307602D01*
X243539360Y-158783792D02*
X244110788Y-158783792D01*
X244110788Y-159307602D02*
X244110788Y-158307602D01*
X245015550Y-158640935D02*
X245015550Y-159307602D01*
X244777455Y-158259983D02*
X244539360Y-158974268D01*
X244539360Y-158974268D02*
X245158407Y-158974268D01*
X265039819Y-209873333D02*
X265754104Y-209873333D01*
X265754104Y-209873333D02*
X265896961Y-209920952D01*
X265896961Y-209920952D02*
X265992200Y-210016190D01*
X265992200Y-210016190D02*
X266039819Y-210159047D01*
X266039819Y-210159047D02*
X266039819Y-210254285D01*
X265039819Y-209492380D02*
X265039819Y-208873333D01*
X265039819Y-208873333D02*
X265420771Y-209206666D01*
X265420771Y-209206666D02*
X265420771Y-209063809D01*
X265420771Y-209063809D02*
X265468390Y-208968571D01*
X265468390Y-208968571D02*
X265516009Y-208920952D01*
X265516009Y-208920952D02*
X265611247Y-208873333D01*
X265611247Y-208873333D02*
X265849342Y-208873333D01*
X265849342Y-208873333D02*
X265944580Y-208920952D01*
X265944580Y-208920952D02*
X265992200Y-208968571D01*
X265992200Y-208968571D02*
X266039819Y-209063809D01*
X266039819Y-209063809D02*
X266039819Y-209349523D01*
X266039819Y-209349523D02*
X265992200Y-209444761D01*
X265992200Y-209444761D02*
X265944580Y-209492380D01*
X374605396Y-169399242D02*
X375319681Y-169399242D01*
X375319681Y-169399242D02*
X375462538Y-169446861D01*
X375462538Y-169446861D02*
X375557777Y-169542099D01*
X375557777Y-169542099D02*
X375605396Y-169684956D01*
X375605396Y-169684956D02*
X375605396Y-169780194D01*
X374605396Y-169018289D02*
X374605396Y-168351623D01*
X374605396Y-168351623D02*
X375605396Y-168780194D01*
X228265469Y-175669464D02*
X228265469Y-174669464D01*
X228265469Y-175145654D02*
X228836897Y-175145654D01*
X228836897Y-175669464D02*
X228836897Y-174669464D01*
X229789278Y-174669464D02*
X229313088Y-174669464D01*
X229313088Y-174669464D02*
X229265469Y-175145654D01*
X229265469Y-175145654D02*
X229313088Y-175098035D01*
X229313088Y-175098035D02*
X229408326Y-175050416D01*
X229408326Y-175050416D02*
X229646421Y-175050416D01*
X229646421Y-175050416D02*
X229741659Y-175098035D01*
X229741659Y-175098035D02*
X229789278Y-175145654D01*
X229789278Y-175145654D02*
X229836897Y-175240892D01*
X229836897Y-175240892D02*
X229836897Y-175478987D01*
X229836897Y-175478987D02*
X229789278Y-175574225D01*
X229789278Y-175574225D02*
X229741659Y-175621845D01*
X229741659Y-175621845D02*
X229646421Y-175669464D01*
X229646421Y-175669464D02*
X229408326Y-175669464D01*
X229408326Y-175669464D02*
X229313088Y-175621845D01*
X229313088Y-175621845D02*
X229265469Y-175574225D01*
D12*
%TO.C,C4*%
X243265000Y-188261252D02*
X243265000Y-187738748D01*
X244735000Y-188261252D02*
X244735000Y-187738748D01*
D13*
%TO.C,U2*%
X267060000Y-175104850D02*
X267060000Y-208104850D01*
X267060000Y-208104850D02*
X269060000Y-210104850D01*
X269060000Y-163604850D02*
X269060000Y-173104850D01*
X269060000Y-173104850D02*
X267060000Y-175104850D01*
X269060000Y-210104850D02*
X269060000Y-229604850D01*
X271060000Y-231604850D02*
X347560000Y-231604850D01*
X347560000Y-161604850D02*
X271060000Y-161604850D01*
X349560000Y-163604850D02*
X349560000Y-229604850D01*
X269060000Y-163604850D02*
G75*
G02*
X271060000Y-161604850I1999999J1D01*
G01*
X271060000Y-231604850D02*
G75*
G02*
X269060000Y-229604850I0J2000000D01*
G01*
X347560000Y-161604850D02*
G75*
G02*
X349560000Y-163604850I1J-1999999D01*
G01*
X349560000Y-229604850D02*
G75*
G02*
X347560000Y-231604850I-2000000J0D01*
G01*
D14*
X317920000Y-161020150D02*
G75*
G02*
X317720000Y-161020150I-100000J0D01*
G01*
X317720000Y-161020150D02*
G75*
G02*
X317920000Y-161020150I100000J0D01*
G01*
D12*
%TO.C,J9*%
X385022583Y-177060932D02*
X384732669Y-177350846D01*
X385531700Y-177570049D02*
X385241786Y-177859963D01*
X386818634Y-178856983D02*
X386528720Y-179146897D01*
X387327751Y-179366100D02*
X387037837Y-179656014D01*
X387992431Y-183665310D02*
X387051979Y-182724858D01*
X388614685Y-180653035D02*
X388367198Y-180900522D01*
X388777320Y-182880421D02*
X387992431Y-183665310D01*
X389123802Y-181162152D02*
X388876315Y-181409639D01*
X389809696Y-181848045D02*
X384336689Y-176375039D01*
X390439021Y-170272707D02*
X384336689Y-176375039D01*
X392277499Y-172111185D02*
X386175167Y-178213516D01*
X394073550Y-173907236D02*
X387971218Y-180009567D01*
X394157059Y-173990745D02*
X388054728Y-180093077D01*
X394240565Y-174074251D02*
X388138233Y-180176583D01*
X394324071Y-174157757D02*
X388221739Y-180260088D01*
X394407576Y-174241263D02*
X388305245Y-180343594D01*
X394491082Y-174324768D02*
X388388751Y-180427100D01*
X394574588Y-174408274D02*
X388472256Y-180510606D01*
X394658094Y-174491780D02*
X388555762Y-180594111D01*
X394741600Y-174575286D02*
X388639268Y-180677617D01*
X394825105Y-174658791D02*
X388722774Y-180761123D01*
X394908611Y-174742297D02*
X388806280Y-180844629D01*
X394992117Y-174825803D02*
X388889785Y-180928135D01*
X395075623Y-174909309D02*
X388973291Y-181011640D01*
X395159128Y-174992815D02*
X389056797Y-181095146D01*
X395242634Y-175076320D02*
X389140303Y-181178652D01*
X395326140Y-175159826D02*
X389223808Y-181262158D01*
X395409646Y-175243332D02*
X389307314Y-181345663D01*
X395493152Y-175326838D02*
X389390820Y-181429169D01*
X395576657Y-175410343D02*
X389474326Y-181512675D01*
X395660163Y-175493849D02*
X389557832Y-181596181D01*
X395743669Y-175577355D02*
X389641337Y-181679687D01*
X395827175Y-175660861D02*
X389724843Y-181763192D01*
X395912027Y-175745714D02*
X389809696Y-181848045D01*
X395912027Y-175745714D02*
X390439021Y-170272707D01*
%TO.C,J6*%
X366000394Y-218144755D02*
X367330394Y-218144755D01*
X366000394Y-219254755D02*
X366000394Y-218144755D01*
X366000394Y-220714755D02*
X373740394Y-220714755D01*
X366000394Y-229344755D02*
X366000394Y-220714755D01*
X366000394Y-229344755D02*
X373740394Y-229344755D01*
X366120394Y-229344755D02*
X366120394Y-220714755D01*
X366238489Y-229344755D02*
X366238489Y-220714755D01*
X366356584Y-229344755D02*
X366356584Y-220714755D01*
X366474679Y-229344755D02*
X366474679Y-220714755D01*
X366592774Y-229344755D02*
X366592774Y-220714755D01*
X366710869Y-229344755D02*
X366710869Y-220714755D01*
X366828964Y-229344755D02*
X366828964Y-220714755D01*
X366947059Y-229344755D02*
X366947059Y-220714755D01*
X366970394Y-220714755D02*
X366970394Y-220364755D01*
X367065154Y-229344755D02*
X367065154Y-220714755D01*
X367183249Y-229344755D02*
X367183249Y-220714755D01*
X367301344Y-229344755D02*
X367301344Y-220714755D01*
X367419439Y-229344755D02*
X367419439Y-220714755D01*
X367537534Y-229344755D02*
X367537534Y-220714755D01*
X367655629Y-229344755D02*
X367655629Y-220714755D01*
X367690394Y-220714755D02*
X367690394Y-220364755D01*
X367773724Y-229344755D02*
X367773724Y-220714755D01*
X367891819Y-229344755D02*
X367891819Y-220714755D01*
X368009914Y-229344755D02*
X368009914Y-220714755D01*
X368128009Y-229344755D02*
X368128009Y-220714755D01*
X368246104Y-229344755D02*
X368246104Y-220714755D01*
X368364199Y-229344755D02*
X368364199Y-220714755D01*
X368482294Y-229344755D02*
X368482294Y-220714755D01*
X368600394Y-229344755D02*
X368600394Y-220714755D01*
X369510394Y-220714755D02*
X369510394Y-220304755D01*
X370230394Y-220714755D02*
X370230394Y-220304755D01*
X371140394Y-229344755D02*
X371140394Y-220714755D01*
X372050394Y-220714755D02*
X372050394Y-220304755D01*
X372770394Y-220714755D02*
X372770394Y-220304755D01*
X373740394Y-229344755D02*
X373740394Y-220714755D01*
%TO.C,J8*%
X382540509Y-214487277D02*
X383480961Y-213546825D01*
X383325398Y-215272166D02*
X382540509Y-214487277D01*
X384357774Y-216304542D02*
X389830780Y-210831535D01*
X385043667Y-215618648D02*
X384796180Y-215371161D01*
X385552784Y-215109531D02*
X385305297Y-214862044D01*
X386839719Y-213822597D02*
X386549805Y-213532683D01*
X387348836Y-213313480D02*
X387058922Y-213023566D01*
X388635770Y-212026546D02*
X388345856Y-211736632D01*
X389144887Y-211517429D02*
X388854973Y-211227515D01*
X390460105Y-222406873D02*
X384357774Y-216304542D01*
X390460105Y-222406873D02*
X395933112Y-216933867D01*
X390544958Y-222322021D02*
X384442627Y-216219689D01*
X390628464Y-222238515D02*
X384526132Y-216136183D01*
X390711970Y-222155009D02*
X384609638Y-216052678D01*
X390795476Y-222071503D02*
X384693144Y-215969172D01*
X390878981Y-221987998D02*
X384776650Y-215885666D01*
X390962487Y-221904492D02*
X384860156Y-215802160D01*
X391045993Y-221820986D02*
X384943661Y-215718654D01*
X391129499Y-221737480D02*
X385027167Y-215635149D01*
X391213004Y-221653974D02*
X385110673Y-215551643D01*
X391296510Y-221570469D02*
X385194179Y-215468137D01*
X391380016Y-221486963D02*
X385277684Y-215384631D01*
X391463522Y-221403457D02*
X385361190Y-215301126D01*
X391547028Y-221319951D02*
X385444696Y-215217620D01*
X391630533Y-221236446D02*
X385528202Y-215134114D01*
X391714039Y-221152940D02*
X385611708Y-215050608D01*
X391797545Y-221069434D02*
X385695213Y-214967102D01*
X391881051Y-220985928D02*
X385778719Y-214883597D01*
X391964556Y-220902422D02*
X385862225Y-214800091D01*
X392048062Y-220818917D02*
X385945731Y-214716585D01*
X392131568Y-220735411D02*
X386029236Y-214633079D01*
X392215074Y-220651905D02*
X386112742Y-214549574D01*
X392298583Y-220568396D02*
X386196252Y-214466064D01*
X394094634Y-218772345D02*
X387992303Y-212670013D01*
X395933112Y-216933867D02*
X389830780Y-210831535D01*
%TO.C,C1*%
X229138748Y-228865000D02*
X229661252Y-228865000D01*
X229138748Y-230335000D02*
X229661252Y-230335000D01*
%TO.C,U4*%
X357190000Y-196100600D02*
X357190000Y-194720600D01*
X358570000Y-196100600D02*
X357190000Y-196100600D01*
X359840000Y-193340600D02*
X377730000Y-193340600D01*
X359840000Y-196100600D02*
X359840000Y-193340600D01*
X359840000Y-196100600D02*
X377730000Y-196100600D01*
X377730000Y-196100600D02*
X377730000Y-193340600D01*
D11*
X350950000Y-197506200D02*
X383970000Y-197506200D01*
X383970000Y-174646200D01*
X350950000Y-174646200D01*
X350950000Y-197506200D01*
D12*
%TO.C,C3*%
X246265000Y-188298752D02*
X246265000Y-187776248D01*
X247735000Y-188298752D02*
X247735000Y-187776248D01*
D14*
%TO.C,U1*%
X228262500Y-221450000D02*
X231762500Y-221450000D01*
X231762500Y-221450000D02*
X231762500Y-222600000D01*
X231762500Y-226800000D02*
X231762500Y-227950000D01*
X231762500Y-227950000D02*
X228262500Y-227950000D01*
X225012500Y-222400000D02*
G75*
G02*
X224812500Y-222400000I-100000J0D01*
G01*
X224812500Y-222400000D02*
G75*
G02*
X225012500Y-222400000I100000J0D01*
G01*
D13*
%TO.C,U5*%
X245705000Y-200397500D02*
X245705000Y-192797500D01*
X245875000Y-192797500D02*
X245705000Y-192797500D01*
X245875000Y-200397500D02*
X245705000Y-200397500D01*
X258535000Y-192797500D02*
X258705000Y-192797500D01*
X258535000Y-200397500D02*
X258705000Y-200397500D01*
X258705000Y-200397500D02*
X258705000Y-192797500D01*
D14*
X246555000Y-202847500D02*
G75*
G02*
X246355000Y-202847500I-100000J0D01*
G01*
X246355000Y-202847500D02*
G75*
G02*
X246555000Y-202847500I100000J0D01*
G01*
D13*
%TO.C,J2*%
X215250000Y-232350000D02*
X221150000Y-232350000D01*
X215250000Y-236850000D02*
X215250000Y-232350000D01*
X221150000Y-232350000D02*
X221150000Y-236850000D01*
X221150000Y-236850000D02*
X215250000Y-236850000D01*
D14*
X219300000Y-237550000D02*
G75*
G02*
X219100000Y-237550000I-100000J0D01*
G01*
X219100000Y-237550000D02*
G75*
G02*
X219300000Y-237550000I100000J0D01*
G01*
D12*
%TO.C,J4*%
X261590000Y-178810000D02*
X261590000Y-179860000D01*
X261590000Y-179860000D02*
X260600000Y-179860000D01*
X261590000Y-187030000D02*
X261590000Y-185980000D01*
X262740000Y-178810000D02*
X261590000Y-178810000D01*
X262740000Y-187030000D02*
X261590000Y-187030000D01*
X264710000Y-179980000D02*
X264710000Y-185860000D01*
%TO.C,R1*%
X222365000Y-220927064D02*
X222365000Y-220472936D01*
X223835000Y-220927064D02*
X223835000Y-220472936D01*
D15*
%TO.C,SW1*%
X215417799Y-215618502D02*
X215417799Y-216530362D01*
X215417799Y-218389642D02*
X215417799Y-221610362D01*
X215417799Y-223469642D02*
X215417799Y-224381502D01*
X215417799Y-224381502D02*
X219176999Y-224381502D01*
X219176999Y-215618502D02*
X215417799Y-215618502D01*
X219176999Y-219070362D02*
X219176999Y-215618502D01*
X219176999Y-224381502D02*
X219176999Y-220929642D01*
D16*
X216281000Y-213840502D02*
G75*
G02*
X215519000Y-213840502I-381000J0D01*
G01*
X215519000Y-213840502D02*
G75*
G02*
X216281000Y-213840502I381000J0D01*
G01*
D13*
%TO.C,J1*%
X223550000Y-232250000D02*
X229450000Y-232250000D01*
X223550000Y-236750000D02*
X223550000Y-232250000D01*
X229450000Y-232250000D02*
X229450000Y-236750000D01*
X229450000Y-236750000D02*
X223550000Y-236750000D01*
D14*
X227600000Y-237450000D02*
G75*
G02*
X227400000Y-237450000I-100000J0D01*
G01*
X227400000Y-237450000D02*
G75*
G02*
X227600000Y-237450000I100000J0D01*
G01*
D12*
%TO.C,J5*%
X391649909Y-200205423D02*
X391649909Y-198875423D01*
X392759909Y-200205423D02*
X391649909Y-200205423D01*
X394219909Y-193435423D02*
X393809909Y-193435423D01*
X394219909Y-194155423D02*
X393809909Y-194155423D01*
X394219909Y-195975423D02*
X393809909Y-195975423D01*
X394219909Y-196695423D02*
X393809909Y-196695423D01*
X394219909Y-198515423D02*
X393869909Y-198515423D01*
X394219909Y-199235423D02*
X393869909Y-199235423D01*
X394219909Y-200205423D02*
X394219909Y-192465423D01*
X402849909Y-192465423D02*
X394219909Y-192465423D01*
X402849909Y-195065423D02*
X394219909Y-195065423D01*
X402849909Y-197605423D02*
X394219909Y-197605423D01*
X402849909Y-197723523D02*
X394219909Y-197723523D01*
X402849909Y-197841618D02*
X394219909Y-197841618D01*
X402849909Y-197959713D02*
X394219909Y-197959713D01*
X402849909Y-198077808D02*
X394219909Y-198077808D01*
X402849909Y-198195903D02*
X394219909Y-198195903D01*
X402849909Y-198313998D02*
X394219909Y-198313998D01*
X402849909Y-198432093D02*
X394219909Y-198432093D01*
X402849909Y-198550188D02*
X394219909Y-198550188D01*
X402849909Y-198668283D02*
X394219909Y-198668283D01*
X402849909Y-198786378D02*
X394219909Y-198786378D01*
X402849909Y-198904473D02*
X394219909Y-198904473D01*
X402849909Y-199022568D02*
X394219909Y-199022568D01*
X402849909Y-199140663D02*
X394219909Y-199140663D01*
X402849909Y-199258758D02*
X394219909Y-199258758D01*
X402849909Y-199376853D02*
X394219909Y-199376853D01*
X402849909Y-199494948D02*
X394219909Y-199494948D01*
X402849909Y-199613043D02*
X394219909Y-199613043D01*
X402849909Y-199731138D02*
X394219909Y-199731138D01*
X402849909Y-199849233D02*
X394219909Y-199849233D01*
X402849909Y-199967328D02*
X394219909Y-199967328D01*
X402849909Y-200085423D02*
X394219909Y-200085423D01*
X402849909Y-200205423D02*
X394219909Y-200205423D01*
X402849909Y-200205423D02*
X402849909Y-192465423D01*
%TO.C,U3*%
D11*
X376360000Y-198760000D02*
X350960000Y-198760000D01*
X350960000Y-216540000D01*
X376360000Y-216540000D01*
X376360000Y-198760000D01*
D12*
%TO.C,J3*%
X261175000Y-205430000D02*
X261175000Y-206480000D01*
X261175000Y-206480000D02*
X260185000Y-206480000D01*
X261175000Y-213650000D02*
X261175000Y-212600000D01*
X262325000Y-205430000D02*
X261175000Y-205430000D01*
X262325000Y-213650000D02*
X261175000Y-213650000D01*
X264295000Y-206600000D02*
X264295000Y-212480000D01*
%TO.C,J7*%
X365970577Y-163355909D02*
X365970577Y-171985909D01*
X366940577Y-171985909D02*
X366940577Y-172395909D01*
X367660577Y-171985909D02*
X367660577Y-172395909D01*
X368570577Y-163355909D02*
X368570577Y-171985909D01*
X369480577Y-171985909D02*
X369480577Y-172395909D01*
X370200577Y-171985909D02*
X370200577Y-172395909D01*
X371110577Y-163355909D02*
X371110577Y-171985909D01*
X371228677Y-163355909D02*
X371228677Y-171985909D01*
X371346772Y-163355909D02*
X371346772Y-171985909D01*
X371464867Y-163355909D02*
X371464867Y-171985909D01*
X371582962Y-163355909D02*
X371582962Y-171985909D01*
X371701057Y-163355909D02*
X371701057Y-171985909D01*
X371819152Y-163355909D02*
X371819152Y-171985909D01*
X371937247Y-163355909D02*
X371937247Y-171985909D01*
X372020577Y-171985909D02*
X372020577Y-172335909D01*
X372055342Y-163355909D02*
X372055342Y-171985909D01*
X372173437Y-163355909D02*
X372173437Y-171985909D01*
X372291532Y-163355909D02*
X372291532Y-171985909D01*
X372409627Y-163355909D02*
X372409627Y-171985909D01*
X372527722Y-163355909D02*
X372527722Y-171985909D01*
X372645817Y-163355909D02*
X372645817Y-171985909D01*
X372740577Y-171985909D02*
X372740577Y-172335909D01*
X372763912Y-163355909D02*
X372763912Y-171985909D01*
X372882007Y-163355909D02*
X372882007Y-171985909D01*
X373000102Y-163355909D02*
X373000102Y-171985909D01*
X373118197Y-163355909D02*
X373118197Y-171985909D01*
X373236292Y-163355909D02*
X373236292Y-171985909D01*
X373354387Y-163355909D02*
X373354387Y-171985909D01*
X373472482Y-163355909D02*
X373472482Y-171985909D01*
X373590577Y-163355909D02*
X373590577Y-171985909D01*
X373710577Y-163355909D02*
X365970577Y-163355909D01*
X373710577Y-163355909D02*
X373710577Y-171985909D01*
X373710577Y-171985909D02*
X365970577Y-171985909D01*
X373710577Y-173445909D02*
X373710577Y-174555909D01*
X373710577Y-174555909D02*
X372380577Y-174555909D01*
%TD*%
M02*
