%TF.GenerationSoftware,KiCad,Pcbnew,9.0.3*%
%TF.CreationDate,2026-02-12T13:00:54-05:00*%
%TF.ProjectId,MM26,4d4d3236-2e6b-4696-9361-645f70636258,rev?*%
%TF.SameCoordinates,Original*%
%TF.FileFunction,Soldermask,Bot*%
%TF.FilePolarity,Negative*%
%FSLAX46Y46*%
G04 Gerber Fmt 4.6, Leading zero omitted, Abs format (unit mm)*
G04 Created by KiCad (PCBNEW 9.0.3) date 2026-02-12 13:00:54*
%MOMM*%
%LPD*%
G01*
G04 APERTURE LIST*
G04 Aperture macros list*
%AMRoundRect*
0 Rectangle with rounded corners*
0 $1 Rounding radius*
0 $2 $3 $4 $5 $6 $7 $8 $9 X,Y pos of 4 corners*
0 Add a 4 corners polygon primitive as box body*
4,1,4,$2,$3,$4,$5,$6,$7,$8,$9,$2,$3,0*
0 Add four circle primitives for the rounded corners*
1,1,$1+$1,$2,$3*
1,1,$1+$1,$4,$5*
1,1,$1+$1,$6,$7*
1,1,$1+$1,$8,$9*
0 Add four rect primitives between the rounded corners*
20,1,$1+$1,$2,$3,$4,$5,0*
20,1,$1+$1,$4,$5,$6,$7,0*
20,1,$1+$1,$6,$7,$8,$9,0*
20,1,$1+$1,$8,$9,$2,$3,0*%
%AMRotRect*
0 Rectangle, with rotation*
0 The origin of the aperture is its center*
0 $1 length*
0 $2 width*
0 $3 Rotation angle, in degrees counterclockwise*
0 Add horizontal line*
21,1,$1,$2,0,0,$3*%
G04 Aperture macros list end*
%ADD10C,3.200000*%
%ADD11RoundRect,0.102000X-0.762000X0.762000X-0.762000X-0.762000X0.762000X-0.762000X0.762000X0.762000X0*%
%ADD12C,1.728000*%
%ADD13RotRect,1.700000X1.700000X225.000000*%
%ADD14C,1.700000*%
%ADD15R,1.700000X1.700000*%
%ADD16RotRect,1.700000X1.700000X135.000000*%
%ADD17C,2.500000*%
%ADD18RoundRect,0.102000X-0.654000X-0.654000X0.654000X-0.654000X0.654000X0.654000X-0.654000X0.654000X0*%
%ADD19C,1.512000*%
%ADD20C,0.889000*%
%ADD21C,2.000000*%
%ADD22RoundRect,0.250000X0.475000X-0.337500X0.475000X0.337500X-0.475000X0.337500X-0.475000X-0.337500X0*%
G04 APERTURE END LIST*
D10*
%TO.C,U2*%
X321630000Y-172474850D03*
X269560000Y-205494850D03*
X320360000Y-220734850D03*
D11*
X317820000Y-164854850D03*
D12*
X317820000Y-167394850D03*
X315280000Y-164854850D03*
X315280000Y-167394850D03*
X312740000Y-164854850D03*
X312740000Y-167394850D03*
X310200000Y-164854850D03*
X310200000Y-167394850D03*
X307660000Y-164854850D03*
X307660000Y-167394850D03*
X305120000Y-164854850D03*
X305120000Y-167394850D03*
X302580000Y-164854850D03*
X302580000Y-167394850D03*
X300040000Y-164854850D03*
X300040000Y-167394850D03*
X297500000Y-164854850D03*
X297500000Y-167394850D03*
X294960000Y-164854850D03*
X294960000Y-167394850D03*
X292420000Y-164854850D03*
X292420000Y-167394850D03*
X289880000Y-164854850D03*
X289880000Y-167394850D03*
X287340000Y-164854850D03*
X287340000Y-167394850D03*
X284800000Y-164854850D03*
X284800000Y-167394850D03*
X282260000Y-164854850D03*
X282260000Y-167394850D03*
X279720000Y-164854850D03*
X279720000Y-167394850D03*
X277180000Y-164854850D03*
X277180000Y-167394850D03*
X274640000Y-164854850D03*
X274640000Y-167394850D03*
X272100000Y-164854850D03*
X272100000Y-167394850D03*
X317820000Y-225814850D03*
X317820000Y-228354850D03*
X315280000Y-225814850D03*
X315280000Y-228354850D03*
X312740000Y-225814850D03*
X312740000Y-228354850D03*
X310200000Y-225814850D03*
X310200000Y-228354850D03*
X307660000Y-225814850D03*
X307660000Y-228354850D03*
X305120000Y-225814850D03*
X305120000Y-228354850D03*
X302580000Y-225814850D03*
X302580000Y-228354850D03*
X300040000Y-225814850D03*
X300040000Y-228354850D03*
X297500000Y-225814850D03*
X297500000Y-228354850D03*
X294960000Y-225814850D03*
X294960000Y-228354850D03*
X292420000Y-225814850D03*
X292420000Y-228354850D03*
X289880000Y-225814850D03*
X289880000Y-228354850D03*
X287340000Y-225814850D03*
X287340000Y-228354850D03*
X284800000Y-225814850D03*
X284800000Y-228354850D03*
X282260000Y-225814850D03*
X282260000Y-228354850D03*
X279720000Y-225814850D03*
X279720000Y-228354850D03*
X277180000Y-225814850D03*
X277180000Y-228354850D03*
X274640000Y-225814850D03*
X274640000Y-228354850D03*
X272100000Y-225814850D03*
X272100000Y-228354850D03*
%TD*%
D13*
%TO.C,J9*%
X387836868Y-181939969D03*
D14*
X386040817Y-180143918D03*
X384244766Y-178347867D03*
%TD*%
D15*
%TO.C,J6*%
X367330394Y-219254755D03*
D14*
X369870394Y-219254755D03*
X372410394Y-219254755D03*
%TD*%
D16*
%TO.C,J8*%
X384265850Y-214331714D03*
D14*
X386061901Y-212535663D03*
X387857952Y-210739612D03*
%TD*%
D15*
%TO.C,U4*%
X358570000Y-194720600D03*
D14*
X361110000Y-194720600D03*
X363650000Y-194720600D03*
X366190000Y-194720600D03*
X368730000Y-194720600D03*
X371270000Y-194720600D03*
X373810000Y-194720600D03*
X376350000Y-194720600D03*
%TD*%
D17*
%TO.C,H1*%
X229027374Y-214035649D03*
%TD*%
D18*
%TO.C,J2*%
X219200000Y-235150000D03*
D19*
X217200000Y-235150000D03*
%TD*%
D20*
%TO.C,SW1*%
X217300000Y-216600004D03*
X217300000Y-223400000D03*
%TD*%
D17*
%TO.C,H6*%
X262301265Y-162302783D03*
%TD*%
%TO.C,H3*%
X244301265Y-230397217D03*
%TD*%
%TO.C,H2*%
X262301265Y-230397217D03*
%TD*%
D18*
%TO.C,J1*%
X227500000Y-235050000D03*
D19*
X225500000Y-235050000D03*
%TD*%
D21*
%TO.C,H7*%
X381660000Y-188984000D03*
%TD*%
%TO.C,H8*%
X381660000Y-203716000D03*
%TD*%
D15*
%TO.C,J5*%
X392759909Y-198875423D03*
D14*
X392759909Y-196335423D03*
X392759909Y-193795423D03*
%TD*%
D15*
%TO.C,U3*%
X373820000Y-201300000D03*
D14*
X371305400Y-201300000D03*
X368740000Y-201300000D03*
X366200000Y-201300000D03*
X363660000Y-201300000D03*
X361120000Y-201300000D03*
X358580000Y-201300000D03*
X356040000Y-201300000D03*
X353500000Y-201300000D03*
X368740000Y-214000000D03*
X366200000Y-214000000D03*
X363660000Y-214000000D03*
X361120000Y-214000000D03*
X358580000Y-214000000D03*
%TD*%
D17*
%TO.C,H4*%
X244301265Y-162302783D03*
%TD*%
D15*
%TO.C,J7*%
X372380577Y-173445909D03*
D14*
X369840577Y-173445909D03*
X367300577Y-173445909D03*
%TD*%
D17*
%TO.C,H5*%
X229027374Y-178664645D03*
%TD*%
D22*
%TO.C,C5*%
X248000000Y-198037500D03*
X248000000Y-195962500D03*
%TD*%
%TO.C,C2*%
X229900000Y-222837500D03*
X229900000Y-220762500D03*
%TD*%
%TO.C,C6*%
X251000000Y-198037500D03*
X251000000Y-195962500D03*
%TD*%
M02*
